<?xml version="1.0" encoding="UTF-8"?>
<!DOCTYPE svg PUBLIC "-//W3C//DTD SVG 1.1//EN" "http://www.w3.org/Graphics/SVG/1.1/DTD/svg11.dtd">
<svg xmlns="http://www.w3.org/2000/svg" version="1.1" width="360px" height="360px" style="shape-rendering:geometricPrecision; text-rendering:geometricPrecision; image-rendering:optimizeQuality; fill-rule:evenodd; clip-rule:evenodd"
    xmlns:xlink="http://www.w3.org/1999/xlink">

    <g>
        <path style="opacity:1" fill="#5975b9" d="M 79.5,114.5 C 79.5,114.833 79.5,115.167 79.5,115.5C 88.8165,116.965 98.1499,118.298 107.5,119.5C 96.1927,119.984 85.026,118.984 74,116.5C 72.3189,116.392 71.1522,115.725 70.5,114.5C 73.1088,115.754 76.1088,115.754 79.5,114.5 Z"/>
    </g>
    <g>
        <path style="opacity:1" fill="#b0c9e7" d="M 284.5,116.5 C 285.239,116.369 285.906,116.536 286.5,117C 281.158,119.257 281.158,120.257 286.5,120C 287.252,120.671 287.586,121.504 287.5,122.5C 286.417,122.539 285.417,122.873 284.5,123.5C 283.833,122.833 283.167,122.167 282.5,121.5C 278.183,121.93 274.016,122.93 270,124.5C 268.174,123.99 268.007,123.156 269.5,122C 273.276,121.408 276.943,120.408 280.5,119C 279.552,118.517 278.552,118.351 277.5,118.5C 279.599,117.388 281.933,116.721 284.5,116.5 Z"/>
    </g>
    <g>
        <path style="opacity:1" fill="#4670c9" d="M 70.5,114.5 C 71.1522,115.725 72.3189,116.392 74,116.5C 85.026,118.984 96.1927,119.984 107.5,119.5C 110.807,120.051 114.14,120.384 117.5,120.5C 127.319,121.494 137.319,121.827 147.5,121.5C 151.5,121.5 155.5,121.5 159.5,121.5C 171.351,122.249 183.351,122.916 195.5,123.5C 196.167,123.5 196.833,123.5 197.5,123.5C 204.143,124.212 211.143,124.212 218.5,123.5C 219.5,123.5 220.5,123.5 221.5,123.5C 230.188,123.587 238.854,123.253 247.5,122.5C 254.386,121.41 261.386,120.41 268.5,119.5C 271.609,119.736 274.609,119.403 277.5,118.5C 278.552,118.351 279.552,118.517 280.5,119C 276.943,120.408 273.276,121.408 269.5,122C 268.007,123.156 268.174,123.99 270,124.5C 274.016,122.93 278.183,121.93 282.5,121.5C 283.167,122.167 283.833,122.833 284.5,123.5C 285.417,122.873 286.417,122.539 287.5,122.5C 287.833,122.5 288.167,122.5 288.5,122.5C 288.735,123.097 289.235,123.43 290,123.5C 292.786,122.132 295.62,121.132 298.5,120.5C 301.145,119.16 303.812,118.826 306.5,119.5C 304.824,121.337 302.824,122.67 300.5,123.5C 296.93,124.057 293.597,125.224 290.5,127C 294.448,127.745 298.115,127.245 301.5,125.5C 302.167,125.5 302.833,125.5 303.5,125.5C 302.399,128.245 301.066,130.911 299.5,133.5C 301.407,134.37 303.24,135.37 305,136.5C 307.12,135.541 309.287,135.374 311.5,136C 310.944,136.383 310.611,136.883 310.5,137.5C 302.513,137.693 294.847,139.193 287.5,142C 295.909,142.159 304.242,141.325 312.5,139.5C 314.067,139.477 315.4,139.977 316.5,141C 313.367,141.393 310.367,142.226 307.5,143.5C 311.345,145.128 315.345,146.128 319.5,146.5C 319.64,148.124 318.973,149.29 317.5,150C 320.7,150.101 323.7,150.768 326.5,152C 321.8,153.013 317.8,155.346 314.5,159C 321.184,159.39 327.85,159.89 334.5,160.5C 334.719,161.675 334.386,162.675 333.5,163.5C 327.825,165.06 322.158,166.726 316.5,168.5C 315.147,169.524 314.48,170.857 314.5,172.5C 316.288,172.215 317.955,172.548 319.5,173.5C 316.401,174.52 313.401,175.686 310.5,177C 315.403,177.403 320.236,176.903 325,175.5C 326.167,175.833 327.333,176.167 328.5,176.5C 322.673,178.585 317.006,180.918 311.5,183.5C 305.828,181.417 301.161,182.751 297.5,187.5C 297.709,188.086 298.043,188.586 298.5,189C 297.167,189.333 295.833,189.667 294.5,190C 295.737,190.232 296.737,190.732 297.5,191.5C 223.982,191.826 150.482,191.492 77,190.5C 69.0119,191.089 61.1786,191.756 53.5,192.5C 51.8863,194.075 49.8863,194.741 47.5,194.5C 43.181,193.965 38.8477,193.465 34.5,193C 33.1667,191.667 33.1667,190.333 34.5,189C 40.0083,187.149 45.675,186.149 51.5,186C 54.5425,183.125 58.2092,181.792 62.5,182C 59.3932,180.122 56.7265,177.789 54.5,175C 49.8333,174.333 45.1667,173.667 40.5,173C 38.0031,172.588 36.0031,171.422 34.5,169.5C 38.8786,167.345 43.3786,167.012 48,168.5C 48.4317,167.4 47.9317,166.733 46.5,166.5C 42.4816,165.965 38.4816,165.298 34.5,164.5C 37.2211,162.473 40.2211,160.973 43.5,160C 36.2988,158.313 28.9655,157.479 21.5,157.5C 20.7564,154.05 22.0897,152.384 25.5,152.5C 31.5321,152.164 37.5321,151.497 43.5,150.5C 42.8728,149.583 42.5394,148.583 42.5,147.5C 44.0418,146.699 45.7085,146.366 47.5,146.5C 53.1986,145.998 58.8653,145.331 64.5,144.5C 66.4798,145.383 68.4798,145.217 70.5,144C 68.7505,142.681 66.7505,142.181 64.5,142.5C 57.2843,140.653 50.6177,137.653 44.5,133.5C 48.6065,131.011 52.7731,131.011 57,133.5C 57.5,133.167 58,132.833 58.5,132.5C 53.8333,130.833 49.1667,129.167 44.5,127.5C 47.1155,126.238 49.7821,125.072 52.5,124C 45.9443,121.872 39.2777,120.039 32.5,118.5C 32.3653,116.446 33.032,114.779 34.5,113.5C 36.5,113.5 38.5,113.5 40.5,113.5C 43.5788,113.26 46.5788,113.593 49.5,114.5C 52.2919,113.353 55.1252,112.353 58,111.5C 60.6878,112.677 63.3545,112.677 66,111.5C 68.1845,111.698 69.6845,112.698 70.5,114.5 Z"/>
    </g>
    <g>
        <path style="opacity:1" fill="#abbee1" d="M 247.5,122.5 C 238.854,123.253 230.188,123.587 221.5,123.5C 227.308,122.929 233.141,121.929 239,120.5C 241.939,121.128 244.772,121.795 247.5,122.5 Z"/>
    </g>
    <g>
        <path style="opacity:1" fill="#91a8d2" d="M 218.5,123.5 C 211.143,124.212 204.143,124.212 197.5,123.5C 197.47,122.503 197.97,121.836 199,121.5C 203.181,119.876 207.181,120.209 211,122.5C 212.921,121.81 214.755,121.476 216.5,121.5C 217.522,121.855 218.189,122.522 218.5,123.5 Z"/>
    </g>
    <g>
        <path style="opacity:1" fill="#96adcd" d="M 298.5,120.5 C 295.62,121.132 292.786,122.132 290,123.5C 289.235,123.43 288.735,123.097 288.5,122.5C 288.918,121.778 289.584,121.278 290.5,121C 293.146,120.503 295.813,120.336 298.5,120.5 Z"/>
    </g>
    <g>
        <path style="opacity:1" fill="#829bcd" d="M 159.5,121.5 C 170.838,121.333 182.172,121.5 193.5,122C 194.416,122.278 195.082,122.778 195.5,123.5C 183.351,122.916 171.351,122.249 159.5,121.5 Z"/>
    </g>
    <g>
        <path style="opacity:1" fill="#8498cc" d="M 122.5,119.5 C 130.142,120.263 137.809,120.597 145.5,120.5C 146.492,120.328 147.158,120.662 147.5,121.5C 137.319,121.827 127.319,121.494 117.5,120.5C 119.292,120.634 120.958,120.301 122.5,119.5 Z"/>
    </g>
    <g>
        <path style="opacity:1" fill="#98b9d8" d="M 300.5,123.5 C 298.969,124.925 299.302,125.591 301.5,125.5C 298.115,127.245 294.448,127.745 290.5,127C 293.597,125.224 296.93,124.057 300.5,123.5 Z"/>
    </g>
    <g>
        <path style="opacity:1" fill="#5c76d0" d="M 313.5,128.5 C 315.39,129.18 317.39,129.347 319.5,129C 315.239,132.788 310.239,134.288 304.5,133.5C 303.115,132.698 303.282,132.031 305,131.5C 307.464,130.839 309.964,130.339 312.5,130C 313.056,129.617 313.389,129.117 313.5,128.5 Z"/>
    </g>
    <g>
        <path style="opacity:1" fill="#698abe" d="M 313.5,128.5 C 313.389,129.117 313.056,129.617 312.5,130C 309.964,130.339 307.464,130.839 305,131.5C 303.282,132.031 303.115,132.698 304.5,133.5C 308.982,134.326 313.649,134.826 318.5,135C 316.091,136.707 313.425,137.54 310.5,137.5C 310.611,136.883 310.944,136.383 311.5,136C 309.287,135.374 307.12,135.541 305,136.5C 303.24,135.37 301.407,134.37 299.5,133.5C 301.066,130.911 302.399,128.245 303.5,125.5C 306.797,124.145 307.13,124.645 304.5,127C 307.166,129.584 310.166,130.084 313.5,128.5 Z"/>
    </g>
    <g>
        <path style="opacity:1" fill="#a7c0e9" d="M 64.5,142.5 C 66.7505,142.181 68.7505,142.681 70.5,144C 68.4798,145.217 66.4798,145.383 64.5,144.5C 58.8653,145.331 53.1986,145.998 47.5,146.5C 53.0483,144.631 58.715,143.298 64.5,142.5 Z"/>
    </g>
    <g>
        <path style="opacity:1" fill="#7f99c4" d="M 42.5,147.5 C 42.5394,148.583 42.8728,149.583 43.5,150.5C 37.5321,151.497 31.5321,152.164 25.5,152.5C 29.9458,151.107 34.6125,150.107 39.5,149.5C 40.3569,148.575 41.3569,147.908 42.5,147.5 Z"/>
    </g>


    <g>
        <path style="opacity:1" fill="#9fbdc5" d="M 66.5,175.5 C 67.2625,176.268 68.2625,176.768 69.5,177C 67.4505,178.332 65.4505,178.498 63.5,177.5C 62.2382,177.093 60.9049,176.76 59.5,176.5C 61.7427,175.526 64.076,175.192 66.5,175.5 Z"/>
    </g>
    <g>
        <path style="opacity:1" fill="#83a3dd" d="M 66.5,175.5 C 70.961,176.056 75.2943,177.223 79.5,179C 77.1093,179.287 74.7759,179.787 72.5,180.5C 70.9267,178.543 68.9267,178.21 66.5,179.5C 64.9704,179.36 63.9704,178.693 63.5,177.5C 65.4505,178.498 67.4505,178.332 69.5,177C 68.2625,176.768 67.2625,176.268 66.5,175.5 Z"/>
    </g>
    <g>
        <path style="opacity:1" fill="#899ac3" d="M 312.5,191.5 C 309.336,191.442 306.336,190.776 303.5,189.5C 308.75,188.488 314.083,187.655 319.5,187C 317.5,187.667 315.5,188.333 313.5,189C 312.748,189.671 312.414,190.504 312.5,191.5 Z"/>
    </g>
    <g>
        <path style="opacity:1" fill="#3b71d7" d="M 297.5,191.5 C 222.852,192.501 144.852,192.834 63.5,192.5C 60.1667,192.5 56.8333,192.5 53.5,192.5C 61.1786,191.756 69.0119,191.089 77,190.5C 150.482,191.492 223.982,191.826 297.5,191.5 Z"/>
    </g>
    <g>
        <path style="opacity:1" fill="#4f6db9" d="M 311.5,183.5 C 311.047,184.458 310.381,185.292 309.5,186C 306.774,186.182 304.107,186.682 301.5,187.5C 300.391,189.214 301.058,189.881 303.5,189.5C 306.336,190.776 309.336,191.442 312.5,191.5C 316.664,192.015 320.664,193.015 324.5,194.5C 323.791,195.404 322.791,195.737 321.5,195.5C 235.668,194.501 149.668,194.167 63.5,194.5C 63.5,193.833 63.5,193.167 63.5,192.5C 144.852,192.834 222.852,192.501 297.5,191.5C 296.737,190.732 295.737,190.232 294.5,190C 295.833,189.667 297.167,189.333 298.5,189C 298.043,188.586 297.709,188.086 297.5,187.5C 301.161,182.751 305.828,181.417 311.5,183.5 Z"/>
    </g>

    <g>
        <path style="opacity:1" fill="#3c6df1" d="M 63.5,194.5 C 149.668,194.167 235.668,194.501 321.5,195.5C 321.5,195.833 321.5,196.167 321.5,196.5C 232.833,196.667 144.166,196.5 55.5,196C 55.1667,195.667 54.8333,195.333 54.5,195C 57.4816,194.502 60.4816,194.335 63.5,194.5 Z"/>
    </g>
    <g>
        <path style="opacity:1" fill="#3964a1" d="M 53.5,192.5 C 56.8333,192.5 60.1667,192.5 63.5,192.5C 63.5,193.167 63.5,193.833 63.5,194.5C 60.4816,194.335 57.4816,194.502 54.5,195C 54.8333,195.333 55.1667,195.667 55.5,196C 144.166,196.5 232.833,196.667 321.5,196.5C 321.5,196.833 321.5,197.167 321.5,197.5C 231.5,197.5 141.5,197.5 51.5,197.5C 50.5525,196.022 49.2191,195.022 47.5,194.5C 49.8863,194.741 51.8863,194.075 53.5,192.5 Z"/>
    </g>
    <g>
        <path style="opacity:1" fill="#6872b2" d="M 339.5,197.5 C 334.167,197.5 328.833,197.5 323.5,197.5C 328.833,194.833 334.167,194.833 339.5,197.5 Z"/>
    </g>
    <g>
        <path style="opacity:1" fill="#ced189" d="M 51.5,197.5 C 141.5,197.5 231.5,197.5 321.5,197.5C 322.167,197.5 322.833,197.5 323.5,197.5C 328.833,197.5 334.167,197.5 339.5,197.5C 340.492,197.328 341.158,197.662 341.5,198.5C 241.833,198.5 142.167,198.5 42.5,198.5C 42.5,199.5 42.5,200.5 42.5,201.5C 45.7216,201.108 48.7216,201.608 51.5,203C 50.9056,203.464 50.2389,203.631 49.5,203.5C 46.9723,202.834 44.3056,202.168 41.5,201.5C 40.4825,200.148 39.1492,199.148 37.5,198.5C 42.1196,197.507 46.7863,197.173 51.5,197.5 Z"/>
    </g>
    <g>
        <path style="opacity:1" fill="#fad801" d="M 324.5,203.5 C 323.508,203.328 322.842,203.662 322.5,204.5C 236.164,204.833 149.831,204.5 63.5,203.5C 149.359,202.829 235.193,202.163 321,201.5C 322.459,201.808 323.626,202.475 324.5,203.5 Z"/>
    </g>
    <g>
        <path style="opacity:1" fill="#f2dc0a" d="M 341.5,198.5 C 344.022,199.665 344.022,200.998 341.5,202.5C 338.193,203.051 334.86,203.384 331.5,203.5C 329.167,203.5 326.833,203.5 324.5,203.5C 323.626,202.475 322.459,201.808 321,201.5C 235.193,202.163 149.359,202.829 63.5,203.5C 149.831,204.5 236.164,204.833 322.5,204.5C 322.5,205.5 322.5,206.5 322.5,207.5C 323.5,207.5 324.5,207.5 325.5,207.5C 331.191,207.548 332.857,210.215 330.5,215.5C 322.204,218.933 313.704,221.933 305,224.5C 304.127,224.265 303.293,223.931 302.5,223.5C 301.548,225.045 301.215,226.712 301.5,228.5C 304.939,228.253 308.272,228.586 311.5,229.5C 311.5,230.833 311.5,232.167 311.5,233.5C 315.87,232.488 320.203,232.488 324.5,233.5C 327.365,233.055 329.865,233.722 332,235.5C 332.667,236.167 332.667,236.833 332,237.5C 331.005,238.066 330.172,238.733 329.5,239.5C 327.833,239.5 326.167,239.5 324.5,239.5C 320.774,239.177 317.107,239.511 313.5,240.5C 313.167,241.167 312.833,241.833 312.5,242.5C 316.787,243.601 320.787,244.934 324.5,246.5C 320.881,247.18 317.214,247.68 313.5,248C 315.158,249.663 317.158,250.496 319.5,250.5C 319.5,251.5 319.5,252.5 319.5,253.5C 316.014,254.953 312.347,255.619 308.5,255.5C 297.443,257.898 286.443,260.231 275.5,262.5C 276.667,262.833 277.833,263.167 279,263.5C 292.44,261.766 305.94,261.1 319.5,261.5C 315.576,263.123 311.243,264.123 306.5,264.5C 309.428,265.484 312.428,265.817 315.5,265.5C 316.833,266.167 318.167,266.833 319.5,267.5C 314.099,268.825 308.599,268.825 303,267.5C 301.07,269.077 301.237,270.41 303.5,271.5C 303.5,271.833 303.5,272.167 303.5,272.5C 295.142,272.379 286.809,272.712 278.5,273.5C 278.389,272.883 278.056,272.383 277.5,272C 272.511,271.501 267.511,271.334 262.5,271.5C 261.448,271.351 260.448,271.517 259.5,272C 260.337,273.011 260.67,274.178 260.5,275.5C 264.898,275.706 269.232,275.373 273.5,274.5C 275.265,275.461 277.265,275.795 279.5,275.5C 287.5,275.5 295.5,275.5 303.5,275.5C 295.218,276.916 286.718,278.583 278,280.5C 270.515,279.621 263.015,279.621 255.5,280.5C 243.649,280.614 231.982,281.281 220.5,282.5C 197.153,282.629 173.82,282.129 150.5,281C 148.782,280.654 147.115,280.154 145.5,279.5C 123.546,280.489 101.546,280.822 79.5,280.5C 79.6495,279.448 79.4828,278.448 79,277.5C 76.821,278.396 74.9876,279.729 73.5,281.5C 71.2727,280.947 68.9393,280.947 66.5,281.5C 63.1667,281.5 59.8333,281.5 56.5,281.5C 56.67,280.178 56.3366,279.011 55.5,278C 49.0223,277.721 42.689,276.721 36.5,275C 35.6634,273.989 35.33,272.822 35.5,271.5C 39.7051,271.283 43.7051,270.617 47.5,269.5C 50.2469,269.813 52.9135,269.48 55.5,268.5C 53.5,267.167 51.5,265.833 49.5,264.5C 51.7662,263.686 54.0995,263.186 56.5,263C 54.2537,261.961 52.087,260.794 50,259.5C 49.5304,258.423 49.6971,257.423 50.5,256.5C 56.761,255.026 63.0943,253.86 69.5,253C 70.5707,252.148 71.5707,251.315 72.5,250.5C 74.6074,249.532 76.9407,249.198 79.5,249.5C 84.8746,249.828 90.2079,249.495 95.5,248.5C 88.1365,247.609 80.8032,246.609 73.5,245.5C 72.8333,245.5 72.1667,245.5 71.5,245.5C 67.167,243.498 62.5003,242.498 57.5,242.5C 53.0132,240.593 48.3465,239.26 43.5,238.5C 42.4324,237.566 41.099,237.232 39.5,237.5C 39.5,236.5 39.5,235.5 39.5,234.5C 43.8566,234.586 48.19,234.92 52.5,235.5C 56.8333,236.833 61.1667,236.833 65.5,235.5C 67.3691,234.835 69.3691,234.169 71.5,233.5C 70.9747,232.808 70.3081,232.308 69.5,232C 73.848,231.585 78.1813,231.751 82.5,232.5C 82.5,231.5 82.5,230.5 82.5,229.5C 79.2914,229.589 76.1248,229.256 73,228.5C 71.0289,228.468 69.5289,229.302 68.5,231C 66.8659,231.494 65.1992,231.66 63.5,231.5C 60.4127,229.983 57.0794,229.316 53.5,229.5C 51.5,228.5 49.5,227.5 47.5,226.5C 42.2671,225.65 36.9337,224.65 31.5,223.5C 31.3234,221.019 32.3234,219.186 34.5,218C 38.8206,217.501 43.1539,217.334 47.5,217.5C 47.5,216.5 47.5,215.5 47.5,214.5C 43.9937,212.255 43.9937,210.255 47.5,208.5C 46.5,207.833 45.5,207.167 44.5,206.5C 45.6016,205.824 46.6016,205.158 47.5,204.5C 47.8417,203.662 48.5084,203.328 49.5,203.5C 50.2389,203.631 50.9056,203.464 51.5,203C 48.7216,201.608 45.7216,201.108 42.5,201.5C 42.5,200.5 42.5,199.5 42.5,198.5C 142.167,198.5 241.833,198.5 341.5,198.5 Z"/>
    </g>

    <g>
        <path style="opacity:1" fill="#eee577" d="M 324.5,203.5 C 326.833,203.5 329.167,203.5 331.5,203.5C 329.031,204.317 326.365,204.817 323.5,205C 324.381,205.708 325.047,206.542 325.5,207.5C 324.5,207.5 323.5,207.5 322.5,207.5C 322.5,206.5 322.5,205.5 322.5,204.5C 322.842,203.662 323.508,203.328 324.5,203.5 Z"/>
    </g>
    <g>
        <path style="opacity:1" fill="#f0e865" d="M 47.5,204.5 C 46.6016,205.158 45.6016,205.824 44.5,206.5C 45.5,207.167 46.5,207.833 47.5,208.5C 43.9937,210.255 43.9937,212.255 47.5,214.5C 44.4671,212.813 41.1337,211.48 37.5,210.5C 39.0225,208.717 41.0225,208.051 43.5,208.5C 43.5,207.167 43.5,205.833 43.5,204.5C 44.8333,204.5 46.1667,204.5 47.5,204.5 Z"/>
    </g>


    <g>
        <path style="opacity:1" fill="#f7eeb9" d="M 288.5,229.5 C 275.151,230.96 261.817,230.793 248.5,229C 258,227.528 267.667,227.028 277.5,227.5C 281.78,226.46 286.113,226.294 290.5,227C 291.609,228.813 290.942,229.646 288.5,229.5 Z"/>
    </g>
    <g>
        <path style="opacity:1" fill="#f7ef87" d="M 288.5,229.5 C 290.942,229.646 291.609,228.813 290.5,227C 286.113,226.294 281.78,226.46 277.5,227.5C 277.611,226.883 277.944,226.383 278.5,226C 285.158,225.5 291.825,225.334 298.5,225.5C 298.64,227.124 297.973,228.29 296.5,229C 293.735,230.476 291.068,230.643 288.5,229.5 Z"/>
    </g>

    <g>
        <path style="opacity:1" fill="#f1e68f" d="M 311.5,229.5 C 315.248,231.092 319.248,231.925 323.5,232C 324.056,232.383 324.389,232.883 324.5,233.5C 320.203,232.488 315.87,232.488 311.5,233.5C 311.5,232.167 311.5,230.833 311.5,229.5 Z"/>
    </g>
    <g>
        <path style="opacity:1" fill="#f4e982" d="M 53.5,229.5 C 57.0794,229.316 60.4127,229.983 63.5,231.5C 63.1568,233.483 63.8235,234.817 65.5,235.5C 61.1667,236.833 56.8333,236.833 52.5,235.5C 53.8734,235.657 55.2068,235.49 56.5,235C 54.3234,233.814 53.3234,231.981 53.5,229.5 Z"/>
    </g>

    <g>
        <path style="opacity:1" fill="#f7e15a" d="M 65.5,235.5 C 63.8235,234.817 63.1568,233.483 63.5,231.5C 65.1992,231.66 66.8659,231.494 68.5,231C 69.5289,229.302 71.0289,228.468 73,228.5C 76.1248,229.256 79.2914,229.589 82.5,229.5C 82.5,230.5 82.5,231.5 82.5,232.5C 78.1813,231.751 73.848,231.585 69.5,232C 70.3081,232.308 70.9747,232.808 71.5,233.5C 69.3691,234.169 67.3691,234.835 65.5,235.5 Z"/>
    </g>
    <g>
        <path style="opacity:1" fill="#fdf49d" d="M 101.5,231.5 C 107.611,232.158 113.611,233.325 119.5,235C 113.65,235.948 107.983,235.448 102.5,233.5C 102.167,232.833 101.833,232.167 101.5,231.5 Z"/>
    </g>

    <g>
        <path style="opacity:1" fill="#f9f4ac" d="M 324.5,239.5 C 323.21,240.935 321.544,241.935 319.5,242.5C 322.107,243.318 324.774,243.818 327.5,244C 326.627,245.045 325.627,245.878 324.5,246.5C 320.787,244.934 316.787,243.601 312.5,242.5C 312.833,241.833 313.167,241.167 313.5,240.5C 317.107,239.511 320.774,239.177 324.5,239.5 Z"/>
    </g>

    <g>
        <path style="opacity:1" fill="#eeeab5" d="M 57.5,242.5 C 62.5003,242.498 67.167,243.498 71.5,245.5C 67.9849,244.761 64.6515,244.761 61.5,245.5C 58.7531,245.187 56.0865,245.52 53.5,246.5C 55.2914,247.17 56.9581,247.837 58.5,248.5C 55.1667,248.5 51.8333,248.5 48.5,248.5C 48.5,247.167 48.5,245.833 48.5,244.5C 52.5138,244.666 56.5138,244.499 60.5,244C 59.2625,243.768 58.2625,243.268 57.5,242.5 Z"/>
    </g>

    <g>
        <path style="opacity:1" fill="#f9f9c0" d="M 73.5,245.5 C 80.8032,246.609 88.1365,247.609 95.5,248.5C 90.2079,249.495 84.8746,249.828 79.5,249.5C 77.5,248.833 75.5,248.167 73.5,247.5C 74.8734,247.657 76.2068,247.49 77.5,247C 75.9419,246.79 74.6085,246.29 73.5,245.5 Z"/>
    </g>
    <g>
        <path style="opacity:1" fill="#efdc45" d="M 61.5,245.5 C 61.9175,246.222 62.5842,246.722 63.5,247C 66.8168,247.498 70.1501,247.665 73.5,247.5C 75.5,248.167 77.5,248.833 79.5,249.5C 76.9407,249.198 74.6074,249.532 72.5,250.5C 67.6566,250.778 62.99,250.111 58.5,248.5C 56.9581,247.837 55.2914,247.17 53.5,246.5C 56.0865,245.52 58.7531,245.187 61.5,245.5 Z"/>
    </g>
    <g>
        <path style="opacity:1" fill="#f8f0c3" d="M 308.5,255.5 C 308.414,256.496 308.748,257.329 309.5,258C 305.416,258.231 301.416,258.898 297.5,260C 305.011,260.171 312.345,260.671 319.5,261.5C 305.94,261.1 292.44,261.766 279,263.5C 277.833,263.167 276.667,262.833 275.5,262.5C 286.443,260.231 297.443,257.898 308.5,255.5 Z"/>
    </g>
    <g>
        <path style="opacity:1" fill="#f1f0ba" d="M 319.5,261.5 C 321.698,261.12 323.365,261.787 324.5,263.5C 321.39,264.088 318.39,264.755 315.5,265.5C 312.428,265.817 309.428,265.484 306.5,264.5C 311.243,264.123 315.576,263.123 319.5,261.5 Z"/>
    </g>

    <g>
        <path style="opacity:1" fill="#efe662" d="M 319.5,267.5 C 320.675,267.281 321.675,267.614 322.5,268.5C 316.078,269.226 309.745,270.226 303.5,271.5C 301.237,270.41 301.07,269.077 303,267.5C 308.599,268.825 314.099,268.825 319.5,267.5 Z"/>
    </g>
    <g>
        <path style="opacity:1" fill="#f3e398" d="M 262.5,271.5 C 267.511,271.334 272.511,271.501 277.5,272C 278.056,272.383 278.389,272.883 278.5,273.5C 277.033,272.708 275.7,272.708 274.5,273.5C 276.291,274.17 277.958,274.837 279.5,275.5C 277.265,275.795 275.265,275.461 273.5,274.5C 273.38,273.414 272.713,272.747 271.5,272.5C 269.693,272.972 267.86,273.306 266,273.5C 264.319,273.392 263.152,272.725 262.5,271.5 Z"/>
    </g>
    <g>
        <path style="opacity:1" fill="#ede668" d="M 262.5,271.5 C 263.152,272.725 264.319,273.392 266,273.5C 267.86,273.306 269.693,272.972 271.5,272.5C 272.713,272.747 273.38,273.414 273.5,274.5C 269.232,275.373 264.898,275.706 260.5,275.5C 260.67,274.178 260.337,273.011 259.5,272C 260.448,271.517 261.448,271.351 262.5,271.5 Z"/>
    </g>
    <g>
        <path style="opacity:1" fill="#faf5bc" d="M 278.5,273.5 C 286.809,272.712 295.142,272.379 303.5,272.5C 302.048,273.302 300.382,273.802 298.5,274C 300.382,274.198 302.048,274.698 303.5,275.5C 295.5,275.5 287.5,275.5 279.5,275.5C 277.958,274.837 276.291,274.17 274.5,273.5C 275.7,272.708 277.033,272.708 278.5,273.5 Z"/>
    </g>
    <g>
        <path style="opacity:1" fill="#f7eca3" d="M 47.5,269.5 C 43.7051,270.617 39.7051,271.283 35.5,271.5C 35.33,272.822 35.6634,273.989 36.5,275C 42.689,276.721 49.0223,277.721 55.5,278C 56.3366,279.011 56.67,280.178 56.5,281.5C 55.0047,281.585 54.0047,280.919 53.5,279.5C 47.1149,278.918 40.9482,277.584 35,275.5C 34.2571,273.559 34.4238,271.726 35.5,270C 39.4862,269.501 43.4862,269.334 47.5,269.5 Z"/>
    </g>
    <g>
        <path style="opacity:1" fill="#eee157" d="M 220.5,282.5 C 195.005,283.498 169.339,283.831 143.5,283.5C 134.005,282.539 124.338,281.872 114.5,281.5C 101.496,281.333 88.4957,281.5 75.5,282C 72.1153,284.074 69.1153,283.907 66.5,281.5C 68.9393,280.947 71.2727,280.947 73.5,281.5C 74.9876,279.729 76.821,278.396 79,277.5C 79.4828,278.448 79.6495,279.448 79.5,280.5C 101.546,280.822 123.546,280.489 145.5,279.5C 147.115,280.154 148.782,280.654 150.5,281C 173.82,282.129 197.153,282.629 220.5,282.5 Z"/>
    </g>
    <g>
        <path style="opacity:1" fill="#f8ec89" d="M 255.5,280.5 C 255.5,280.833 255.5,281.167 255.5,281.5C 243.856,282.361 232.19,282.695 220.5,282.5C 231.982,281.281 243.649,280.614 255.5,280.5 Z"/>
    </g>
    <g>
        <path style="opacity:1" fill="#f7f0ba" d="M 56.5,281.5 C 59.8333,281.5 63.1667,281.5 66.5,281.5C 69.1153,283.907 72.1153,284.074 75.5,282C 88.4957,281.5 101.496,281.333 114.5,281.5C 102.34,282.331 90.0068,282.831 77.5,283C 75.6547,284.128 73.6547,284.628 71.5,284.5C 66.3522,283.73 61.3522,282.73 56.5,281.5 Z"/>
    </g>




</svg>
