<?xml version="1.0" encoding="UTF-8" standalone="no"?>
<svg
   version="1.1"
   width="356.80438"
   height="82.633888"
   style="clip-rule:evenodd;fill-rule:evenodd;image-rendering:optimizeQuality;shape-rendering:geometricPrecision;text-rendering:geometricPrecision"
   id="svg153"
   sodipodi:docname="flag.svg"
   inkscape:version="1.3.2 (091e20e, 2023-11-25)"
   xmlns:inkscape="http://www.inkscape.org/namespaces/inkscape"
   xmlns:sodipodi="http://sodipodi.sourceforge.net/DTD/sodipodi-0.dtd"
   xmlns="http://www.w3.org/2000/svg"
   xmlns:svg="http://www.w3.org/2000/svg">
  <defs
     id="defs153" />
  <sodipodi:namedview
     id="namedview153"
     pagecolor="#ffffff"
     bordercolor="#666666"
     borderopacity="1.0"
     inkscape:showpageshadow="2"
     inkscape:pageopacity="0.0"
     inkscape:pagecheckerboard="0"
     inkscape:deskcolor="#d1d1d1"
     inkscape:zoom="3.3416667"
     inkscape:cx="186.58354"
     inkscape:cy="27.98005"
     inkscape:window-width="2560"
     inkscape:window-height="1416"
     inkscape:window-x="0"
     inkscape:window-y="24"
     inkscape:window-maximized="0"
     inkscape:current-layer="svg153"
     showguides="false" />
  <g
     id="g155"
     transform="matrix(1.1012708,0,0,0.45760744,-22.858923,-48.928466)">
    <g
       id="g74">
      <path
         style="opacity:1"
         fill="#5975b9"
         d="m 79.5,114.5 c 0,0.333 0,0.667 0,1 9.3165,1.465 18.6499,2.798 28,4 -11.3073,0.484 -22.474,-0.516 -33.5,-3 -1.6811,-0.108 -2.8478,-0.775 -3.5,-2 2.6088,1.254 5.6088,1.254 9,0 z"
         id="path74" />
    </g>
    <g
       id="g77">
      <path
         style="opacity:1"
         fill="#b0c9e7"
         d="m 284.5,116.5 c 0.739,-0.131 1.406,0.036 2,0.5 -5.342,2.257 -5.342,3.257 0,3 0.752,0.671 1.086,1.504 1,2.5 -1.083,0.039 -2.083,0.373 -3,1 -0.667,-0.667 -1.333,-1.333 -2,-2 -4.317,0.43 -8.484,1.43 -12.5,3 -1.826,-0.51 -1.993,-1.344 -0.5,-2.5 3.776,-0.592 7.443,-1.592 11,-3 -0.948,-0.483 -1.948,-0.649 -3,-0.5 2.099,-1.112 4.433,-1.779 7,-2 z"
         id="path77" />
    </g>
    <g
       id="g78">
      <path
         style="opacity:1"
         fill="#4670c9"
         d="m 70.5,114.5 c 0.6522,1.225 1.8189,1.892 3.5,2 11.026,2.484 22.1927,3.484 33.5,3 3.307,0.551 6.64,0.884 10,1 9.819,0.994 19.819,1.327 30,1 4,0 8,0 12,0 11.851,0.749 23.851,1.416 36,2 0.667,0 1.333,0 2,0 6.643,0.712 13.643,0.712 21,0 1,0 2,0 3,0 8.688,0.087 17.354,-0.247 26,-1 6.886,-1.09 13.886,-2.09 21,-3 3.109,0.236 6.109,-0.097 9,-1 1.052,-0.149 2.052,0.017 3,0.5 -3.557,1.408 -7.224,2.408 -11,3 -1.493,1.156 -1.326,1.99 0.5,2.5 4.016,-1.57 8.183,-2.57 12.5,-3 0.667,0.667 1.333,1.333 2,2 0.917,-0.627 1.917,-0.961 3,-1 0.333,0 0.667,0 1,0 0.235,0.597 0.735,0.93 1.5,1 2.786,-1.368 5.62,-2.368 8.5,-3 2.645,-1.34 5.312,-1.674 8,-1 -1.676,1.837 -3.676,3.17 -6,4 -3.57,0.557 -6.903,1.724 -10,3.5 3.948,0.745 7.615,0.245 11,-1.5 0.667,0 1.333,0 2,0 -1.101,2.745 -2.434,5.411 -4,8 1.907,0.87 3.74,1.87 5.5,3 2.12,-0.959 4.287,-1.126 6.5,-0.5 -0.556,0.383 -0.889,0.883 -1,1.5 -7.987,0.193 -15.653,1.693 -23,4.5 8.409,0.159 16.742,-0.675 25,-2.5 1.567,-0.023 2.9,0.477 4,1.5 -3.133,0.393 -6.133,1.226 -9,2.5 3.845,1.628 7.845,2.628 12,3 0.14,1.624 -0.527,2.79 -2,3.5 3.2,0.101 6.2,0.768 9,2 -4.7,1.013 -8.7,3.346 -12,7 6.684,0.39 13.35,0.89 20,1.5 0.219,1.175 -0.114,2.175 -1,3 -5.675,1.56 -11.342,3.226 -17,5 -1.353,1.024 -2.02,2.357 -2,4 1.788,-0.285 3.455,0.048 5,1 -3.099,1.02 -6.099,2.186 -9,3.5 4.903,0.403 9.736,-0.097 14.5,-1.5 1.167,0.333 2.333,0.667 3.5,1 -5.827,2.085 -11.494,4.418 -17,7 -5.672,-2.083 -10.339,-0.749 -14,4 0.209,0.586 0.543,1.086 1,1.5 -1.333,0.333 -2.667,0.667 -4,1 1.237,0.232 2.237,0.732 3,1.5 -73.518,0.326 -147.018,-0.008 -220.5,-1 -7.9881,0.589 -15.8214,1.256 -23.5,2 -1.6137,1.575 -3.6137,2.241 -6,2 -4.319,-0.535 -8.6523,-1.035 -13,-1.5 -1.3333,-1.333 -1.3333,-2.667 0,-4 5.5083,-1.851 11.175,-2.851 17,-3 3.0425,-2.875 6.7092,-4.208 11,-4 -3.1068,-1.878 -5.7735,-4.211 -8,-7 -4.6667,-0.667 -9.3333,-1.333 -14,-2 -2.4969,-0.412 -4.4969,-1.578 -6,-3.5 4.3786,-2.155 8.8786,-2.488 13.5,-1 0.4317,-1.1 -0.0683,-1.767 -1.5,-2 -4.0184,-0.535 -8.0184,-1.202 -12,-2 2.7211,-2.027 5.7211,-3.527 9,-4.5 -7.2012,-1.687 -14.5345,-2.521 -22,-2.5 -0.7436,-3.45 0.5897,-5.116 4,-5 6.0321,-0.336 12.0321,-1.003 18,-2 -0.6272,-0.917 -0.9606,-1.917 -1,-3 1.5418,-0.801 3.2085,-1.134 5,-1 5.6986,-0.502 11.3653,-1.169 17,-2 1.9798,0.883 3.9798,0.717 6,-0.5 -1.7495,-1.319 -3.7495,-1.819 -6,-1.5 -7.2157,-1.847 -13.8823,-4.847 -20,-9 4.1065,-2.489 8.2731,-2.489 12.5,0 0.5,-0.333 1,-0.667 1.5,-1 -4.6667,-1.667 -9.3333,-3.333 -14,-5 2.6155,-1.262 5.2821,-2.428 8,-3.5 -6.5557,-2.128 -13.2223,-3.961 -20,-5.5 -0.1347,-2.054 0.532,-3.721 2,-5 2,0 4,0 6,0 3.0788,-0.24 6.0788,0.093 9,1 2.7919,-1.147 5.6252,-2.147 8.5,-3 2.6878,1.177 5.3545,1.177 8,0 2.1845,0.198 3.6845,1.198 4.5,3 z"
         id="path78" />
    </g>
    <g
       id="g79">
      <path
         style="opacity:1"
         fill="#abbee1"
         d="m 247.5,122.5 c -8.646,0.753 -17.312,1.087 -26,1 5.808,-0.571 11.641,-1.571 17.5,-3 2.939,0.628 5.772,1.295 8.5,2 z"
         id="path79" />
    </g>
    <g
       id="g80">
      <path
         style="opacity:1"
         fill="#91a8d2"
         d="m 218.5,123.5 c -7.357,0.712 -14.357,0.712 -21,0 -0.03,-0.997 0.47,-1.664 1.5,-2 4.181,-1.624 8.181,-1.291 12,1 1.921,-0.69 3.755,-1.024 5.5,-1 1.022,0.355 1.689,1.022 2,2 z"
         id="path80" />
    </g>
    <g
       id="g81">
      <path
         style="opacity:1"
         fill="#96adcd"
         d="m 298.5,120.5 c -2.88,0.632 -5.714,1.632 -8.5,3 -0.765,-0.07 -1.265,-0.403 -1.5,-1 0.418,-0.722 1.084,-1.222 2,-1.5 2.646,-0.497 5.313,-0.664 8,-0.5 z"
         id="path81" />
    </g>
    <g
       id="g82">
      <path
         style="opacity:1"
         fill="#829bcd"
         d="m 159.5,121.5 c 11.338,-0.167 22.672,0 34,0.5 0.916,0.278 1.582,0.778 2,1.5 -12.149,-0.584 -24.149,-1.251 -36,-2 z"
         id="path82" />
    </g>
    <g
       id="g83">
      <path
         style="opacity:1"
         fill="#8498cc"
         d="m 122.5,119.5 c 7.642,0.763 15.309,1.097 23,1 0.992,-0.172 1.658,0.162 2,1 -10.181,0.327 -20.181,-0.006 -30,-1 1.792,0.134 3.458,-0.199 5,-1 z"
         id="path83" />
    </g>
    <g
       id="g84">
      <path
         style="opacity:1"
         fill="#98b9d8"
         d="m 300.5,123.5 c -1.531,1.425 -1.198,2.091 1,2 -3.385,1.745 -7.052,2.245 -11,1.5 3.097,-1.776 6.43,-2.943 10,-3.5 z"
         id="path84" />
    </g>
    <g
       id="g85">
      <path
         style="opacity:1"
         fill="#5c76d0"
         d="m 313.5,128.5 c 1.89,0.68 3.89,0.847 6,0.5 -4.261,3.788 -9.261,5.288 -15,4.5 -1.385,-0.802 -1.218,-1.469 0.5,-2 2.464,-0.661 4.964,-1.161 7.5,-1.5 0.556,-0.383 0.889,-0.883 1,-1.5 z"
         id="path85" />
    </g>
    <g
       id="g86">
      <path
         style="opacity:1"
         fill="#698abe"
         d="m 313.5,128.5 c -0.111,0.617 -0.444,1.117 -1,1.5 -2.536,0.339 -5.036,0.839 -7.5,1.5 -1.718,0.531 -1.885,1.198 -0.5,2 4.482,0.826 9.149,1.326 14,1.5 -2.409,1.707 -5.075,2.54 -8,2.5 0.111,-0.617 0.444,-1.117 1,-1.5 -2.213,-0.626 -4.38,-0.459 -6.5,0.5 -1.76,-1.13 -3.593,-2.13 -5.5,-3 1.566,-2.589 2.899,-5.255 4,-8 3.297,-1.355 3.63,-0.855 1,1.5 2.666,2.584 5.666,3.084 9,1.5 z"
         id="path86" />
    </g>
    <g
       id="g87">
      <path
         style="opacity:1"
         fill="#a7c0e9"
         d="m 64.5,142.5 c 2.2505,-0.319 4.2505,0.181 6,1.5 -2.0202,1.217 -4.0202,1.383 -6,0.5 -5.6347,0.831 -11.3014,1.498 -17,2 5.5483,-1.869 11.215,-3.202 17,-4 z"
         id="path87" />
    </g>
    <g
       id="g88">
      <path
         style="opacity:1"
         fill="#7f99c4"
         d="m 42.5,147.5 c 0.0394,1.083 0.3728,2.083 1,3 -5.9679,0.997 -11.9679,1.664 -18,2 4.4458,-1.393 9.1125,-2.393 14,-3 0.8569,-0.925 1.8569,-1.592 3,-2 z"
         id="path88" />
    </g>
    <g
       id="g91">
      <path
         style="opacity:1"
         fill="#9fbdc5"
         d="m 66.5,175.5 c 0.7625,0.768 1.7625,1.268 3,1.5 -2.0495,1.332 -4.0495,1.498 -6,0.5 -1.2618,-0.407 -2.5951,-0.74 -4,-1 2.2427,-0.974 4.576,-1.308 7,-1 z"
         id="path91" />
    </g>
    <g
       id="g92">
      <path
         style="opacity:1"
         fill="#83a3dd"
         d="m 66.5,175.5 c 4.461,0.556 8.7943,1.723 13,3.5 -2.3907,0.287 -4.7241,0.787 -7,1.5 -1.5733,-1.957 -3.5733,-2.29 -6,-1 -1.5296,-0.14 -2.5296,-0.807 -3,-2 1.9505,0.998 3.9505,0.832 6,-0.5 -1.2375,-0.232 -2.2375,-0.732 -3,-1.5 z"
         id="path92" />
    </g>
    <g
       id="g93">
      <path
         style="opacity:1"
         fill="#899ac3"
         d="m 312.5,191.5 c -3.164,-0.058 -6.164,-0.724 -9,-2 5.25,-1.012 10.583,-1.845 16,-2.5 -2,0.667 -4,1.333 -6,2 -0.752,0.671 -1.086,1.504 -1,2.5 z"
         id="path93" />
    </g>
    <g
       id="g94">
      <path
         style="opacity:1"
         fill="#3b71d7"
         d="m 297.5,191.5 c -74.648,1.001 -152.648,1.334 -234,1 -3.3333,0 -6.6667,0 -10,0 7.6786,-0.744 15.5119,-1.411 23.5,-2 73.482,0.992 146.982,1.326 220.5,1 z"
         id="path94" />
    </g>
    <g
       id="g95">
      <path
         style="opacity:1"
         fill="#4f6db9"
         d="m 311.5,183.5 c -0.453,0.958 -1.119,1.792 -2,2.5 -2.726,0.182 -5.393,0.682 -8,1.5 -1.109,1.714 -0.442,2.381 2,2 2.836,1.276 5.836,1.942 9,2 4.164,0.515 8.164,1.515 12,3 -0.709,0.904 -1.709,1.237 -3,1 -85.832,-0.999 -171.832,-1.333 -258,-1 0,-0.667 0,-1.333 0,-2 81.352,0.334 159.352,0.001 234,-1 -0.763,-0.768 -1.763,-1.268 -3,-1.5 1.333,-0.333 2.667,-0.667 4,-1 -0.457,-0.414 -0.791,-0.914 -1,-1.5 3.661,-4.749 8.328,-6.083 14,-4 z"
         id="path95" />
    </g>
    <g
       id="g96">
      <path
         style="opacity:1"
         fill="#e8efd6"
         d="m 324.5,194.5 c 2.071,-1.309 4.571,-1.975 7.5,-2 2.5,0.333 5,0.667 7.5,1 -4.956,0.994 -9.956,1.327 -15,1 z"
         id="path96" />
    </g>
    <g
       id="g97">
      <path
         style="opacity:1"
         fill="#3c6df1"
         d="m 63.5,194.5 c 86.168,-0.333 172.168,0.001 258,1 0,0.333 0,0.667 0,1 -88.667,0.167 -177.334,0 -266,-0.5 -0.3333,-0.333 -0.6667,-0.667 -1,-1 2.9816,-0.498 5.9816,-0.665 9,-0.5 z"
         id="path97" />
    </g>
    <g
       id="g98">
      <path
         style="opacity:1"
         fill="#3964a1"
         d="m 53.5,192.5 c 3.3333,0 6.6667,0 10,0 0,0.667 0,1.333 0,2 -3.0184,-0.165 -6.0184,0.002 -9,0.5 0.3333,0.333 0.6667,0.667 1,1 88.666,0.5 177.333,0.667 266,0.5 0,0.333 0,0.667 0,1 -90,0 -180,0 -270,0 -0.9475,-1.478 -2.2809,-2.478 -4,-3 2.3863,0.241 4.3863,-0.425 6,-2 z"
         id="path98" />
    </g>
    <g
       id="g99">
      <path
         style="opacity:1"
         fill="#6872b2"
         d="m 339.5,197.5 c -5.333,0 -10.667,0 -16,0 5.333,-2.667 10.667,-2.667 16,0 z"
         id="path99" />
    </g>
    <g
       id="g100">
      <path
         style="opacity:1"
         fill="#ced189"
         d="m 51.5,197.5 c 90,0 180,0 270,0 0.667,0 1.333,0 2,0 5.333,0 10.667,0 16,0 0.992,-0.172 1.658,0.162 2,1 -99.667,0 -199.333,0 -299,0 0,1 0,2 0,3 3.2216,-0.392 6.2216,0.108 9,1.5 -0.5944,0.464 -1.2611,0.631 -2,0.5 -2.5277,-0.666 -5.1944,-1.332 -8,-2 -1.0175,-1.352 -2.3508,-2.352 -4,-3 4.6196,-0.993 9.2863,-1.327 14,-1 z"
         id="path100" />
    </g>
    <g
       id="g101">
      <path
         style="opacity:1"
         fill="#fad801"
         d="m 324.5,203.5 c -0.992,-0.172 -1.658,0.162 -2,1 -86.336,0.333 -172.669,0 -259,-1 85.859,-0.671 171.693,-1.337 257.5,-2 1.459,0.308 2.626,0.975 3.5,2 z"
         id="path101" />
    </g>
    <g
       id="g102">
      <path
         style="opacity:1"
         fill="#f2dc0a"
         d="m 341.5,198.5 c 2.522,1.165 2.522,2.498 0,4 -3.307,0.551 -6.64,0.884 -10,1 -2.333,0 -4.667,0 -7,0 -0.874,-1.025 -2.041,-1.692 -3.5,-2 -85.807,0.663 -171.641,1.329 -257.5,2 86.331,1 172.664,1.333 259,1 0,1 0,2 0,3 1,0 2,0 3,0 5.691,0.048 7.357,2.715 5,8 -8.296,3.433 -16.796,6.433 -25.5,9 -0.873,-0.235 -1.707,-0.569 -2.5,-1 -0.952,1.545 -1.285,3.212 -1,5 3.439,-0.247 6.772,0.086 10,1 0,1.333 0,2.667 0,4 4.37,-1.012 8.703,-1.012 13,0 2.865,-0.445 5.365,0.222 7.5,2 0.667,0.667 0.667,1.333 0,2 -0.995,0.566 -1.828,1.233 -2.5,2 -1.667,0 -3.333,0 -5,0 -3.726,-0.323 -7.393,0.011 -11,1 -0.333,0.667 -0.667,1.333 -1,2 4.287,1.101 8.287,2.434 12,4 -3.619,0.68 -7.286,1.18 -11,1.5 1.658,1.663 3.658,2.496 6,2.5 0,1 0,2 0,3 -3.486,1.453 -7.153,2.119 -11,2 -11.057,2.398 -22.057,4.731 -33,7 1.167,0.333 2.333,0.667 3.5,1 13.44,-1.734 26.94,-2.4 40.5,-2 -3.924,1.623 -8.257,2.623 -13,3 2.928,0.984 5.928,1.317 9,1 1.333,0.667 2.667,1.333 4,2 -5.401,1.325 -10.901,1.325 -16.5,0 -1.93,1.577 -1.763,2.91 0.5,4 0,0.333 0,0.667 0,1 -8.358,-0.121 -16.691,0.212 -25,1 -0.111,-0.617 -0.444,-1.117 -1,-1.5 -4.989,-0.499 -9.989,-0.666 -15,-0.5 -1.052,-0.149 -2.052,0.017 -3,0.5 0.837,1.011 1.17,2.178 1,3.5 4.398,0.206 8.732,-0.127 13,-1 1.765,0.961 3.765,1.295 6,1 8,0 16,0 24,0 -8.282,1.416 -16.782,3.083 -25.5,5 -7.485,-0.879 -14.985,-0.879 -22.5,0 -11.851,0.114 -23.518,0.781 -35,2 -23.347,0.129 -46.68,-0.371 -70,-1.5 -1.718,-0.346 -3.385,-0.846 -5,-1.5 -21.954,0.989 -43.954,1.322 -66,1 0.1495,-1.052 -0.0172,-2.052 -0.5,-3 -2.179,0.896 -4.0124,2.229 -5.5,4 -2.2273,-0.553 -4.5607,-0.553 -7,0 -3.3333,0 -6.6667,0 -10,0 0.17,-1.322 -0.1634,-2.489 -1,-3.5 -6.4777,-0.279 -12.811,-1.279 -19,-3 -0.8366,-1.011 -1.17,-2.178 -1,-3.5 4.2051,-0.217 8.2051,-0.883 12,-2 2.7469,0.313 5.4135,-0.02 8,-1 -2,-1.333 -4,-2.667 -6,-4 2.2662,-0.814 4.5995,-1.314 7,-1.5 -2.2463,-1.039 -4.413,-2.206 -6.5,-3.5 -0.4696,-1.077 -0.3029,-2.077 0.5,-3 6.261,-1.474 12.5943,-2.64 19,-3.5 1.0707,-0.852 2.0707,-1.685 3,-2.5 2.1074,-0.968 4.4407,-1.302 7,-1 5.3746,0.328 10.7079,-0.005 16,-1 -7.3635,-0.891 -14.6968,-1.891 -22,-3 -0.6667,0 -1.3333,0 -2,0 -4.333,-2.002 -8.9997,-3.002 -14,-3 -4.4868,-1.907 -9.1535,-3.24 -14,-4 -1.0676,-0.934 -2.401,-1.268 -4,-1 0,-1 0,-2 0,-3 4.3566,0.086 8.69,0.42 13,1 4.3333,1.333 8.6667,1.333 13,0 1.8691,-0.665 3.8691,-1.331 6,-2 -0.5253,-0.692 -1.1919,-1.192 -2,-1.5 4.348,-0.415 8.6813,-0.249 13,0.5 0,-1 0,-2 0,-3 -3.2086,0.089 -6.3752,-0.244 -9.5,-1 -1.9711,-0.032 -3.4711,0.802 -4.5,2.5 -1.6341,0.494 -3.3008,0.66 -5,0.5 -3.0873,-1.517 -6.4206,-2.184 -10,-2 -2,-1 -4,-2 -6,-3 -5.2329,-0.85 -10.5663,-1.85 -16,-3 -0.1766,-2.481 0.8234,-4.314 3,-5.5 4.3206,-0.499 8.6539,-0.666 13,-0.5 0,-1 0,-2 0,-3 -3.5063,-2.245 -3.5063,-4.245 0,-6 -1,-0.667 -2,-1.333 -3,-2 1.1016,-0.676 2.1016,-1.342 3,-2 0.3417,-0.838 1.0084,-1.172 2,-1 0.7389,0.131 1.4056,-0.036 2,-0.5 -2.7784,-1.392 -5.7784,-1.892 -9,-1.5 0,-1 0,-2 0,-3 99.667,0 199.333,0 299,0 z"
         id="path102" />
    </g>
    <g
       id="g103">
      <path
         style="opacity:1"
         fill="#eee577"
         d="m 324.5,203.5 c 2.333,0 4.667,0 7,0 -2.469,0.817 -5.135,1.317 -8,1.5 0.881,0.708 1.547,1.542 2,2.5 -1,0 -2,0 -3,0 0,-1 0,-2 0,-3 0.342,-0.838 1.008,-1.172 2,-1 z"
         id="path103" />
    </g>
    <g
       id="g104">
      <path
         style="opacity:1"
         fill="#f0e865"
         d="m 47.5,204.5 c -0.8984,0.658 -1.8984,1.324 -3,2 1,0.667 2,1.333 3,2 -3.5063,1.755 -3.5063,3.755 0,6 -3.0329,-1.687 -6.3663,-3.02 -10,-4 1.5225,-1.783 3.5225,-2.449 6,-2 0,-1.333 0,-2.667 0,-4 1.3333,0 2.6667,0 4,0 z"
         id="path104" />
    </g>
    <g
       id="g106">
      <path
         style="opacity:1"
         fill="#f2f1e3"
         d="m 341.5,202.5 c -1.49,1.78 -3.49,2.446 -6,2 0,1 0,2 0,3 -1.802,0.815 -2.802,2.315 -3,4.5 1.166,3.152 2.166,6.319 3,9.5 -1.333,0 -2.667,0 -4,0 0,1.667 0,3.333 0,5 -5.651,-1.066 -11.317,-2.399 -17,-4 -1.567,-0.023 -2.9,0.477 -4,1.5 7.019,1.675 14.019,3.342 21,5 1.259,0.923 2.592,1.757 4,2.5 -3.777,1.496 -3.777,3.163 0,5 -1.571,1.915 -3.571,2.915 -6,3 0.672,-0.767 1.505,-1.434 2.5,-2 0.667,-0.667 0.667,-1.333 0,-2 -2.135,-1.778 -4.635,-2.445 -7.5,-2 -0.111,-0.617 -0.444,-1.117 -1,-1.5 -4.252,-0.075 -8.252,-0.908 -12,-2.5 -3.228,-0.914 -6.561,-1.247 -10,-1 -0.285,-1.788 0.048,-3.455 1,-5 0.793,0.431 1.627,0.765 2.5,1 8.704,-2.567 17.204,-5.567 25.5,-9 2.357,-5.285 0.691,-7.952 -5,-8 -0.453,-0.958 -1.119,-1.792 -2,-2.5 2.865,-0.183 5.531,-0.683 8,-1.5 3.36,-0.116 6.693,-0.449 10,-1 z"
         id="path106" />
    </g>
    <g
       id="g107">
      <path
         style="opacity:1"
         fill="#f7eeb9"
         d="m 288.5,229.5 c -13.349,1.46 -26.683,1.293 -40,-0.5 9.5,-1.472 19.167,-1.972 29,-1.5 4.28,-1.04 8.613,-1.206 13,-0.5 1.109,1.813 0.442,2.646 -2,2.5 z"
         id="path107" />
    </g>
    <g
       id="g108">
      <path
         style="opacity:1"
         fill="#f7ef87"
         d="m 288.5,229.5 c 2.442,0.146 3.109,-0.687 2,-2.5 -4.387,-0.706 -8.72,-0.54 -13,0.5 0.111,-0.617 0.444,-1.117 1,-1.5 6.658,-0.5 13.325,-0.666 20,-0.5 0.14,1.624 -0.527,2.79 -2,3.5 -2.765,1.476 -5.432,1.643 -8,0.5 z"
         id="path108" />
    </g>
    <g
       id="g109">
      <path
         style="opacity:1"
         fill="#f4f3de"
         d="m 47.5,226.5 c 2,1 4,2 6,3 -0.1766,2.481 0.8234,4.314 3,5.5 -1.2932,0.49 -2.6266,0.657 -4,0.5 -4.31,-0.58 -8.6434,-0.914 -13,-1 0,1 0,2 0,3 1.599,-0.268 2.9324,0.066 4,1 -6.6998,0.33 -13.3665,-0.003 -20,-1 2.6667,-0.667 5.3333,-1.333 8,-2 -1.7744,-0.687 -3.4411,-1.52 -5,-2.5 0.763,-0.944 1.763,-1.444 3,-1.5 5.9504,1.328 11.9504,1.828 18,1.5 -0.948,-0.483 -1.948,-0.649 -3,-0.5 0,-1 0,-2 0,-3 1,0 2,0 3,0 0,-1 0,-2 0,-3 z"
         id="path109" />
    </g>
    <g
       id="g110">
      <path
         style="opacity:1"
         fill="#f1e68f"
         d="m 311.5,229.5 c 3.748,1.592 7.748,2.425 12,2.5 0.556,0.383 0.889,0.883 1,1.5 -4.297,-1.012 -8.63,-1.012 -13,0 0,-1.333 0,-2.667 0,-4 z"
         id="path110" />
    </g>
    <g
       id="g111">
      <path
         style="opacity:1"
         fill="#f4e982"
         d="m 53.5,229.5 c 3.5794,-0.184 6.9127,0.483 10,2 -0.3432,1.983 0.3235,3.317 2,4 -4.3333,1.333 -8.6667,1.333 -13,0 1.3734,0.157 2.7068,-0.01 4,-0.5 -2.1766,-1.186 -3.1766,-3.019 -3,-5.5 z"
         id="path111" />
    </g>
    <g
       id="g112">
      <path
         style="opacity:1"
         fill="#fff3d4"
         d="m 101.5,231.5 c 0.333,0.667 0.667,1.333 1,2 -3.726,0.323 -7.3927,-0.011 -11,-1 3.2683,-0.987 6.6016,-1.32 10,-1 z"
         id="path112" />
    </g>
    <g
       id="g113">
      <path
         style="opacity:1"
         fill="#f7e15a"
         d="m 65.5,235.5 c -1.6765,-0.683 -2.3432,-2.017 -2,-4 1.6992,0.16 3.3659,-0.006 5,-0.5 1.0289,-1.698 2.5289,-2.532 4.5,-2.5 3.1248,0.756 6.2914,1.089 9.5,1 0,1 0,2 0,3 -4.3187,-0.749 -8.652,-0.915 -13,-0.5 0.8081,0.308 1.4747,0.808 2,1.5 -2.1309,0.669 -4.1309,1.335 -6,2 z"
         id="path113" />
    </g>
    <g
       id="g114">
      <path
         style="opacity:1"
         fill="#fdf49d"
         d="m 101.5,231.5 c 6.111,0.658 12.111,1.825 18,3.5 -5.85,0.948 -11.517,0.448 -17,-1.5 -0.333,-0.667 -0.667,-1.333 -1,-2 z"
         id="path114" />
    </g>
    <g
       id="g116">
      <path
         style="opacity:1"
         fill="#f9f4ac"
         d="m 324.5,239.5 c -1.29,1.435 -2.956,2.435 -5,3 2.607,0.818 5.274,1.318 8,1.5 -0.873,1.045 -1.873,1.878 -3,2.5 -3.713,-1.566 -7.713,-2.899 -12,-4 0.333,-0.667 0.667,-1.333 1,-2 3.607,-0.989 7.274,-1.323 11,-1 z"
         id="path116" />
    </g>
    <g
       id="g118">
      <path
         style="opacity:1"
         fill="#eeeab5"
         d="m 57.5,242.5 c 5.0003,-0.002 9.667,0.998 14,3 -3.5151,-0.739 -6.8485,-0.739 -10,0 -2.7469,-0.313 -5.4135,0.02 -8,1 1.7914,0.67 3.4581,1.337 5,2 -3.3333,0 -6.6667,0 -10,0 0,-1.333 0,-2.667 0,-4 4.0138,0.166 8.0138,-0.001 12,-0.5 -1.2375,-0.232 -2.2375,-0.732 -3,-1.5 z"
         id="path118" />
    </g>
    <g
       id="g119">
      <path
         style="opacity:1"
         fill="#f6f3e6"
         d="m 71.5,245.5 c 0.6667,0 1.3333,0 2,0 1.1085,0.79 2.4419,1.29 4,1.5 -1.2932,0.49 -2.6266,0.657 -4,0.5 -3.3499,0.165 -6.6832,-0.002 -10,-0.5 -0.9158,-0.278 -1.5825,-0.778 -2,-1.5 3.1515,-0.739 6.4849,-0.739 10,0 z"
         id="path119" />
    </g>
    <g
       id="g120">
      <path
         style="opacity:1"
         fill="#f9f9c0"
         d="m 73.5,245.5 c 7.3032,1.109 14.6365,2.109 22,3 -5.2921,0.995 -10.6254,1.328 -16,1 -2,-0.667 -4,-1.333 -6,-2 1.3734,0.157 2.7068,-0.01 4,-0.5 -1.5581,-0.21 -2.8915,-0.71 -4,-1.5 z"
         id="path120" />
    </g>
    <g
       id="g121">
      <path
         style="opacity:1"
         fill="#efdc45"
         d="m 61.5,245.5 c 0.4175,0.722 1.0842,1.222 2,1.5 3.3168,0.498 6.6501,0.665 10,0.5 2,0.667 4,1.333 6,2 -2.5593,-0.302 -4.8926,0.032 -7,1 -4.8434,0.278 -9.51,-0.389 -14,-2 -1.5419,-0.663 -3.2086,-1.33 -5,-2 2.5865,-0.98 5.2531,-1.313 8,-1 z"
         id="path121" />
    </g>
    <g
       id="g122">
      <path
         style="opacity:1"
         fill="#f8f0c3"
         d="m 308.5,255.5 c -0.086,0.996 0.248,1.829 1,2.5 -4.084,0.231 -8.084,0.898 -12,2 7.511,0.171 14.845,0.671 22,1.5 -13.56,-0.4 -27.06,0.266 -40.5,2 -1.167,-0.333 -2.333,-0.667 -3.5,-1 10.943,-2.269 21.943,-4.602 33,-7 z"
         id="path122" />
    </g>
    <g
       id="g123">
      <path
         style="opacity:1"
         fill="#f1f0ba"
         d="m 319.5,261.5 c 2.198,-0.38 3.865,0.287 5,2 -3.11,0.588 -6.11,1.255 -9,2 -3.072,0.317 -6.072,-0.016 -9,-1 4.743,-0.377 9.076,-1.377 13,-3 z"
         id="path123" />
    </g>
    <g
       id="g125">
      <path
         style="opacity:1"
         fill="#efe662"
         d="m 319.5,267.5 c 1.175,-0.219 2.175,0.114 3,1 -6.422,0.726 -12.755,1.726 -19,3 -2.263,-1.09 -2.43,-2.423 -0.5,-4 5.599,1.325 11.099,1.325 16.5,0 z"
         id="path125" />
    </g>
    <g
       id="g126">
      <path
         style="opacity:1"
         fill="#f3e398"
         d="m 262.5,271.5 c 5.011,-0.166 10.011,10e-4 15,0.5 0.556,0.383 0.889,0.883 1,1.5 -1.467,-0.792 -2.8,-0.792 -4,0 1.791,0.67 3.458,1.337 5,2 -2.235,0.295 -4.235,-0.039 -6,-1 -0.12,-1.086 -0.787,-1.753 -2,-2 -1.807,0.472 -3.64,0.806 -5.5,1 -1.681,-0.108 -2.848,-0.775 -3.5,-2 z"
         id="path126" />
    </g>
    <g
       id="g127">
      <path
         style="opacity:1"
         fill="#ede668"
         d="m 262.5,271.5 c 0.652,1.225 1.819,1.892 3.5,2 1.86,-0.194 3.693,-0.528 5.5,-1 1.213,0.247 1.88,0.914 2,2 -4.268,0.873 -8.602,1.206 -13,1 0.17,-1.322 -0.163,-2.489 -1,-3.5 0.948,-0.483 1.948,-0.649 3,-0.5 z"
         id="path127" />
    </g>
    <g
       id="g128">
      <path
         style="opacity:1"
         fill="#faf5bc"
         d="m 278.5,273.5 c 8.309,-0.788 16.642,-1.121 25,-1 -1.452,0.802 -3.118,1.302 -5,1.5 1.882,0.198 3.548,0.698 5,1.5 -8,0 -16,0 -24,0 -1.542,-0.663 -3.209,-1.33 -5,-2 1.2,-0.792 2.533,-0.792 4,0 z"
         id="path128" />
    </g>
    <g
       id="g129">
      <path
         style="opacity:1"
         fill="#f7eca3"
         d="m 47.5,269.5 c -3.7949,1.117 -7.7949,1.783 -12,2 -0.17,1.322 0.1634,2.489 1,3.5 6.189,1.721 12.5223,2.721 19,3 0.8366,1.011 1.17,2.178 1,3.5 -1.4953,0.085 -2.4953,-0.581 -3,-2 -6.3851,-0.582 -12.5518,-1.916 -18.5,-4 -0.7429,-1.941 -0.5762,-3.774 0.5,-5.5 3.9862,-0.499 7.9862,-0.666 12,-0.5 z"
         id="path129" />
    </g>
    <g
       id="g130">
      <path
         style="opacity:1"
         fill="#eee157"
         d="m 220.5,282.5 c -25.495,0.998 -51.161,1.331 -77,1 -9.495,-0.961 -19.162,-1.628 -29,-2 -13.004,-0.167 -26.0043,0 -39,0.5 -3.3847,2.074 -6.3847,1.907 -9,-0.5 2.4393,-0.553 4.7727,-0.553 7,0 1.4876,-1.771 3.321,-3.104 5.5,-4 0.4828,0.948 0.6495,1.948 0.5,3 22.046,0.322 44.046,-0.011 66,-1 1.615,0.654 3.282,1.154 5,1.5 23.32,1.129 46.653,1.629 70,1.5 z"
         id="path130" />
    </g>
    <g
       id="g131">
      <path
         style="opacity:1"
         fill="#f8ec89"
         d="m 255.5,280.5 c 0,0.333 0,0.667 0,1 -11.644,0.861 -23.31,1.195 -35,1 11.482,-1.219 23.149,-1.886 35,-2 z"
         id="path131" />
    </g>
    <g
       id="g132">
      <path
         style="opacity:1"
         fill="#f7f0ba"
         d="m 56.5,281.5 c 3.3333,0 6.6667,0 10,0 2.6153,2.407 5.6153,2.574 9,0.5 12.9957,-0.5 25.996,-0.667 39,-0.5 -12.16,0.831 -24.4932,1.331 -37,1.5 -1.8453,1.128 -3.8453,1.628 -6,1.5 -5.1478,-0.77 -10.1478,-1.77 -15,-3 z"
         id="path132" />
    </g>
    <g
       id="g133">
      <path
         style="opacity:1"
         fill="#f5ecd4"
         d="m 255.5,281.5 c -0.763,0.768 -1.763,1.268 -3,1.5 -10.333,0.333 -20.667,0.667 -31,1 -2.883,0.683 -5.55,1.85 -8,3.5 -1.873,0.018 -2.206,-0.482 -1,-1.5 -14.964,-1.355 -29.964,-1.855 -45,-1.5 -8,0 -16,0 -24,0 0,-0.333 0,-0.667 0,-1 25.839,0.331 51.505,-0.002 77,-1 11.69,0.195 23.356,-0.139 35,-1 z"
         id="path133" />
    </g>
  </g>
</svg>
