<?xml version="1.0" encoding="UTF-8"?>
<svg id="uuid-5f2062e9-e655-4f3b-beb7-dc9b1af8794a" data-name="Layer 1"
  xmlns="http://www.w3.org/2000/svg" viewBox="0 0 555.18 802.75">
  <defs>
    <style>
      .uuid-84ec9981-4e2b-4e58-8424-0230edce64a0, .uuid-8a5a1d7a-4f99-4666-919b-8b966be52ac2 {
        fill-rule: evenodd;
      }

      .uuid-84ec9981-4e2b-4e58-8424-0230edce64a0, .uuid-8a5a1d7a-4f99-4666-919b-8b966be52ac2, .uuid-f8f6d14e-ec20-4b48-a3e1-4367fc727271 {
        stroke-width: 0px;
      }

      .uuid-8a5a1d7a-4f99-4666-919b-8b966be52ac2 {
        fill: #e00000;
      }

      .uuid-f8f6d14e-ec20-4b48-a3e1-4367fc727271 {
        fill: #fff;
      }
    </style>
  </defs>
  <rect class="uuid-f8f6d14e-ec20-4b48-a3e1-4367fc727271" x="0" y="0" width="555" height="802.75"/>
  <g>
    <path class="uuid-8a5a1d7a-4f99-4666-919b-8b966be52ac2" d="m31.06,13.54h10.97v5.65h-10.97v-5.65Z"/>
    <path class="uuid-8a5a1d7a-4f99-4666-919b-8b966be52ac2" d="m64.31,13.54h5.65v5.65h-5.65v-5.65Z"/>
    <path class="uuid-84ec9981-4e2b-4e58-8424-0230edce64a0" d="m69.96,13.54h38.57v5.65h-38.57v-5.65Z"/>
    <path class="uuid-8a5a1d7a-4f99-4666-919b-8b966be52ac2" d="m108.52,13.54h5.65v5.65h-5.65v-5.65Z"/>
    <path class="uuid-8a5a1d7a-4f99-4666-919b-8b966be52ac2" d="m136.45,13.54h10.97v5.65h-10.97v-5.65Z"/>
    <path class="uuid-8a5a1d7a-4f99-4666-919b-8b966be52ac2" d="m219.57,13.54h10.97v5.65h-10.97v-5.65Z"/>
    <path class="uuid-8a5a1d7a-4f99-4666-919b-8b966be52ac2" d="m252.82,13.54h5.32v5.65h-5.32v-5.65Z"/>
    <path class="uuid-84ec9981-4e2b-4e58-8424-0230edce64a0" d="m258.14,13.54h38.9v5.65h-38.9v-5.65Z"/>
    <path class="uuid-8a5a1d7a-4f99-4666-919b-8b966be52ac2" d="m297.04,13.54h5.65v5.65h-5.65v-5.65Z"/>
    <path class="uuid-8a5a1d7a-4f99-4666-919b-8b966be52ac2" d="m324.63,13.54h11.3v5.65h-11.3v-5.65Z"/>
    <path class="uuid-8a5a1d7a-4f99-4666-919b-8b966be52ac2" d="m407.75,13.54h11.3v5.65h-11.3v-5.65Z"/>
    <path class="uuid-8a5a1d7a-4f99-4666-919b-8b966be52ac2" d="m441,13.54h5.65v5.65h-5.65v-5.65Z"/>
    <path class="uuid-84ec9981-4e2b-4e58-8424-0230edce64a0" d="m446.65,13.54h38.9v5.65h-38.9v-5.65Z"/>
    <path class="uuid-8a5a1d7a-4f99-4666-919b-8b966be52ac2" d="m485.55,13.54h5.32v5.65h-5.32v-5.65Z"/>
    <path class="uuid-8a5a1d7a-4f99-4666-919b-8b966be52ac2" d="m513.15,13.54h10.97v5.65h-10.97v-5.65Z"/>
    <path class="uuid-84ec9981-4e2b-4e58-8424-0230edce64a0" d="m58.65,24.51h-10.97v-5.32h10.97v5.32Z"/>
    <path class="uuid-8a5a1d7a-4f99-4666-919b-8b966be52ac2" d="m69.96,19.19h38.57v5.32h-10.97v5.65h5.65v5.65h5.32v5.32h5.65v11.3h-5.65v5.32h-10.97v-5.32h-5.65v-27.93h-5.32v27.93h-5.65v5.32h-10.97v-5.32h-5.65v-11.3h5.65v-5.32h5.32v-5.65h5.65v-5.65h-10.97v-5.32Z"/>
    <path class="uuid-84ec9981-4e2b-4e58-8424-0230edce64a0" d="m130.8,24.51h-10.97v-5.32h10.97v5.32Z"/>
    <path class="uuid-84ec9981-4e2b-4e58-8424-0230edce64a0" d="m247.17,24.51h-10.97v-5.32h10.97v5.32Z"/>
    <path class="uuid-8a5a1d7a-4f99-4666-919b-8b966be52ac2" d="m258.14,19.19h38.9v5.32h-10.97v5.65h5.32v5.65h5.65v5.32h5.65v11.3h-5.65v5.32h-10.97v-5.32h-5.65v-27.93h-5.65v27.93h-5.32v5.32h-11.3v-5.32h-5.32v-11.3h5.32v-5.32h5.65v-5.65h5.65v-5.65h-11.3v-5.32Z"/>
    <path class="uuid-84ec9981-4e2b-4e58-8424-0230edce64a0" d="m319.31,24.51h-11.3v-5.32h11.3v5.32Z"/>
    <path class="uuid-84ec9981-4e2b-4e58-8424-0230edce64a0" d="m435.68,24.51h-11.3v-5.32h11.3v5.32Z"/>
    <path class="uuid-8a5a1d7a-4f99-4666-919b-8b966be52ac2" d="m446.65,19.19h38.9v5.32h-11.3v5.65h5.65v5.65h5.65v5.32h5.32v11.3h-5.32v5.32h-11.3v-5.32h-5.32v-27.93h-5.65v27.93h-5.65v5.32h-10.97v-5.32h-5.65v-11.3h5.65v-5.32h5.65v-5.65h5.32v-5.65h-10.97v-5.32Z"/>
    <path class="uuid-84ec9981-4e2b-4e58-8424-0230edce64a0" d="m507.5,24.51h-10.97v-5.32h10.97v5.32Z"/>
    <path class="uuid-84ec9981-4e2b-4e58-8424-0230edce64a0" d="m47.68,24.51v11.3h-5.65v-11.3h5.65Z"/>
    <path class="uuid-8a5a1d7a-4f99-4666-919b-8b966be52ac2" d="m47.68,24.51h10.97v11.3h-10.97v-11.3Z"/>
    <path class="uuid-84ec9981-4e2b-4e58-8424-0230edce64a0" d="m58.65,24.51h5.65v11.3h-5.65v-11.3Z"/>
    <path class="uuid-84ec9981-4e2b-4e58-8424-0230edce64a0" d="m119.83,24.51v11.3h-5.65v-11.3h5.65Z"/>
    <path class="uuid-8a5a1d7a-4f99-4666-919b-8b966be52ac2" d="m119.83,24.51h10.97v11.3h-10.97v-11.3Z"/>
    <path class="uuid-84ec9981-4e2b-4e58-8424-0230edce64a0" d="m130.8,24.51h5.65v11.3h-5.65v-11.3Z"/>
    <path class="uuid-84ec9981-4e2b-4e58-8424-0230edce64a0" d="m236.19,24.51v11.3h-5.65v-11.3h5.65Z"/>
    <path class="uuid-8a5a1d7a-4f99-4666-919b-8b966be52ac2" d="m236.19,24.51h10.97v11.3h-10.97v-11.3Z"/>
    <path class="uuid-84ec9981-4e2b-4e58-8424-0230edce64a0" d="m247.17,24.51h5.65v11.3h-5.65v-11.3Z"/>
    <path class="uuid-84ec9981-4e2b-4e58-8424-0230edce64a0" d="m308.01,24.51v11.3h-5.32v-11.3h5.32Z"/>
    <path class="uuid-8a5a1d7a-4f99-4666-919b-8b966be52ac2" d="m308.01,24.51h11.3v11.3h-11.3v-11.3Z"/>
    <path class="uuid-84ec9981-4e2b-4e58-8424-0230edce64a0" d="m319.31,24.51h5.32v11.3h-5.32v-11.3Z"/>
    <path class="uuid-84ec9981-4e2b-4e58-8424-0230edce64a0" d="m424.38,24.51v11.3h-5.32v-11.3h5.32Z"/>
    <path class="uuid-8a5a1d7a-4f99-4666-919b-8b966be52ac2" d="m424.38,24.51h11.3v11.3h-11.3v-11.3Z"/>
    <path class="uuid-84ec9981-4e2b-4e58-8424-0230edce64a0" d="m435.68,24.51h5.32v11.3h-5.32v-11.3Z"/>
    <path class="uuid-84ec9981-4e2b-4e58-8424-0230edce64a0" d="m496.52,24.51v11.3h-5.65v-11.3h5.65Z"/>
    <path class="uuid-8a5a1d7a-4f99-4666-919b-8b966be52ac2" d="m496.52,24.51h10.97v11.3h-10.97v-11.3Z"/>
    <path class="uuid-84ec9981-4e2b-4e58-8424-0230edce64a0" d="m507.5,24.51h5.65v11.3h-5.65v-11.3Z"/>
    <path class="uuid-84ec9981-4e2b-4e58-8424-0230edce64a0" d="m47.68,35.82h10.97v5.32h-10.97v-5.32Z"/>
    <path class="uuid-84ec9981-4e2b-4e58-8424-0230edce64a0" d="m119.83,35.82h10.97v5.32h-10.97v-5.32Z"/>
    <path class="uuid-84ec9981-4e2b-4e58-8424-0230edce64a0" d="m236.19,35.82h10.97v5.32h-10.97v-5.32Z"/>
    <path class="uuid-84ec9981-4e2b-4e58-8424-0230edce64a0" d="m308.01,35.82h11.3v5.32h-11.3v-5.32Z"/>
    <path class="uuid-84ec9981-4e2b-4e58-8424-0230edce64a0" d="m424.38,35.82h11.3v5.32h-11.3v-5.32Z"/>
    <path class="uuid-84ec9981-4e2b-4e58-8424-0230edce64a0" d="m496.52,35.82h10.97v5.32h-10.97v-5.32Z"/>
    <path class="uuid-8a5a1d7a-4f99-4666-919b-8b966be52ac2" d="m202.95,135.56h-38.9v-5.65h10.97v-5.65h-5.32v-5.32h-5.65v-5.65h-5.65v-16.62h5.65v-5.65h10.97v5.65h5.65v33.25h5.65v-33.25h5.32v-5.65h11.31v5.65h5.32v16.62h-5.32v5.65h-5.65v5.32h-5.65v5.65h11.31v5.65Z"/>
    <path class="uuid-8a5a1d7a-4f99-4666-919b-8b966be52ac2" d="m391.13,135.56h-38.57v-5.65h10.97v-5.65h-5.65v-5.32h-5.32v-5.65h-5.65v-16.62h5.65v-5.65h10.97v5.65h5.65v33.25h5.32v-33.25h5.65v-5.65h10.97v5.65h5.65v16.62h-5.65v5.65h-5.32v5.32h-5.65v5.65h10.97v5.65Z"/>
    <path class="uuid-8a5a1d7a-4f99-4666-919b-8b966be52ac2" d="m14.43,96.66h5.65v16.62h-5.65v-16.62Z"/>
    <path class="uuid-8a5a1d7a-4f99-4666-919b-8b966be52ac2" d="m535.42,96.66h5.32v16.62h-5.32v-16.62Z"/>
    <path class="uuid-84ec9981-4e2b-4e58-8424-0230edce64a0" d="m36.71,118.94h-11.3v-5.65h11.3v5.65Z"/>
    <path class="uuid-84ec9981-4e2b-4e58-8424-0230edce64a0" d="m153.08,118.94h-11.3v-5.65h11.3v5.65Z"/>
    <path class="uuid-84ec9981-4e2b-4e58-8424-0230edce64a0" d="m224.89,118.94h-10.97v-5.65h10.97v5.65Z"/>
    <path class="uuid-84ec9981-4e2b-4e58-8424-0230edce64a0" d="m341.26,118.94h-10.97v-5.65h10.97v5.65Z"/>
    <path class="uuid-84ec9981-4e2b-4e58-8424-0230edce64a0" d="m413.41,118.94h-10.97v-5.65h10.97v5.65Z"/>
    <path class="uuid-84ec9981-4e2b-4e58-8424-0230edce64a0" d="m529.77,118.94h-10.97v-5.65h10.97v5.65Z"/>
    <path class="uuid-84ec9981-4e2b-4e58-8424-0230edce64a0" d="m25.41,118.94v10.97h-5.32v-10.97h5.32Z"/>
    <path class="uuid-8a5a1d7a-4f99-4666-919b-8b966be52ac2" d="m25.41,118.94h11.3v10.97h-11.3v-10.97Z"/>
    <path class="uuid-84ec9981-4e2b-4e58-8424-0230edce64a0" d="m36.71,118.94h5.32v10.97h-5.32v-10.97Z"/>
    <path class="uuid-84ec9981-4e2b-4e58-8424-0230edce64a0" d="m141.77,118.94v10.97h-5.32v-10.97h5.32Z"/>
    <path class="uuid-8a5a1d7a-4f99-4666-919b-8b966be52ac2" d="m141.77,118.94h11.3v10.97h-11.3v-10.97Z"/>
    <path class="uuid-84ec9981-4e2b-4e58-8424-0230edce64a0" d="m153.08,118.94h5.32v10.97h-5.32v-10.97Z"/>
    <path class="uuid-84ec9981-4e2b-4e58-8424-0230edce64a0" d="m213.92,118.94v10.97h-5.65v-10.97h5.65Z"/>
    <path class="uuid-8a5a1d7a-4f99-4666-919b-8b966be52ac2" d="m213.92,118.94h10.97v10.97h-10.97v-10.97Z"/>
    <path class="uuid-84ec9981-4e2b-4e58-8424-0230edce64a0" d="m224.89,118.94h5.65v10.97h-5.65v-10.97Z"/>
    <path class="uuid-84ec9981-4e2b-4e58-8424-0230edce64a0" d="m330.29,118.94v10.97h-5.65v-10.97h5.65Z"/>
    <path class="uuid-8a5a1d7a-4f99-4666-919b-8b966be52ac2" d="m330.29,118.94h10.97v10.97h-10.97v-10.97Z"/>
    <path class="uuid-84ec9981-4e2b-4e58-8424-0230edce64a0" d="m341.26,118.94h5.65v10.97h-5.65v-10.97Z"/>
    <path class="uuid-84ec9981-4e2b-4e58-8424-0230edce64a0" d="m402.43,118.94v10.97h-5.65v-10.97h5.65Z"/>
    <path class="uuid-8a5a1d7a-4f99-4666-919b-8b966be52ac2" d="m402.43,118.94h10.97v10.97h-10.97v-10.97Z"/>
    <path class="uuid-84ec9981-4e2b-4e58-8424-0230edce64a0" d="m413.41,118.94h5.65v10.97h-5.65v-10.97Z"/>
    <path class="uuid-84ec9981-4e2b-4e58-8424-0230edce64a0" d="m518.8,118.94v10.97h-5.65v-10.97h5.65Z"/>
    <path class="uuid-8a5a1d7a-4f99-4666-919b-8b966be52ac2" d="m518.8,118.94h10.97v10.97h-10.97v-10.97Z"/>
    <path class="uuid-84ec9981-4e2b-4e58-8424-0230edce64a0" d="m529.77,118.94h5.65v10.97h-5.65v-10.97Z"/>
    <path class="uuid-84ec9981-4e2b-4e58-8424-0230edce64a0" d="m25.41,129.91h11.3v5.65h-11.3v-5.65Z"/>
    <path class="uuid-84ec9981-4e2b-4e58-8424-0230edce64a0" d="m141.77,129.91h11.3v5.65h-11.3v-5.65Z"/>
    <path class="uuid-84ec9981-4e2b-4e58-8424-0230edce64a0" d="m213.92,129.91h10.97v5.65h-10.97v-5.65Z"/>
    <path class="uuid-84ec9981-4e2b-4e58-8424-0230edce64a0" d="m330.29,129.91h10.97v5.65h-10.97v-5.65Z"/>
    <path class="uuid-84ec9981-4e2b-4e58-8424-0230edce64a0" d="m402.43,129.91h10.97v5.65h-10.97v-5.65Z"/>
    <path class="uuid-84ec9981-4e2b-4e58-8424-0230edce64a0" d="m518.8,129.91h10.97v5.65h-10.97v-5.65Z"/>
    <path class="uuid-8a5a1d7a-4f99-4666-919b-8b966be52ac2" d="m14.43,135.56h5.65v5.32h-5.65v-5.32Z"/>
    <path class="uuid-8a5a1d7a-4f99-4666-919b-8b966be52ac2" d="m20.09,179.78v-38.9h5.32v11.3h5.65v-5.65h5.65v-5.65h5.32v-5.32h11.31v5.32h5.32v11.3h-5.32v5.32h-27.93v5.65h27.93v5.65h5.32v10.97h-5.32v5.65h-11.31v-5.65h-5.32v-5.65h-5.65v-5.32h-5.65v10.97h-5.32Z"/>
    <path class="uuid-8a5a1d7a-4f99-4666-919b-8b966be52ac2" d="m158.4,140.88v38.9h-5.32v-10.97h-5.65v5.32h-5.65v5.65h-5.32v5.65h-11.3v-5.65h-5.32v-10.97h5.32v-5.65h27.93v-5.65h-27.93v-5.32h-5.32v-11.3h5.32v-5.32h11.3v5.32h5.32v5.65h5.65v5.65h5.65v-11.3h5.32Z"/>
    <path class="uuid-8a5a1d7a-4f99-4666-919b-8b966be52ac2" d="m164.05,135.56v5.32h-5.65v-5.32h5.65Z"/>
    <path class="uuid-84ec9981-4e2b-4e58-8424-0230edce64a0" d="m164.05,135.56h38.9v5.32h5.32v38.9h-5.32v5.65h-38.9v-5.65h-5.65v-38.9h5.65v-5.32Zm5.65,10.97h-5.65v27.6h5.65v5.65h27.6v-5.65h5.65v-27.6h-5.65v-5.65h-27.6v5.65Z"/>
    <path class="uuid-8a5a1d7a-4f99-4666-919b-8b966be52ac2" d="m202.95,135.56h5.32v5.32h-5.32v-5.32Z"/>
    <path class="uuid-8a5a1d7a-4f99-4666-919b-8b966be52ac2" d="m208.27,179.78v-38.9h5.65v11.3h5.65v-5.65h5.32v-5.65h5.65v-5.32h10.97v5.32h5.65v11.3h-5.65v5.32h-27.6v5.65h27.6v5.65h5.65v10.97h-5.65v5.65h-10.97v-5.65h-5.65v-5.65h-5.32v-5.32h-5.65v10.97h-5.65Z"/>
    <path class="uuid-8a5a1d7a-4f99-4666-919b-8b966be52ac2" d="m346.91,140.88v38.9h-5.65v-10.97h-5.32v5.32h-5.65v5.65h-5.65v5.65h-10.97v-5.65h-5.65v-10.97h5.65v-5.65h27.6v-5.65h-27.6v-5.32h-5.65v-11.3h5.65v-5.32h10.97v5.32h5.65v5.65h5.65v5.65h5.32v-11.3h5.65Z"/>
    <path class="uuid-8a5a1d7a-4f99-4666-919b-8b966be52ac2" d="m352.56,135.56v5.32h-5.65v-5.32h5.65Z"/>
    <path class="uuid-84ec9981-4e2b-4e58-8424-0230edce64a0" d="m352.56,135.56h38.57v5.32h5.65v38.9h-5.65v5.65h-38.57v-5.65h-5.65v-38.9h5.65v-5.32Zm5.32,10.97h-5.32v27.6h5.32v5.65h27.93v-5.65h5.32v-27.6h-5.32v-5.65h-27.93v5.65Z"/>
    <path class="uuid-8a5a1d7a-4f99-4666-919b-8b966be52ac2" d="m391.13,135.56h5.65v5.32h-5.65v-5.32Z"/>
    <path class="uuid-8a5a1d7a-4f99-4666-919b-8b966be52ac2" d="m396.78,179.78v-38.9h5.65v11.3h5.32v-5.65h5.65v-5.65h5.65v-5.32h10.97v5.32h5.65v11.3h-5.65v5.32h-27.6v5.65h27.6v5.65h5.65v10.97h-5.65v5.65h-10.97v-5.65h-5.65v-5.65h-5.65v-5.32h-5.32v10.97h-5.65Z"/>
    <path class="uuid-8a5a1d7a-4f99-4666-919b-8b966be52ac2" d="m535.42,140.88v38.9h-5.65v-10.97h-5.65v5.32h-5.32v5.65h-5.65v5.65h-10.97v-5.65h-5.65v-10.97h5.65v-5.65h27.59v-5.65h-27.59v-5.32h-5.65v-11.3h5.65v-5.32h10.97v5.32h5.65v5.65h5.32v5.65h5.65v-11.3h5.65Z"/>
    <path class="uuid-8a5a1d7a-4f99-4666-919b-8b966be52ac2" d="m540.74,140.88h-5.32v-5.32h5.32v5.32Z"/>
    <path class="uuid-84ec9981-4e2b-4e58-8424-0230edce64a0" d="m14.43,140.88h5.65v38.9h-5.65v-38.9Z"/>
    <path class="uuid-8a5a1d7a-4f99-4666-919b-8b966be52ac2" d="m197.3,146.53h-10.97v5.65h5.32v5.32h5.65v-10.97h5.65v27.6h-5.65v-10.97h-5.65v5.65h-5.32v5.32h10.97v5.65h-27.6v-5.65h10.97v-5.32h-5.65v-5.65h-5.32v10.97h-5.65v-27.6h5.65v10.97h5.32v-5.32h5.65v-5.65h-10.97v-5.65h27.6v5.65Z"/>
    <path class="uuid-8a5a1d7a-4f99-4666-919b-8b966be52ac2" d="m385.81,146.53h-11.3v5.65h5.65v5.32h5.65v-10.97h5.32v27.6h-5.32v-10.97h-5.65v5.65h-5.65v5.32h11.3v5.65h-27.93v-5.65h11.3v-5.32h-5.65v-5.65h-5.65v10.97h-5.32v-27.6h5.32v10.97h5.65v-5.32h5.65v-5.65h-11.3v-5.65h27.93v5.65Z"/>
    <path class="uuid-84ec9981-4e2b-4e58-8424-0230edce64a0" d="m535.42,140.88h5.32v38.9h-5.32v-38.9Z"/>
    <path class="uuid-8a5a1d7a-4f99-4666-919b-8b966be52ac2" d="m14.43,179.78h5.65v5.65h-5.65v-5.65Z"/>
    <path class="uuid-8a5a1d7a-4f99-4666-919b-8b966be52ac2" d="m158.4,179.78h5.65v5.65h-5.65v-5.65Z"/>
    <path class="uuid-8a5a1d7a-4f99-4666-919b-8b966be52ac2" d="m208.27,179.78v5.65h-5.32v-5.65h5.32Z"/>
    <path class="uuid-8a5a1d7a-4f99-4666-919b-8b966be52ac2" d="m346.91,179.78h5.65v5.65h-5.65v-5.65Z"/>
    <path class="uuid-8a5a1d7a-4f99-4666-919b-8b966be52ac2" d="m396.78,179.78v5.65h-5.65v-5.65h5.65Z"/>
    <path class="uuid-8a5a1d7a-4f99-4666-919b-8b966be52ac2" d="m535.42,179.78h5.32v5.65h-5.32v-5.65Z"/>
    <path class="uuid-84ec9981-4e2b-4e58-8424-0230edce64a0" d="m36.71,190.75h-11.3v-5.32h11.3v5.32Z"/>
    <path class="uuid-84ec9981-4e2b-4e58-8424-0230edce64a0" d="m153.08,190.75h-11.3v-5.32h11.3v5.32Z"/>
    <path class="uuid-8a5a1d7a-4f99-4666-919b-8b966be52ac2" d="m164.05,185.43h38.9v5.32h-11.31v5.65h5.65v5.65h5.65v5.32h5.32v11.3h-5.32v5.32h-11.31v-5.32h-5.32v-27.93h-5.65v27.93h-5.65v5.32h-10.97v-5.32h-5.65v-11.3h5.65v-5.32h5.65v-5.65h5.32v-5.65h-10.97v-5.32Z"/>
    <path class="uuid-84ec9981-4e2b-4e58-8424-0230edce64a0" d="m224.89,190.75h-10.97v-5.32h10.97v5.32Z"/>
    <path class="uuid-84ec9981-4e2b-4e58-8424-0230edce64a0" d="m341.26,190.75h-10.97v-5.32h10.97v5.32Z"/>
    <path class="uuid-8a5a1d7a-4f99-4666-919b-8b966be52ac2" d="m352.56,185.43h38.57v5.32h-10.97v5.65h5.65v5.65h5.32v5.32h5.65v11.3h-5.65v5.32h-10.97v-5.32h-5.65v-27.93h-5.32v27.93h-5.65v5.32h-10.97v-5.32h-5.65v-11.3h5.65v-5.32h5.32v-5.65h5.65v-5.65h-10.97v-5.32Z"/>
    <path class="uuid-84ec9981-4e2b-4e58-8424-0230edce64a0" d="m413.41,190.75h-10.97v-5.32h10.97v5.32Z"/>
    <path class="uuid-84ec9981-4e2b-4e58-8424-0230edce64a0" d="m529.77,190.75h-10.97v-5.32h10.97v5.32Z"/>
    <path class="uuid-84ec9981-4e2b-4e58-8424-0230edce64a0" d="m25.41,190.75v11.3h-5.32v-11.3h5.32Z"/>
    <path class="uuid-8a5a1d7a-4f99-4666-919b-8b966be52ac2" d="m25.41,190.75h11.3v11.3h-11.3v-11.3Z"/>
    <path class="uuid-84ec9981-4e2b-4e58-8424-0230edce64a0" d="m36.71,190.75h5.32v11.3h-5.32v-11.3Z"/>
    <path class="uuid-84ec9981-4e2b-4e58-8424-0230edce64a0" d="m141.77,190.75v11.3h-5.32v-11.3h5.32Z"/>
    <path class="uuid-8a5a1d7a-4f99-4666-919b-8b966be52ac2" d="m141.77,190.75h11.3v11.3h-11.3v-11.3Z"/>
    <path class="uuid-84ec9981-4e2b-4e58-8424-0230edce64a0" d="m153.08,190.75h5.32v11.3h-5.32v-11.3Z"/>
    <path class="uuid-84ec9981-4e2b-4e58-8424-0230edce64a0" d="m213.92,190.75v11.3h-5.65v-11.3h5.65Z"/>
    <path class="uuid-8a5a1d7a-4f99-4666-919b-8b966be52ac2" d="m213.92,190.75h10.97v11.3h-10.97v-11.3Z"/>
    <path class="uuid-84ec9981-4e2b-4e58-8424-0230edce64a0" d="m224.89,190.75h5.65v11.3h-5.65v-11.3Z"/>
    <path class="uuid-84ec9981-4e2b-4e58-8424-0230edce64a0" d="m330.29,190.75v11.3h-5.65v-11.3h5.65Z"/>
    <path class="uuid-8a5a1d7a-4f99-4666-919b-8b966be52ac2" d="m330.29,190.75h10.97v11.3h-10.97v-11.3Z"/>
    <path class="uuid-84ec9981-4e2b-4e58-8424-0230edce64a0" d="m341.26,190.75h5.65v11.3h-5.65v-11.3Z"/>
    <path class="uuid-84ec9981-4e2b-4e58-8424-0230edce64a0" d="m402.43,190.75v11.3h-5.65v-11.3h5.65Z"/>
    <path class="uuid-8a5a1d7a-4f99-4666-919b-8b966be52ac2" d="m402.43,190.75h10.97v11.3h-10.97v-11.3Z"/>
    <path class="uuid-84ec9981-4e2b-4e58-8424-0230edce64a0" d="m413.41,190.75h5.65v11.3h-5.65v-11.3Z"/>
    <path class="uuid-84ec9981-4e2b-4e58-8424-0230edce64a0" d="m518.8,190.75v11.3h-5.65v-11.3h5.65Z"/>
    <path class="uuid-8a5a1d7a-4f99-4666-919b-8b966be52ac2" d="m518.8,190.75h10.97v11.3h-10.97v-11.3Z"/>
    <path class="uuid-84ec9981-4e2b-4e58-8424-0230edce64a0" d="m529.77,190.75h5.65v11.3h-5.65v-11.3Z"/>
    <path class="uuid-84ec9981-4e2b-4e58-8424-0230edce64a0" d="m25.41,202.06h11.3v5.32h-11.3v-5.32Z"/>
    <path class="uuid-84ec9981-4e2b-4e58-8424-0230edce64a0" d="m141.77,202.06h11.3v5.32h-11.3v-5.32Z"/>
    <path class="uuid-84ec9981-4e2b-4e58-8424-0230edce64a0" d="m213.92,202.06h10.97v5.32h-10.97v-5.32Z"/>
    <path class="uuid-84ec9981-4e2b-4e58-8424-0230edce64a0" d="m330.29,202.06h10.97v5.32h-10.97v-5.32Z"/>
    <path class="uuid-84ec9981-4e2b-4e58-8424-0230edce64a0" d="m402.43,202.06h10.97v5.32h-10.97v-5.32Z"/>
    <path class="uuid-84ec9981-4e2b-4e58-8424-0230edce64a0" d="m518.8,202.06h10.97v5.32h-10.97v-5.32Z"/>
    <path class="uuid-8a5a1d7a-4f99-4666-919b-8b966be52ac2" d="m14.43,207.38h5.65v11.3h-5.65v-11.3Z"/>
    <path class="uuid-8a5a1d7a-4f99-4666-919b-8b966be52ac2" d="m535.42,207.38h5.32v11.3h-5.32v-11.3Z"/>
    <path class="uuid-8a5a1d7a-4f99-4666-919b-8b966be52ac2" d="m108.52,301.8h-38.57v-5.65h10.97v-5.65h-5.65v-5.32h-5.32v-5.65h-5.65v-16.62h5.65v-5.65h10.97v5.65h5.65v33.25h5.32v-33.25h5.65v-5.65h10.97v5.65h5.65v16.62h-5.65v5.65h-5.32v5.32h-5.65v5.65h10.97v5.65Z"/>
    <path class="uuid-8a5a1d7a-4f99-4666-919b-8b966be52ac2" d="m297.04,301.8h-38.9v-5.65h11.3v-5.65h-5.65v-5.32h-5.65v-5.65h-5.32v-16.62h5.32v-5.65h11.3v5.65h5.32v33.25h5.65v-33.25h5.65v-5.65h10.97v5.65h5.65v16.62h-5.65v5.65h-5.65v5.32h-5.32v5.65h10.97v5.65Z"/>
    <path class="uuid-8a5a1d7a-4f99-4666-919b-8b966be52ac2" d="m485.55,301.8h-38.9v-5.65h10.97v-5.65h-5.32v-5.32h-5.65v-5.65h-5.65v-16.62h5.65v-5.65h10.97v5.65h5.65v33.25h5.65v-33.25h5.32v-5.65h11.3v5.65h5.32v16.62h-5.32v5.65h-5.65v5.32h-5.65v5.65h11.3v5.65Z"/>
    <path class="uuid-84ec9981-4e2b-4e58-8424-0230edce64a0" d="m58.65,285.18h-10.97v-5.65h10.97v5.65Z"/>
    <path class="uuid-84ec9981-4e2b-4e58-8424-0230edce64a0" d="m130.8,285.18h-10.97v-5.65h10.97v5.65Z"/>
    <path class="uuid-84ec9981-4e2b-4e58-8424-0230edce64a0" d="m247.17,285.18h-10.97v-5.65h10.97v5.65Z"/>
    <path class="uuid-84ec9981-4e2b-4e58-8424-0230edce64a0" d="m319.31,285.18h-11.3v-5.65h11.3v5.65Z"/>
    <path class="uuid-84ec9981-4e2b-4e58-8424-0230edce64a0" d="m435.68,285.18h-11.3v-5.65h11.3v5.65Z"/>
    <path class="uuid-84ec9981-4e2b-4e58-8424-0230edce64a0" d="m507.5,285.18h-10.97v-5.65h10.97v5.65Z"/>
    <path class="uuid-84ec9981-4e2b-4e58-8424-0230edce64a0" d="m47.68,285.18v10.97h-5.65v-10.97h5.65Z"/>
    <path class="uuid-8a5a1d7a-4f99-4666-919b-8b966be52ac2" d="m47.68,285.18h10.97v10.97h-10.97v-10.97Z"/>
    <path class="uuid-84ec9981-4e2b-4e58-8424-0230edce64a0" d="m58.65,285.18h5.65v10.97h-5.65v-10.97Z"/>
    <path class="uuid-84ec9981-4e2b-4e58-8424-0230edce64a0" d="m119.83,285.18v10.97h-5.65v-10.97h5.65Z"/>
    <path class="uuid-8a5a1d7a-4f99-4666-919b-8b966be52ac2" d="m119.83,285.18h10.97v10.97h-10.97v-10.97Z"/>
    <path class="uuid-84ec9981-4e2b-4e58-8424-0230edce64a0" d="m130.8,285.18h5.65v10.97h-5.65v-10.97Z"/>
    <path class="uuid-84ec9981-4e2b-4e58-8424-0230edce64a0" d="m236.19,285.18v10.97h-5.65v-10.97h5.65Z"/>
    <path class="uuid-8a5a1d7a-4f99-4666-919b-8b966be52ac2" d="m236.19,285.18h10.97v10.97h-10.97v-10.97Z"/>
    <path class="uuid-84ec9981-4e2b-4e58-8424-0230edce64a0" d="m247.17,285.18h5.65v10.97h-5.65v-10.97Z"/>
    <path class="uuid-84ec9981-4e2b-4e58-8424-0230edce64a0" d="m308.01,285.18v10.97h-5.32v-10.97h5.32Z"/>
    <path class="uuid-8a5a1d7a-4f99-4666-919b-8b966be52ac2" d="m308.01,285.18h11.3v10.97h-11.3v-10.97Z"/>
    <path class="uuid-84ec9981-4e2b-4e58-8424-0230edce64a0" d="m319.31,285.18h5.32v10.97h-5.32v-10.97Z"/>
    <path class="uuid-84ec9981-4e2b-4e58-8424-0230edce64a0" d="m424.38,285.18v10.97h-5.32v-10.97h5.32Z"/>
    <path class="uuid-8a5a1d7a-4f99-4666-919b-8b966be52ac2" d="m424.38,285.18h11.3v10.97h-11.3v-10.97Z"/>
    <path class="uuid-84ec9981-4e2b-4e58-8424-0230edce64a0" d="m435.68,285.18h5.32v10.97h-5.32v-10.97Z"/>
    <path class="uuid-84ec9981-4e2b-4e58-8424-0230edce64a0" d="m496.52,285.18v10.97h-5.65v-10.97h5.65Z"/>
    <path class="uuid-8a5a1d7a-4f99-4666-919b-8b966be52ac2" d="m496.52,285.18h10.97v10.97h-10.97v-10.97Z"/>
    <path class="uuid-84ec9981-4e2b-4e58-8424-0230edce64a0" d="m507.5,285.18h5.65v10.97h-5.65v-10.97Z"/>
    <path class="uuid-84ec9981-4e2b-4e58-8424-0230edce64a0" d="m47.68,296.15h10.97v5.65h-10.97v-5.65Z"/>
    <path class="uuid-84ec9981-4e2b-4e58-8424-0230edce64a0" d="m119.83,296.15h10.97v5.65h-10.97v-5.65Z"/>
    <path class="uuid-84ec9981-4e2b-4e58-8424-0230edce64a0" d="m236.19,296.15h10.97v5.65h-10.97v-5.65Z"/>
    <path class="uuid-84ec9981-4e2b-4e58-8424-0230edce64a0" d="m308.01,296.15h11.3v5.65h-11.3v-5.65Z"/>
    <path class="uuid-84ec9981-4e2b-4e58-8424-0230edce64a0" d="m424.38,296.15h11.3v5.65h-11.3v-5.65Z"/>
    <path class="uuid-84ec9981-4e2b-4e58-8424-0230edce64a0" d="m496.52,296.15h10.97v5.65h-10.97v-5.65Z"/>
    <path class="uuid-8a5a1d7a-4f99-4666-919b-8b966be52ac2" d="m64.31,307.12v38.9h-5.65v-10.97h-5.32v5.32h-5.65v5.65h-5.65v5.65h-10.97v-5.65h-5.65v-10.97h5.65v-5.65h27.6v-5.65h-27.6v-5.32h-5.65v-11.3h5.65v-5.32h10.97v5.32h5.65v5.65h5.65v5.65h5.32v-11.3h5.65Z"/>
    <path class="uuid-8a5a1d7a-4f99-4666-919b-8b966be52ac2" d="m69.96,301.8v5.32h-5.65v-5.32h5.65Z"/>
    <path class="uuid-84ec9981-4e2b-4e58-8424-0230edce64a0" d="m69.96,301.8h38.57v5.32h5.65v38.9h-5.65v5.65h-38.57v-5.65h-5.65v-38.9h5.65v-5.32Zm5.32,10.97h-5.32v27.6h5.32v5.65h27.93v-5.65h5.32v-27.6h-5.32v-5.65h-27.93v5.65Z"/>
    <path class="uuid-8a5a1d7a-4f99-4666-919b-8b966be52ac2" d="m108.52,301.8h5.65v5.32h-5.65v-5.32Z"/>
    <path class="uuid-8a5a1d7a-4f99-4666-919b-8b966be52ac2" d="m114.18,346.02v-38.9h5.65v11.3h5.32v-5.65h5.65v-5.65h5.65v-5.32h10.97v5.32h5.65v11.3h-5.65v5.32h-27.6v5.65h27.6v5.65h5.65v10.97h-5.65v5.65h-10.97v-5.65h-5.65v-5.65h-5.65v-5.32h-5.32v10.97h-5.65Z"/>
    <path class="uuid-8a5a1d7a-4f99-4666-919b-8b966be52ac2" d="m252.82,307.12v38.9h-5.65v-10.97h-5.65v5.32h-5.32v5.65h-5.65v5.65h-10.97v-5.65h-5.65v-10.97h5.65v-5.65h27.6v-5.65h-27.6v-5.32h-5.65v-11.3h5.65v-5.32h10.97v5.32h5.65v5.65h5.32v5.65h5.65v-11.3h5.65Z"/>
    <path class="uuid-8a5a1d7a-4f99-4666-919b-8b966be52ac2" d="m258.14,301.8v5.32h-5.32v-5.32h5.32Z"/>
    <path class="uuid-84ec9981-4e2b-4e58-8424-0230edce64a0" d="m258.14,301.8h38.9v5.32h5.65v38.9h-5.65v5.65h-38.9v-5.65h-5.32v-38.9h5.32v-5.32Zm5.65,10.97h-5.65v27.6h5.65v5.65h27.6v-5.65h5.65v-27.6h-5.65v-5.65h-27.6v5.65Z"/>
    <path class="uuid-8a5a1d7a-4f99-4666-919b-8b966be52ac2" d="m297.04,301.8h5.65v5.32h-5.65v-5.32Z"/>
    <path class="uuid-8a5a1d7a-4f99-4666-919b-8b966be52ac2" d="m302.69,346.02v-38.9h5.32v11.3h5.65v-5.65h5.65v-5.65h5.32v-5.32h11.3v5.32h5.32v11.3h-5.32v5.32h-27.93v5.65h27.93v5.65h5.32v10.97h-5.32v5.65h-11.3v-5.65h-5.32v-5.65h-5.65v-5.32h-5.65v10.97h-5.32Z"/>
    <path class="uuid-8a5a1d7a-4f99-4666-919b-8b966be52ac2" d="m441,307.12v38.9h-5.32v-10.97h-5.65v5.32h-5.65v5.65h-5.32v5.65h-11.3v-5.65h-5.32v-10.97h5.32v-5.65h27.93v-5.65h-27.93v-5.32h-5.32v-11.3h5.32v-5.32h11.3v5.32h5.32v5.65h5.65v5.65h5.65v-11.3h5.32Z"/>
    <path class="uuid-8a5a1d7a-4f99-4666-919b-8b966be52ac2" d="m446.65,301.8v5.32h-5.65v-5.32h5.65Z"/>
    <path class="uuid-84ec9981-4e2b-4e58-8424-0230edce64a0" d="m446.65,301.8h38.9v5.32h5.32v38.9h-5.32v5.65h-38.9v-5.65h-5.65v-38.9h5.65v-5.32Zm5.65,10.97h-5.65v27.6h5.65v5.65h27.6v-5.65h5.65v-27.6h-5.65v-5.65h-27.6v5.65Z"/>
    <path class="uuid-8a5a1d7a-4f99-4666-919b-8b966be52ac2" d="m485.55,301.8h5.32v5.32h-5.32v-5.32Z"/>
    <path class="uuid-8a5a1d7a-4f99-4666-919b-8b966be52ac2" d="m490.87,346.02v-38.9h5.65v11.3h5.65v-5.65h5.32v-5.65h5.65v-5.32h10.97v5.32h5.65v11.3h-5.65v5.32h-27.6v5.65h27.6v5.65h5.65v10.97h-5.65v5.65h-10.97v-5.65h-5.65v-5.65h-5.32v-5.32h-5.65v10.97h-5.65Z"/>
    <path class="uuid-8a5a1d7a-4f99-4666-919b-8b966be52ac2" d="m103.2,312.77h-11.3v5.65h5.65v5.32h5.65v-10.97h5.32v27.6h-5.32v-10.97h-5.65v5.65h-5.65v5.32h11.3v5.65h-27.93v-5.65h11.3v-5.32h-5.65v-5.65h-5.65v10.97h-5.32v-27.6h5.32v10.97h5.65v-5.32h5.65v-5.65h-11.3v-5.65h27.93v5.65Z"/>
    <path class="uuid-8a5a1d7a-4f99-4666-919b-8b966be52ac2" d="m291.39,312.77h-10.97v5.65h5.65v5.32h5.32v-10.97h5.65v27.6h-5.65v-10.97h-5.32v5.65h-5.65v5.32h10.97v5.65h-27.6v-5.65h10.97v-5.32h-5.32v-5.65h-5.65v10.97h-5.65v-27.6h5.65v10.97h5.65v-5.32h5.32v-5.65h-10.97v-5.65h27.6v5.65Z"/>
    <path class="uuid-8a5a1d7a-4f99-4666-919b-8b966be52ac2" d="m479.9,312.77h-10.97v5.65h5.32v5.32h5.65v-10.97h5.65v27.6h-5.65v-10.97h-5.65v5.65h-5.32v5.32h10.97v5.65h-27.6v-5.65h10.97v-5.32h-5.65v-5.65h-5.32v10.97h-5.65v-27.6h5.65v10.97h5.32v-5.32h5.65v-5.65h-10.97v-5.65h27.6v5.65Z"/>
    <path class="uuid-8a5a1d7a-4f99-4666-919b-8b966be52ac2" d="m64.31,346.02h5.65v5.65h-5.65v-5.65Z"/>
    <path class="uuid-8a5a1d7a-4f99-4666-919b-8b966be52ac2" d="m114.18,346.02v5.65h-5.65v-5.65h5.65Z"/>
    <path class="uuid-8a5a1d7a-4f99-4666-919b-8b966be52ac2" d="m252.82,346.02h5.32v5.65h-5.32v-5.65Z"/>
    <path class="uuid-8a5a1d7a-4f99-4666-919b-8b966be52ac2" d="m302.69,346.02v5.65h-5.65v-5.65h5.65Z"/>
    <path class="uuid-8a5a1d7a-4f99-4666-919b-8b966be52ac2" d="m441,346.02h5.65v5.65h-5.65v-5.65Z"/>
    <path class="uuid-8a5a1d7a-4f99-4666-919b-8b966be52ac2" d="m490.87,346.02v5.65h-5.32v-5.65h5.32Z"/>
    <path class="uuid-84ec9981-4e2b-4e58-8424-0230edce64a0" d="m58.65,356.99h-10.97v-5.32h10.97v5.32Z"/>
    <path class="uuid-8a5a1d7a-4f99-4666-919b-8b966be52ac2" d="m69.96,351.67h38.57v5.32h-10.97v5.65h5.65v5.65h5.32v5.32h5.65v11.3h-5.65v5.32h-10.97v-5.32h-5.65v-27.93h-5.32v27.93h-5.65v5.32h-10.97v-5.32h-5.65v-11.3h5.65v-5.32h5.32v-5.65h5.65v-5.65h-10.97v-5.32Z"/>
    <path class="uuid-84ec9981-4e2b-4e58-8424-0230edce64a0" d="m130.8,356.99h-10.97v-5.32h10.97v5.32Z"/>
    <path class="uuid-84ec9981-4e2b-4e58-8424-0230edce64a0" d="m247.17,356.99h-10.97v-5.32h10.97v5.32Z"/>
    <path class="uuid-8a5a1d7a-4f99-4666-919b-8b966be52ac2" d="m258.14,351.67h38.9v5.32h-10.97v5.65h5.32v5.65h5.65v5.32h5.65v11.3h-5.65v5.32h-10.97v-5.32h-5.65v-27.93h-5.65v27.93h-5.32v5.32h-11.3v-5.32h-5.32v-11.3h5.32v-5.32h5.65v-5.65h5.65v-5.65h-11.3v-5.32Z"/>
    <path class="uuid-84ec9981-4e2b-4e58-8424-0230edce64a0" d="m319.31,356.99h-11.3v-5.32h11.3v5.32Z"/>
    <path class="uuid-84ec9981-4e2b-4e58-8424-0230edce64a0" d="m435.68,356.99h-11.3v-5.32h11.3v5.32Z"/>
    <path class="uuid-8a5a1d7a-4f99-4666-919b-8b966be52ac2" d="m446.65,351.67h38.9v5.32h-11.3v5.65h5.65v5.65h5.65v5.32h5.32v11.3h-5.32v5.32h-11.3v-5.32h-5.32v-27.93h-5.65v27.93h-5.65v5.32h-10.97v-5.32h-5.65v-11.3h5.65v-5.32h5.65v-5.65h5.32v-5.65h-10.97v-5.32Z"/>
    <path class="uuid-84ec9981-4e2b-4e58-8424-0230edce64a0" d="m507.5,356.99h-10.97v-5.32h10.97v5.32Z"/>
    <path class="uuid-84ec9981-4e2b-4e58-8424-0230edce64a0" d="m47.68,356.99v11.3h-5.65v-11.3h5.65Z"/>
    <path class="uuid-8a5a1d7a-4f99-4666-919b-8b966be52ac2" d="m47.68,356.99h10.97v11.3h-10.97v-11.3Z"/>
    <path class="uuid-84ec9981-4e2b-4e58-8424-0230edce64a0" d="m58.65,356.99h5.65v11.3h-5.65v-11.3Z"/>
    <path class="uuid-84ec9981-4e2b-4e58-8424-0230edce64a0" d="m119.83,356.99v11.3h-5.65v-11.3h5.65Z"/>
    <path class="uuid-8a5a1d7a-4f99-4666-919b-8b966be52ac2" d="m119.83,356.99h10.97v11.3h-10.97v-11.3Z"/>
    <path class="uuid-84ec9981-4e2b-4e58-8424-0230edce64a0" d="m130.8,356.99h5.65v11.3h-5.65v-11.3Z"/>
    <path class="uuid-84ec9981-4e2b-4e58-8424-0230edce64a0" d="m236.19,356.99v11.3h-5.65v-11.3h5.65Z"/>
    <path class="uuid-8a5a1d7a-4f99-4666-919b-8b966be52ac2" d="m236.19,356.99h10.97v11.3h-10.97v-11.3Z"/>
    <path class="uuid-84ec9981-4e2b-4e58-8424-0230edce64a0" d="m247.17,356.99h5.65v11.3h-5.65v-11.3Z"/>
    <path class="uuid-84ec9981-4e2b-4e58-8424-0230edce64a0" d="m308.01,356.99v11.3h-5.32v-11.3h5.32Z"/>
    <path class="uuid-8a5a1d7a-4f99-4666-919b-8b966be52ac2" d="m308.01,356.99h11.3v11.3h-11.3v-11.3Z"/>
    <path class="uuid-84ec9981-4e2b-4e58-8424-0230edce64a0" d="m319.31,356.99h5.32v11.3h-5.32v-11.3Z"/>
    <path class="uuid-84ec9981-4e2b-4e58-8424-0230edce64a0" d="m424.38,356.99v11.3h-5.32v-11.3h5.32Z"/>
    <path class="uuid-8a5a1d7a-4f99-4666-919b-8b966be52ac2" d="m424.38,356.99h11.3v11.3h-11.3v-11.3Z"/>
    <path class="uuid-84ec9981-4e2b-4e58-8424-0230edce64a0" d="m435.68,356.99h5.32v11.3h-5.32v-11.3Z"/>
    <path class="uuid-84ec9981-4e2b-4e58-8424-0230edce64a0" d="m496.52,356.99v11.3h-5.65v-11.3h5.65Z"/>
    <path class="uuid-8a5a1d7a-4f99-4666-919b-8b966be52ac2" d="m496.52,356.99h10.97v11.3h-10.97v-11.3Z"/>
    <path class="uuid-84ec9981-4e2b-4e58-8424-0230edce64a0" d="m507.5,356.99h5.65v11.3h-5.65v-11.3Z"/>
    <path class="uuid-84ec9981-4e2b-4e58-8424-0230edce64a0" d="m47.68,368.3h10.97v5.32h-10.97v-5.32Z"/>
    <path class="uuid-84ec9981-4e2b-4e58-8424-0230edce64a0" d="m119.83,368.3h10.97v5.32h-10.97v-5.32Z"/>
    <path class="uuid-84ec9981-4e2b-4e58-8424-0230edce64a0" d="m236.19,368.3h10.97v5.32h-10.97v-5.32Z"/>
    <path class="uuid-84ec9981-4e2b-4e58-8424-0230edce64a0" d="m308.01,368.3h11.3v5.32h-11.3v-5.32Z"/>
    <path class="uuid-84ec9981-4e2b-4e58-8424-0230edce64a0" d="m424.38,368.3h11.3v5.32h-11.3v-5.32Z"/>
    <path class="uuid-84ec9981-4e2b-4e58-8424-0230edce64a0" d="m496.52,368.3h10.97v5.32h-10.97v-5.32Z"/>
    <path class="uuid-8a5a1d7a-4f99-4666-919b-8b966be52ac2" d="m202.95,468.04h-38.9v-5.65h10.97v-5.65h-5.32v-5.32h-5.65v-5.65h-5.65v-16.62h5.65v-5.65h10.97v5.65h5.65v33.25h5.65v-33.25h5.32v-5.65h11.31v5.65h5.32v16.62h-5.32v5.65h-5.65v5.32h-5.65v5.65h11.31v5.65Z"/>
    <path class="uuid-8a5a1d7a-4f99-4666-919b-8b966be52ac2" d="m391.13,468.04h-38.57v-5.65h10.97v-5.65h-5.65v-5.32h-5.32v-5.65h-5.65v-16.62h5.65v-5.65h10.97v5.65h5.65v33.25h5.32v-33.25h5.65v-5.65h10.97v5.65h5.65v16.62h-5.65v5.65h-5.32v5.32h-5.65v5.65h10.97v5.65Z"/>
    <path class="uuid-8a5a1d7a-4f99-4666-919b-8b966be52ac2" d="m14.43,429.14h5.65v16.62h-5.65v-16.62Z"/>
    <path class="uuid-8a5a1d7a-4f99-4666-919b-8b966be52ac2" d="m535.42,429.14h5.32v16.62h-5.32v-16.62Z"/>
    <path class="uuid-84ec9981-4e2b-4e58-8424-0230edce64a0" d="m36.71,451.42h-11.3v-5.65h11.3v5.65Z"/>
    <path class="uuid-84ec9981-4e2b-4e58-8424-0230edce64a0" d="m153.08,451.42h-11.3v-5.65h11.3v5.65Z"/>
    <path class="uuid-84ec9981-4e2b-4e58-8424-0230edce64a0" d="m224.89,451.42h-10.97v-5.65h10.97v5.65Z"/>
    <path class="uuid-84ec9981-4e2b-4e58-8424-0230edce64a0" d="m341.26,451.42h-10.97v-5.65h10.97v5.65Z"/>
    <path class="uuid-84ec9981-4e2b-4e58-8424-0230edce64a0" d="m413.41,451.42h-10.97v-5.65h10.97v5.65Z"/>
    <path class="uuid-84ec9981-4e2b-4e58-8424-0230edce64a0" d="m529.77,451.42h-10.97v-5.65h10.97v5.65Z"/>
    <path class="uuid-84ec9981-4e2b-4e58-8424-0230edce64a0" d="m25.41,451.42v10.97h-5.32v-10.97h5.32Z"/>
    <path class="uuid-8a5a1d7a-4f99-4666-919b-8b966be52ac2" d="m25.41,451.42h11.3v10.97h-11.3v-10.97Z"/>
    <path class="uuid-84ec9981-4e2b-4e58-8424-0230edce64a0" d="m36.71,451.42h5.32v10.97h-5.32v-10.97Z"/>
    <path class="uuid-84ec9981-4e2b-4e58-8424-0230edce64a0" d="m141.77,451.42v10.97h-5.32v-10.97h5.32Z"/>
    <path class="uuid-8a5a1d7a-4f99-4666-919b-8b966be52ac2" d="m141.77,451.42h11.3v10.97h-11.3v-10.97Z"/>
    <path class="uuid-84ec9981-4e2b-4e58-8424-0230edce64a0" d="m153.08,451.42h5.32v10.97h-5.32v-10.97Z"/>
    <path class="uuid-84ec9981-4e2b-4e58-8424-0230edce64a0" d="m213.92,451.42v10.97h-5.65v-10.97h5.65Z"/>
    <path class="uuid-8a5a1d7a-4f99-4666-919b-8b966be52ac2" d="m213.92,451.42h10.97v10.97h-10.97v-10.97Z"/>
    <path class="uuid-84ec9981-4e2b-4e58-8424-0230edce64a0" d="m224.89,451.42h5.65v10.97h-5.65v-10.97Z"/>
    <path class="uuid-84ec9981-4e2b-4e58-8424-0230edce64a0" d="m330.29,451.42v10.97h-5.65v-10.97h5.65Z"/>
    <path class="uuid-8a5a1d7a-4f99-4666-919b-8b966be52ac2" d="m330.29,451.42h10.97v10.97h-10.97v-10.97Z"/>
    <path class="uuid-84ec9981-4e2b-4e58-8424-0230edce64a0" d="m341.26,451.42h5.65v10.97h-5.65v-10.97Z"/>
    <path class="uuid-84ec9981-4e2b-4e58-8424-0230edce64a0" d="m402.43,451.42v10.97h-5.65v-10.97h5.65Z"/>
    <path class="uuid-8a5a1d7a-4f99-4666-919b-8b966be52ac2" d="m402.43,451.42h10.97v10.97h-10.97v-10.97Z"/>
    <path class="uuid-84ec9981-4e2b-4e58-8424-0230edce64a0" d="m413.41,451.42h5.65v10.97h-5.65v-10.97Z"/>
    <path class="uuid-84ec9981-4e2b-4e58-8424-0230edce64a0" d="m518.8,451.42v10.97h-5.65v-10.97h5.65Z"/>
    <path class="uuid-8a5a1d7a-4f99-4666-919b-8b966be52ac2" d="m518.8,451.42h10.97v10.97h-10.97v-10.97Z"/>
    <path class="uuid-84ec9981-4e2b-4e58-8424-0230edce64a0" d="m529.77,451.42h5.65v10.97h-5.65v-10.97Z"/>
    <path class="uuid-84ec9981-4e2b-4e58-8424-0230edce64a0" d="m25.41,462.39h11.3v5.65h-11.3v-5.65Z"/>
    <path class="uuid-84ec9981-4e2b-4e58-8424-0230edce64a0" d="m141.77,462.39h11.3v5.65h-11.3v-5.65Z"/>
    <path class="uuid-84ec9981-4e2b-4e58-8424-0230edce64a0" d="m213.92,462.39h10.97v5.65h-10.97v-5.65Z"/>
    <path class="uuid-84ec9981-4e2b-4e58-8424-0230edce64a0" d="m330.29,462.39h10.97v5.65h-10.97v-5.65Z"/>
    <path class="uuid-84ec9981-4e2b-4e58-8424-0230edce64a0" d="m402.43,462.39h10.97v5.65h-10.97v-5.65Z"/>
    <path class="uuid-84ec9981-4e2b-4e58-8424-0230edce64a0" d="m518.8,462.39h10.97v5.65h-10.97v-5.65Z"/>
    <path class="uuid-8a5a1d7a-4f99-4666-919b-8b966be52ac2" d="m14.43,468.04h5.65v5.32h-5.65v-5.32Z"/>
    <path class="uuid-8a5a1d7a-4f99-4666-919b-8b966be52ac2" d="m20.09,512.26v-38.9h5.32v11.3h5.65v-5.65h5.65v-5.65h5.32v-5.32h11.31v5.32h5.32v11.3h-5.32v5.32h-27.93v5.65h27.93v5.65h5.32v10.97h-5.32v5.65h-11.31v-5.65h-5.32v-5.65h-5.65v-5.32h-5.65v10.97h-5.32Z"/>
    <path class="uuid-8a5a1d7a-4f99-4666-919b-8b966be52ac2" d="m158.4,473.36v38.9h-5.32v-10.97h-5.65v5.32h-5.65v5.65h-5.32v5.65h-11.3v-5.65h-5.32v-10.97h5.32v-5.65h27.93v-5.65h-27.93v-5.32h-5.32v-11.3h5.32v-5.32h11.3v5.32h5.32v5.65h5.65v5.65h5.65v-11.3h5.32Z"/>
    <path class="uuid-8a5a1d7a-4f99-4666-919b-8b966be52ac2" d="m164.05,468.04v5.32h-5.65v-5.32h5.65Z"/>
    <path class="uuid-84ec9981-4e2b-4e58-8424-0230edce64a0" d="m164.05,468.04h38.9v5.32h5.32v38.9h-5.32v5.65h-38.9v-5.65h-5.65v-38.9h5.65v-5.32Zm5.65,10.97h-5.65v27.6h5.65v5.65h27.6v-5.65h5.65v-27.6h-5.65v-5.65h-27.6v5.65Z"/>
    <path class="uuid-8a5a1d7a-4f99-4666-919b-8b966be52ac2" d="m202.95,468.04h5.32v5.32h-5.32v-5.32Z"/>
    <path class="uuid-8a5a1d7a-4f99-4666-919b-8b966be52ac2" d="m208.27,512.26v-38.9h5.65v11.3h5.65v-5.65h5.32v-5.65h5.65v-5.32h10.97v5.32h5.65v11.3h-5.65v5.32h-27.6v5.65h27.6v5.65h5.65v10.97h-5.65v5.65h-10.97v-5.65h-5.65v-5.65h-5.32v-5.32h-5.65v10.97h-5.65Z"/>
    <path class="uuid-8a5a1d7a-4f99-4666-919b-8b966be52ac2" d="m346.91,473.36v38.9h-5.65v-10.97h-5.32v5.32h-5.65v5.65h-5.65v5.65h-10.97v-5.65h-5.65v-10.97h5.65v-5.65h27.6v-5.65h-27.6v-5.32h-5.65v-11.3h5.65v-5.32h10.97v5.32h5.65v5.65h5.65v5.65h5.32v-11.3h5.65Z"/>
    <path class="uuid-8a5a1d7a-4f99-4666-919b-8b966be52ac2" d="m352.56,468.04v5.32h-5.65v-5.32h5.65Z"/>
    <path class="uuid-84ec9981-4e2b-4e58-8424-0230edce64a0" d="m352.56,468.04h38.57v5.32h5.65v38.9h-5.65v5.65h-38.57v-5.65h-5.65v-38.9h5.65v-5.32Zm5.32,10.97h-5.32v27.6h5.32v5.65h27.93v-5.65h5.32v-27.6h-5.32v-5.65h-27.93v5.65Z"/>
    <path class="uuid-8a5a1d7a-4f99-4666-919b-8b966be52ac2" d="m391.13,468.04h5.65v5.32h-5.65v-5.32Z"/>
    <path class="uuid-8a5a1d7a-4f99-4666-919b-8b966be52ac2" d="m396.78,512.26v-38.9h5.65v11.3h5.32v-5.65h5.65v-5.65h5.65v-5.32h10.97v5.32h5.65v11.3h-5.65v5.32h-27.6v5.65h27.6v5.65h5.65v10.97h-5.65v5.65h-10.97v-5.65h-5.65v-5.65h-5.65v-5.32h-5.32v10.97h-5.65Z"/>
    <path class="uuid-8a5a1d7a-4f99-4666-919b-8b966be52ac2" d="m535.42,473.36v38.9h-5.65v-10.97h-5.65v5.32h-5.32v5.65h-5.65v5.65h-10.97v-5.65h-5.65v-10.97h5.65v-5.65h27.59v-5.65h-27.59v-5.32h-5.65v-11.3h5.65v-5.32h10.97v5.32h5.65v5.65h5.32v5.65h5.65v-11.3h5.65Z"/>
    <path class="uuid-8a5a1d7a-4f99-4666-919b-8b966be52ac2" d="m540.74,473.36h-5.32v-5.32h5.32v5.32Z"/>
    <path class="uuid-84ec9981-4e2b-4e58-8424-0230edce64a0" d="m14.43,473.36h5.65v38.9h-5.65v-38.9Z"/>
    <path class="uuid-8a5a1d7a-4f99-4666-919b-8b966be52ac2" d="m197.3,479.01h-10.97v5.65h5.32v5.32h5.65v-10.97h5.65v27.6h-5.65v-10.97h-5.65v5.65h-5.32v5.32h10.97v5.65h-27.6v-5.65h10.97v-5.32h-5.65v-5.65h-5.32v10.97h-5.65v-27.6h5.65v10.97h5.32v-5.32h5.65v-5.65h-10.97v-5.65h27.6v5.65Z"/>
    <path class="uuid-8a5a1d7a-4f99-4666-919b-8b966be52ac2" d="m385.81,479.01h-11.3v5.65h5.65v5.32h5.65v-10.97h5.32v27.6h-5.32v-10.97h-5.65v5.65h-5.65v5.32h11.3v5.65h-27.93v-5.65h11.3v-5.32h-5.65v-5.65h-5.65v10.97h-5.32v-27.6h5.32v10.97h5.65v-5.32h5.65v-5.65h-11.3v-5.65h27.93v5.65Z"/>
    <path class="uuid-84ec9981-4e2b-4e58-8424-0230edce64a0" d="m535.42,473.36h5.32v38.9h-5.32v-38.9Z"/>
    <path class="uuid-8a5a1d7a-4f99-4666-919b-8b966be52ac2" d="m14.43,512.26h5.65v5.65h-5.65v-5.65Z"/>
    <path class="uuid-8a5a1d7a-4f99-4666-919b-8b966be52ac2" d="m158.4,512.26h5.65v5.65h-5.65v-5.65Z"/>
    <path class="uuid-8a5a1d7a-4f99-4666-919b-8b966be52ac2" d="m208.27,512.26v5.65h-5.32v-5.65h5.32Z"/>
    <path class="uuid-8a5a1d7a-4f99-4666-919b-8b966be52ac2" d="m346.91,512.26h5.65v5.65h-5.65v-5.65Z"/>
    <path class="uuid-8a5a1d7a-4f99-4666-919b-8b966be52ac2" d="m396.78,512.26v5.65h-5.65v-5.65h5.65Z"/>
    <path class="uuid-8a5a1d7a-4f99-4666-919b-8b966be52ac2" d="m535.42,512.26h5.32v5.65h-5.32v-5.65Z"/>
    <path class="uuid-84ec9981-4e2b-4e58-8424-0230edce64a0" d="m36.71,523.23h-11.3v-5.32h11.3v5.32Z"/>
    <path class="uuid-84ec9981-4e2b-4e58-8424-0230edce64a0" d="m153.08,523.23h-11.3v-5.32h11.3v5.32Z"/>
    <path class="uuid-8a5a1d7a-4f99-4666-919b-8b966be52ac2" d="m164.05,517.91h38.9v5.32h-11.31v5.65h5.65v5.65h5.65v5.32h5.32v11.3h-5.32v5.32h-11.31v-5.32h-5.32v-27.93h-5.65v27.93h-5.65v5.32h-10.97v-5.32h-5.65v-11.3h5.65v-5.32h5.65v-5.65h5.32v-5.65h-10.97v-5.32Z"/>
    <path class="uuid-84ec9981-4e2b-4e58-8424-0230edce64a0" d="m224.89,523.23h-10.97v-5.32h10.97v5.32Z"/>
    <path class="uuid-84ec9981-4e2b-4e58-8424-0230edce64a0" d="m341.26,523.23h-10.97v-5.32h10.97v5.32Z"/>
    <path class="uuid-8a5a1d7a-4f99-4666-919b-8b966be52ac2" d="m352.56,517.91h38.57v5.32h-10.97v5.65h5.65v5.65h5.32v5.32h5.65v11.3h-5.65v5.32h-10.97v-5.32h-5.65v-27.93h-5.32v27.93h-5.65v5.32h-10.97v-5.32h-5.65v-11.3h5.65v-5.32h5.32v-5.65h5.65v-5.65h-10.97v-5.32Z"/>
    <path class="uuid-84ec9981-4e2b-4e58-8424-0230edce64a0" d="m413.41,523.23h-10.97v-5.32h10.97v5.32Z"/>
    <path class="uuid-84ec9981-4e2b-4e58-8424-0230edce64a0" d="m529.77,523.23h-10.97v-5.32h10.97v5.32Z"/>
    <path class="uuid-84ec9981-4e2b-4e58-8424-0230edce64a0" d="m25.41,523.23v11.3h-5.32v-11.3h5.32Z"/>
    <path class="uuid-8a5a1d7a-4f99-4666-919b-8b966be52ac2" d="m25.41,523.23h11.3v11.3h-11.3v-11.3Z"/>
    <path class="uuid-84ec9981-4e2b-4e58-8424-0230edce64a0" d="m36.71,523.23h5.32v11.3h-5.32v-11.3Z"/>
    <path class="uuid-84ec9981-4e2b-4e58-8424-0230edce64a0" d="m141.77,523.23v11.3h-5.32v-11.3h5.32Z"/>
    <path class="uuid-8a5a1d7a-4f99-4666-919b-8b966be52ac2" d="m141.77,523.23h11.3v11.3h-11.3v-11.3Z"/>
    <path class="uuid-84ec9981-4e2b-4e58-8424-0230edce64a0" d="m153.08,523.23h5.32v11.3h-5.32v-11.3Z"/>
    <path class="uuid-84ec9981-4e2b-4e58-8424-0230edce64a0" d="m213.92,523.23v11.3h-5.65v-11.3h5.65Z"/>
    <path class="uuid-8a5a1d7a-4f99-4666-919b-8b966be52ac2" d="m213.92,523.23h10.97v11.3h-10.97v-11.3Z"/>
    <path class="uuid-84ec9981-4e2b-4e58-8424-0230edce64a0" d="m224.89,523.23h5.65v11.3h-5.65v-11.3Z"/>
    <path class="uuid-84ec9981-4e2b-4e58-8424-0230edce64a0" d="m330.29,523.23v11.3h-5.65v-11.3h5.65Z"/>
    <path class="uuid-8a5a1d7a-4f99-4666-919b-8b966be52ac2" d="m330.29,523.23h10.97v11.3h-10.97v-11.3Z"/>
    <path class="uuid-84ec9981-4e2b-4e58-8424-0230edce64a0" d="m341.26,523.23h5.65v11.3h-5.65v-11.3Z"/>
    <path class="uuid-84ec9981-4e2b-4e58-8424-0230edce64a0" d="m402.43,523.23v11.3h-5.65v-11.3h5.65Z"/>
    <path class="uuid-8a5a1d7a-4f99-4666-919b-8b966be52ac2" d="m402.43,523.23h10.97v11.3h-10.97v-11.3Z"/>
    <path class="uuid-84ec9981-4e2b-4e58-8424-0230edce64a0" d="m413.41,523.23h5.65v11.3h-5.65v-11.3Z"/>
    <path class="uuid-84ec9981-4e2b-4e58-8424-0230edce64a0" d="m518.8,523.23v11.3h-5.65v-11.3h5.65Z"/>
    <path class="uuid-8a5a1d7a-4f99-4666-919b-8b966be52ac2" d="m518.8,523.23h10.97v11.3h-10.97v-11.3Z"/>
    <path class="uuid-84ec9981-4e2b-4e58-8424-0230edce64a0" d="m529.77,523.23h5.65v11.3h-5.65v-11.3Z"/>
    <path class="uuid-84ec9981-4e2b-4e58-8424-0230edce64a0" d="m25.41,534.54h11.3v5.32h-11.3v-5.32Z"/>
    <path class="uuid-84ec9981-4e2b-4e58-8424-0230edce64a0" d="m141.77,534.54h11.3v5.32h-11.3v-5.32Z"/>
    <path class="uuid-84ec9981-4e2b-4e58-8424-0230edce64a0" d="m213.92,534.54h10.97v5.32h-10.97v-5.32Z"/>
    <path class="uuid-84ec9981-4e2b-4e58-8424-0230edce64a0" d="m330.29,534.54h10.97v5.32h-10.97v-5.32Z"/>
    <path class="uuid-84ec9981-4e2b-4e58-8424-0230edce64a0" d="m402.43,534.54h10.97v5.32h-10.97v-5.32Z"/>
    <path class="uuid-84ec9981-4e2b-4e58-8424-0230edce64a0" d="m518.8,534.54h10.97v5.32h-10.97v-5.32Z"/>
    <path class="uuid-8a5a1d7a-4f99-4666-919b-8b966be52ac2" d="m14.43,539.85h5.65v11.3h-5.65v-11.3Z"/>
    <path class="uuid-8a5a1d7a-4f99-4666-919b-8b966be52ac2" d="m535.42,539.85h5.32v11.3h-5.32v-11.3Z"/>
    <path class="uuid-8a5a1d7a-4f99-4666-919b-8b966be52ac2" d="m14.43,601.03h5.65v16.62h-5.65v-16.62Z"/>
    <path class="uuid-8a5a1d7a-4f99-4666-919b-8b966be52ac2" d="m36.71,606.35v5.65h5.32v5.65h-16.62v-16.62h5.65v5.32h5.65Z"/>
    <path class="uuid-8a5a1d7a-4f99-4666-919b-8b966be52ac2" d="m36.71,606.35v-5.32h5.32v5.32h-5.32Z"/>
    <path class="uuid-84ec9981-4e2b-4e58-8424-0230edce64a0" d="m53.33,606.35h-5.65v-5.32h5.65v5.32Z"/>
    <path class="uuid-84ec9981-4e2b-4e58-8424-0230edce64a0" d="m64.31,617.65h-16.62v-5.65h5.65v-5.65h5.32v-5.32h5.65v16.62Z"/>
    <path class="uuid-84ec9981-4e2b-4e58-8424-0230edce64a0" d="m80.93,606.35v5.65h5.65v5.65h-16.62v-16.62h5.32v5.32h5.65Z"/>
    <path class="uuid-84ec9981-4e2b-4e58-8424-0230edce64a0" d="m80.93,606.35v-5.32h5.65v5.32h-5.65Z"/>
    <path class="uuid-8a5a1d7a-4f99-4666-919b-8b966be52ac2" d="m97.55,606.35h-5.65v-5.32h5.65v5.32Z"/>
    <path class="uuid-8a5a1d7a-4f99-4666-919b-8b966be52ac2" d="m108.52,617.65h-16.62v-5.65h5.65v-5.65h5.65v-5.32h5.32v16.62Z"/>
    <path class="uuid-8a5a1d7a-4f99-4666-919b-8b966be52ac2" d="m125.15,606.35v5.65h5.65v5.65h-16.62v-16.62h5.65v5.32h5.32Z"/>
    <path class="uuid-8a5a1d7a-4f99-4666-919b-8b966be52ac2" d="m125.15,606.35v-5.32h5.65v5.32h-5.65Z"/>
    <path class="uuid-84ec9981-4e2b-4e58-8424-0230edce64a0" d="m141.77,606.35h-5.32v-5.32h5.32v5.32Z"/>
    <path class="uuid-84ec9981-4e2b-4e58-8424-0230edce64a0" d="m153.08,617.65h-16.62v-5.65h5.32v-5.65h5.65v-5.32h5.65v16.62Z"/>
    <path class="uuid-84ec9981-4e2b-4e58-8424-0230edce64a0" d="m169.7,606.35v5.65h5.32v5.65h-16.62v-16.62h5.65v5.32h5.65Z"/>
    <path class="uuid-84ec9981-4e2b-4e58-8424-0230edce64a0" d="m169.7,606.35v-5.32h5.32v5.32h-5.32Z"/>
    <path class="uuid-8a5a1d7a-4f99-4666-919b-8b966be52ac2" d="m186.32,606.35h-5.65v-5.32h5.65v5.32Z"/>
    <path class="uuid-8a5a1d7a-4f99-4666-919b-8b966be52ac2" d="m197.3,617.65h-16.62v-5.65h5.65v-5.65h5.32v-5.32h5.65v16.62Z"/>
    <path class="uuid-8a5a1d7a-4f99-4666-919b-8b966be52ac2" d="m213.92,606.35v5.65h5.65v5.65h-16.62v-16.62h5.32v5.32h5.65Z"/>
    <path class="uuid-8a5a1d7a-4f99-4666-919b-8b966be52ac2" d="m213.92,606.35v-5.32h5.65v5.32h-5.65Z"/>
    <path class="uuid-84ec9981-4e2b-4e58-8424-0230edce64a0" d="m230.54,606.35h-5.65v-5.32h5.65v5.32Z"/>
    <path class="uuid-84ec9981-4e2b-4e58-8424-0230edce64a0" d="m241.52,617.65h-16.62v-5.65h5.65v-5.65h5.65v-5.32h5.32v16.62Z"/>
    <path class="uuid-84ec9981-4e2b-4e58-8424-0230edce64a0" d="m258.14,606.35v5.65h5.65v5.65h-16.62v-16.62h5.65v5.32h5.32Z"/>
    <path class="uuid-84ec9981-4e2b-4e58-8424-0230edce64a0" d="m258.14,606.35v-5.32h5.65v5.32h-5.65Z"/>
    <path class="uuid-8a5a1d7a-4f99-4666-919b-8b966be52ac2" d="m274.76,606.35h-5.32v-5.32h5.32v5.32Z"/>
    <path class="uuid-8a5a1d7a-4f99-4666-919b-8b966be52ac2" d="m286.07,617.65h-16.62v-5.65h5.32v-5.65h5.65v-5.32h5.65v16.62Z"/>
    <path class="uuid-8a5a1d7a-4f99-4666-919b-8b966be52ac2" d="m302.69,606.35v5.65h5.32v5.65h-16.62v-16.62h5.65v5.32h5.65Z"/>
    <path class="uuid-8a5a1d7a-4f99-4666-919b-8b966be52ac2" d="m302.69,606.35v-5.32h5.32v5.32h-5.32Z"/>
    <path class="uuid-84ec9981-4e2b-4e58-8424-0230edce64a0" d="m319.31,606.35h-5.65v-5.32h5.65v5.32Z"/>
    <path class="uuid-84ec9981-4e2b-4e58-8424-0230edce64a0" d="m330.29,617.65h-16.62v-5.65h5.65v-5.65h5.32v-5.32h5.65v16.62Z"/>
    <path class="uuid-84ec9981-4e2b-4e58-8424-0230edce64a0" d="m346.91,606.35v5.65h5.65v5.65h-16.62v-16.62h5.32v5.32h5.65Z"/>
    <path class="uuid-84ec9981-4e2b-4e58-8424-0230edce64a0" d="m346.91,606.35v-5.32h5.65v5.32h-5.65Z"/>
    <path class="uuid-8a5a1d7a-4f99-4666-919b-8b966be52ac2" d="m363.53,606.35h-5.65v-5.32h5.65v5.32Z"/>
    <path class="uuid-8a5a1d7a-4f99-4666-919b-8b966be52ac2" d="m374.51,617.65h-16.62v-5.65h5.65v-5.65h5.65v-5.32h5.32v16.62Z"/>
    <path class="uuid-8a5a1d7a-4f99-4666-919b-8b966be52ac2" d="m391.13,606.35v5.65h5.65v5.65h-16.62v-16.62h5.65v5.32h5.32Z"/>
    <path class="uuid-8a5a1d7a-4f99-4666-919b-8b966be52ac2" d="m391.13,606.35v-5.32h5.65v5.32h-5.65Z"/>
    <path class="uuid-84ec9981-4e2b-4e58-8424-0230edce64a0" d="m407.75,606.35h-5.32v-5.32h5.32v5.32Z"/>
    <path class="uuid-84ec9981-4e2b-4e58-8424-0230edce64a0" d="m419.06,617.65h-16.62v-5.65h5.32v-5.65h5.65v-5.32h5.65v16.62Z"/>
    <path class="uuid-84ec9981-4e2b-4e58-8424-0230edce64a0" d="m435.68,606.35v5.65h5.32v5.65h-16.62v-16.62h5.65v5.32h5.65Z"/>
    <path class="uuid-84ec9981-4e2b-4e58-8424-0230edce64a0" d="m435.68,606.35v-5.32h5.32v5.32h-5.32Z"/>
    <path class="uuid-8a5a1d7a-4f99-4666-919b-8b966be52ac2" d="m452.31,606.35h-5.65v-5.32h5.65v5.32Z"/>
    <path class="uuid-8a5a1d7a-4f99-4666-919b-8b966be52ac2" d="m463.28,617.65h-16.62v-5.65h5.65v-5.65h5.32v-5.32h5.65v16.62Z"/>
    <path class="uuid-8a5a1d7a-4f99-4666-919b-8b966be52ac2" d="m479.9,606.35v5.65h5.65v5.65h-16.62v-16.62h5.32v5.32h5.65Z"/>
    <path class="uuid-8a5a1d7a-4f99-4666-919b-8b966be52ac2" d="m479.9,606.35v-5.32h5.65v5.32h-5.65Z"/>
    <path class="uuid-84ec9981-4e2b-4e58-8424-0230edce64a0" d="m496.52,606.35h-5.65v-5.32h5.65v5.32Z"/>
    <path class="uuid-84ec9981-4e2b-4e58-8424-0230edce64a0" d="m507.5,617.65h-16.62v-5.65h5.65v-5.65h5.65v-5.32h5.32v16.62Z"/>
    <path class="uuid-84ec9981-4e2b-4e58-8424-0230edce64a0" d="m524.12,606.35v5.65h5.65v5.65h-16.62v-16.62h5.65v5.32h5.32Z"/>
    <path class="uuid-84ec9981-4e2b-4e58-8424-0230edce64a0" d="m524.12,606.35v-5.32h5.65v5.32h-5.65Z"/>
    <path class="uuid-8a5a1d7a-4f99-4666-919b-8b966be52ac2" d="m535.42,601.03h5.32v5.32h-5.32v-5.32Z"/>
    <path class="uuid-8a5a1d7a-4f99-4666-919b-8b966be52ac2" d="m535.42,612h5.32v5.65h-5.32v-5.65Z"/>
    <path class="uuid-8a5a1d7a-4f99-4666-919b-8b966be52ac2" d="m20.09,617.65h5.32v5.32h-5.32v-5.32Z"/>
    <path class="uuid-84ec9981-4e2b-4e58-8424-0230edce64a0" d="m64.31,617.65h5.65v5.32h83.12v-5.32h5.32v5.32h83.12v-5.32h5.65v5.32h83.12v-5.32h5.65v5.32h83.12v-5.32h5.32v5.32h83.12v-5.32h5.65v5.32h27.6v5.65h-66.5v5.65h-5.32v-5.65h-72.15v5.65h-5.65v-5.65h-71.81v5.65h-5.65v-5.65h-72.15v5.65h-5.32v-5.65h-72.15v5.65h-5.65v-5.65h-71.82v5.65h-5.65v-5.65H14.43v-5.65h49.87v-5.32Z"/>
    <path class="uuid-8a5a1d7a-4f99-4666-919b-8b966be52ac2" d="m108.52,617.65h5.65v5.32h-5.65v-5.32Z"/>
    <path class="uuid-8a5a1d7a-4f99-4666-919b-8b966be52ac2" d="m197.3,617.65h5.65v5.32h-5.65v-5.32Z"/>
    <path class="uuid-8a5a1d7a-4f99-4666-919b-8b966be52ac2" d="m286.07,617.65h5.32v5.32h-5.32v-5.32Z"/>
    <path class="uuid-8a5a1d7a-4f99-4666-919b-8b966be52ac2" d="m374.51,617.65h5.65v5.32h-5.65v-5.32Z"/>
    <path class="uuid-8a5a1d7a-4f99-4666-919b-8b966be52ac2" d="m463.28,617.65h5.65v5.32h-5.65v-5.32Z"/>
    <path class="uuid-8a5a1d7a-4f99-4666-919b-8b966be52ac2" d="m25.41,628.62h11.3v5.65h5.32v33.25h5.65v-33.25h5.65v-5.65h10.97v5.65h5.65v16.62h-5.65v5.32h-5.65v5.65h-5.32v5.65h10.97v5.32H25.41v-5.32h11.3v-5.65h-5.65v-5.65h-5.65v-5.32h-5.32v-16.62h5.32v-5.65Z"/>
    <path class="uuid-8a5a1d7a-4f99-4666-919b-8b966be52ac2" d="m75.28,628.62h5.65v5.65h-5.65v-5.65Z"/>
    <path class="uuid-8a5a1d7a-4f99-4666-919b-8b966be52ac2" d="m91.9,628.62h22.28v5.65h5.65v10.97h5.32v-10.97h5.65v-5.65h22.28v5.65h-5.65v10.97h-5.65v5.65h-5.32v5.32h-5.65v5.65h-5.65v5.65h-5.32v-5.65h-5.65v-5.65h-5.65v-5.32h-5.32v-5.65h-5.65v-10.97h-5.65v-5.65Z"/>
    <path class="uuid-8a5a1d7a-4f99-4666-919b-8b966be52ac2" d="m169.7,628.62v5.65h-5.65v-5.65h5.65Z"/>
    <path class="uuid-8a5a1d7a-4f99-4666-919b-8b966be52ac2" d="m180.67,628.62h10.97v5.65h5.65v33.25h5.65v-33.25h5.32v-5.65h11.3v5.65h5.32v16.62h-5.32v5.32h-5.65v5.65h-5.65v5.65h11.3v5.32h-38.9v-5.32h10.97v-5.65h-5.32v-5.65h-5.65v-5.32h-5.65v-16.62h5.65v-5.65Z"/>
    <path class="uuid-8a5a1d7a-4f99-4666-919b-8b966be52ac2" d="m230.54,628.62h5.65v5.65h-5.65v-5.65Z"/>
    <path class="uuid-8a5a1d7a-4f99-4666-919b-8b966be52ac2" d="m247.17,628.62h22.28v5.65h5.32v10.97h5.65v-10.97h5.65v-5.65h21.94v5.65h-5.32v10.97h-5.65v5.65h-5.65v5.32h-5.32v5.65h-5.65v5.65h-5.65v-5.65h-5.32v-5.65h-5.65v-5.32h-5.65v-5.65h-5.32v-10.97h-5.65v-5.65Z"/>
    <path class="uuid-8a5a1d7a-4f99-4666-919b-8b966be52ac2" d="m324.63,628.62v5.65h-5.32v-5.65h5.32Z"/>
    <path class="uuid-8a5a1d7a-4f99-4666-919b-8b966be52ac2" d="m335.94,628.62h10.97v5.65h5.65v33.25h5.32v-33.25h5.65v-5.65h10.97v5.65h5.65v16.62h-5.65v5.32h-5.32v5.65h-5.65v5.65h10.97v5.32h-38.57v-5.32h10.97v-5.65h-5.65v-5.65h-5.32v-5.32h-5.65v-16.62h5.65v-5.65Z"/>
    <path class="uuid-8a5a1d7a-4f99-4666-919b-8b966be52ac2" d="m385.81,628.62h5.32v5.65h-5.32v-5.65Z"/>
    <path class="uuid-8a5a1d7a-4f99-4666-919b-8b966be52ac2" d="m402.43,628.62h21.94v5.65h5.65v10.97h5.65v-10.97h5.32v-5.65h22.28v5.65h-5.65v10.97h-5.32v5.65h-5.65v5.32h-5.65v5.65h-5.32v5.65h-5.65v-5.65h-5.65v-5.65h-5.32v-5.32h-5.65v-5.65h-5.65v-10.97h-5.32v-5.65Z"/>
    <path class="uuid-8a5a1d7a-4f99-4666-919b-8b966be52ac2" d="m479.9,628.62v5.65h-5.65v-5.65h5.65Z"/>
    <path class="uuid-8a5a1d7a-4f99-4666-919b-8b966be52ac2" d="m490.87,628.62h11.3v5.65h5.32v33.25h5.65v-33.25h5.65v-5.65h10.97v5.65h5.65v16.62h-5.65v5.32h-5.65v5.65h-5.32v5.65h10.97v5.32h-38.9v-5.32h11.3v-5.65h-5.65v-5.65h-5.65v-5.32h-5.32v-16.62h5.32v-5.65Z"/>
    <path class="uuid-8a5a1d7a-4f99-4666-919b-8b966be52ac2" d="m80.93,634.28h5.65v10.97h-5.65v-10.97Z"/>
    <path class="uuid-84ec9981-4e2b-4e58-8424-0230edce64a0" d="m86.58,634.28h5.32v10.97h-5.32v-10.97Z"/>
    <path class="uuid-84ec9981-4e2b-4e58-8424-0230edce64a0" d="m153.08,634.28h5.32v10.97h-5.32v-10.97Z"/>
    <path class="uuid-8a5a1d7a-4f99-4666-919b-8b966be52ac2" d="m158.4,634.28h5.65v10.97h-5.65v-10.97Z"/>
    <path class="uuid-8a5a1d7a-4f99-4666-919b-8b966be52ac2" d="m236.19,634.28h5.32v10.97h-5.32v-10.97Z"/>
    <path class="uuid-84ec9981-4e2b-4e58-8424-0230edce64a0" d="m241.52,634.28h5.65v10.97h-5.65v-10.97Z"/>
    <path class="uuid-84ec9981-4e2b-4e58-8424-0230edce64a0" d="m308.01,634.28h5.65v10.97h-5.65v-10.97Z"/>
    <path class="uuid-8a5a1d7a-4f99-4666-919b-8b966be52ac2" d="m313.66,634.28h5.65v10.97h-5.65v-10.97Z"/>
    <path class="uuid-8a5a1d7a-4f99-4666-919b-8b966be52ac2" d="m391.13,634.28h5.65v10.97h-5.65v-10.97Z"/>
    <path class="uuid-84ec9981-4e2b-4e58-8424-0230edce64a0" d="m396.78,634.28h5.65v10.97h-5.65v-10.97Z"/>
    <path class="uuid-84ec9981-4e2b-4e58-8424-0230edce64a0" d="m463.28,634.28h5.65v10.97h-5.65v-10.97Z"/>
    <path class="uuid-8a5a1d7a-4f99-4666-919b-8b966be52ac2" d="m468.93,634.28h5.32v10.97h-5.32v-10.97Z"/>
    <path class="uuid-8a5a1d7a-4f99-4666-919b-8b966be52ac2" d="m86.58,645.25h5.32v5.65h-5.32v-5.65Z"/>
    <path class="uuid-84ec9981-4e2b-4e58-8424-0230edce64a0" d="m91.9,645.25h5.65v5.65h-5.65v-5.65Z"/>
    <path class="uuid-84ec9981-4e2b-4e58-8424-0230edce64a0" d="m147.42,645.25h5.65v5.65h-5.65v-5.65Z"/>
    <path class="uuid-8a5a1d7a-4f99-4666-919b-8b966be52ac2" d="m153.08,645.25h5.32v5.65h-5.32v-5.65Z"/>
    <path class="uuid-8a5a1d7a-4f99-4666-919b-8b966be52ac2" d="m241.52,645.25h5.65v5.65h-5.65v-5.65Z"/>
    <path class="uuid-84ec9981-4e2b-4e58-8424-0230edce64a0" d="m247.17,645.25h5.65v5.65h-5.65v-5.65Z"/>
    <path class="uuid-84ec9981-4e2b-4e58-8424-0230edce64a0" d="m302.69,645.25h5.32v5.65h-5.32v-5.65Z"/>
    <path class="uuid-8a5a1d7a-4f99-4666-919b-8b966be52ac2" d="m308.01,645.25h5.65v5.65h-5.65v-5.65Z"/>
    <path class="uuid-8a5a1d7a-4f99-4666-919b-8b966be52ac2" d="m396.78,645.25h5.65v5.65h-5.65v-5.65Z"/>
    <path class="uuid-84ec9981-4e2b-4e58-8424-0230edce64a0" d="m402.43,645.25h5.32v5.65h-5.32v-5.65Z"/>
    <path class="uuid-84ec9981-4e2b-4e58-8424-0230edce64a0" d="m457.62,645.25h5.65v5.65h-5.65v-5.65Z"/>
    <path class="uuid-8a5a1d7a-4f99-4666-919b-8b966be52ac2" d="m463.28,645.25h5.65v5.65h-5.65v-5.65Z"/>
    <path class="uuid-84ec9981-4e2b-4e58-8424-0230edce64a0" d="m86.58,650.9v5.32h-11.3v-5.32h11.3Z"/>
    <path class="uuid-8a5a1d7a-4f99-4666-919b-8b966be52ac2" d="m91.9,650.9h5.65v5.32h-5.65v-5.32Z"/>
    <path class="uuid-84ec9981-4e2b-4e58-8424-0230edce64a0" d="m97.55,650.9h5.65v5.32h-5.65v-5.32Z"/>
    <path class="uuid-84ec9981-4e2b-4e58-8424-0230edce64a0" d="m141.77,650.9h5.65v5.32h-5.65v-5.32Z"/>
    <path class="uuid-8a5a1d7a-4f99-4666-919b-8b966be52ac2" d="m147.42,650.9h5.65v5.32h-5.65v-5.32Z"/>
    <path class="uuid-84ec9981-4e2b-4e58-8424-0230edce64a0" d="m158.4,650.9h11.3v5.32h-11.3v-5.32Z"/>
    <path class="uuid-84ec9981-4e2b-4e58-8424-0230edce64a0" d="m241.52,650.9v5.32h-10.97v-5.32h10.97Z"/>
    <path class="uuid-8a5a1d7a-4f99-4666-919b-8b966be52ac2" d="m247.17,650.9h5.65v5.32h-5.65v-5.32Z"/>
    <path class="uuid-84ec9981-4e2b-4e58-8424-0230edce64a0" d="m252.82,650.9h5.32v5.32h-5.32v-5.32Z"/>
    <path class="uuid-84ec9981-4e2b-4e58-8424-0230edce64a0" d="m297.04,650.9h5.65v5.32h-5.65v-5.32Z"/>
    <path class="uuid-8a5a1d7a-4f99-4666-919b-8b966be52ac2" d="m302.69,650.9h5.32v5.32h-5.32v-5.32Z"/>
    <path class="uuid-84ec9981-4e2b-4e58-8424-0230edce64a0" d="m313.66,650.9h10.97v5.32h-10.97v-5.32Z"/>
    <path class="uuid-84ec9981-4e2b-4e58-8424-0230edce64a0" d="m396.78,650.9v5.32h-10.97v-5.32h10.97Z"/>
    <path class="uuid-8a5a1d7a-4f99-4666-919b-8b966be52ac2" d="m402.43,650.9h5.32v5.32h-5.32v-5.32Z"/>
    <path class="uuid-84ec9981-4e2b-4e58-8424-0230edce64a0" d="m407.75,650.9h5.65v5.32h-5.65v-5.32Z"/>
    <path class="uuid-84ec9981-4e2b-4e58-8424-0230edce64a0" d="m452.31,650.9h5.32v5.32h-5.32v-5.32Z"/>
    <path class="uuid-8a5a1d7a-4f99-4666-919b-8b966be52ac2" d="m457.62,650.9h5.65v5.32h-5.65v-5.32Z"/>
    <path class="uuid-84ec9981-4e2b-4e58-8424-0230edce64a0" d="m468.93,650.9h10.97v5.32h-10.97v-5.32Z"/>
    <path class="uuid-84ec9981-4e2b-4e58-8424-0230edce64a0" d="m14.43,656.22h5.65v11.3h-5.65v-11.3Z"/>
    <path class="uuid-84ec9981-4e2b-4e58-8424-0230edce64a0" d="m75.28,656.22v11.3h-5.32v-11.3h5.32Z"/>
    <path class="uuid-8a5a1d7a-4f99-4666-919b-8b966be52ac2" d="m75.28,656.22h11.3v11.3h-11.3v-11.3Z"/>
    <path class="uuid-84ec9981-4e2b-4e58-8424-0230edce64a0" d="m86.58,656.22h5.32v11.3h-5.32v-11.3Z"/>
    <path class="uuid-8a5a1d7a-4f99-4666-919b-8b966be52ac2" d="m97.55,656.22h5.65v5.65h-5.65v-5.65Z"/>
    <path class="uuid-84ec9981-4e2b-4e58-8424-0230edce64a0" d="m103.2,656.22h5.32v5.65h-5.32v-5.65Z"/>
    <path class="uuid-84ec9981-4e2b-4e58-8424-0230edce64a0" d="m136.45,656.22h5.32v5.65h-5.32v-5.65Z"/>
    <path class="uuid-8a5a1d7a-4f99-4666-919b-8b966be52ac2" d="m141.77,656.22h5.65v5.65h-5.65v-5.65Z"/>
    <path class="uuid-84ec9981-4e2b-4e58-8424-0230edce64a0" d="m153.08,656.22h5.32v11.3h-5.32v-11.3Z"/>
    <path class="uuid-8a5a1d7a-4f99-4666-919b-8b966be52ac2" d="m158.4,656.22h11.3v11.3h-11.3v-11.3Z"/>
    <path class="uuid-84ec9981-4e2b-4e58-8424-0230edce64a0" d="m169.7,656.22h5.32v11.3h-5.32v-11.3Z"/>
    <path class="uuid-84ec9981-4e2b-4e58-8424-0230edce64a0" d="m230.54,656.22v11.3h-5.65v-11.3h5.65Z"/>
    <path class="uuid-8a5a1d7a-4f99-4666-919b-8b966be52ac2" d="m230.54,656.22h10.97v11.3h-10.97v-11.3Z"/>
    <path class="uuid-84ec9981-4e2b-4e58-8424-0230edce64a0" d="m241.52,656.22h5.65v11.3h-5.65v-11.3Z"/>
    <path class="uuid-8a5a1d7a-4f99-4666-919b-8b966be52ac2" d="m252.82,656.22h5.32v5.65h-5.32v-5.65Z"/>
    <path class="uuid-84ec9981-4e2b-4e58-8424-0230edce64a0" d="m258.14,656.22h5.65v5.65h-5.65v-5.65Z"/>
    <path class="uuid-84ec9981-4e2b-4e58-8424-0230edce64a0" d="m291.39,656.22h5.65v5.65h-5.65v-5.65Z"/>
    <path class="uuid-8a5a1d7a-4f99-4666-919b-8b966be52ac2" d="m297.04,656.22h5.65v5.65h-5.65v-5.65Z"/>
    <path class="uuid-84ec9981-4e2b-4e58-8424-0230edce64a0" d="m308.01,656.22h5.65v11.3h-5.65v-11.3Z"/>
    <path class="uuid-8a5a1d7a-4f99-4666-919b-8b966be52ac2" d="m313.66,656.22h10.97v11.3h-10.97v-11.3Z"/>
    <path class="uuid-84ec9981-4e2b-4e58-8424-0230edce64a0" d="m324.63,656.22h5.65v11.3h-5.65v-11.3Z"/>
    <path class="uuid-84ec9981-4e2b-4e58-8424-0230edce64a0" d="m385.81,656.22v11.3h-5.65v-11.3h5.65Z"/>
    <path class="uuid-8a5a1d7a-4f99-4666-919b-8b966be52ac2" d="m385.81,656.22h10.97v11.3h-10.97v-11.3Z"/>
    <path class="uuid-84ec9981-4e2b-4e58-8424-0230edce64a0" d="m396.78,656.22h5.65v11.3h-5.65v-11.3Z"/>
    <path class="uuid-8a5a1d7a-4f99-4666-919b-8b966be52ac2" d="m407.75,656.22h5.65v5.65h-5.65v-5.65Z"/>
    <path class="uuid-84ec9981-4e2b-4e58-8424-0230edce64a0" d="m413.41,656.22h5.65v5.65h-5.65v-5.65Z"/>
    <path class="uuid-84ec9981-4e2b-4e58-8424-0230edce64a0" d="m446.65,656.22h5.65v5.65h-5.65v-5.65Z"/>
    <path class="uuid-8a5a1d7a-4f99-4666-919b-8b966be52ac2" d="m452.31,656.22h5.32v5.65h-5.32v-5.65Z"/>
    <path class="uuid-84ec9981-4e2b-4e58-8424-0230edce64a0" d="m463.28,656.22h5.65v11.3h-5.65v-11.3Z"/>
    <path class="uuid-8a5a1d7a-4f99-4666-919b-8b966be52ac2" d="m468.93,656.22h10.97v11.3h-10.97v-11.3Z"/>
    <path class="uuid-84ec9981-4e2b-4e58-8424-0230edce64a0" d="m479.9,656.22h5.65v11.3h-5.65v-11.3Z"/>
    <path class="uuid-84ec9981-4e2b-4e58-8424-0230edce64a0" d="m535.42,656.22h5.32v11.3h-5.32v-11.3Z"/>
    <path class="uuid-8a5a1d7a-4f99-4666-919b-8b966be52ac2" d="m103.2,661.87h5.32v5.65h-5.32v-5.65Z"/>
    <path class="uuid-84ec9981-4e2b-4e58-8424-0230edce64a0" d="m108.52,661.87h5.65v5.65h-5.65v-5.65Z"/>
    <path class="uuid-84ec9981-4e2b-4e58-8424-0230edce64a0" d="m130.8,661.87h5.65v5.65h-5.65v-5.65Z"/>
    <path class="uuid-8a5a1d7a-4f99-4666-919b-8b966be52ac2" d="m136.45,661.87h5.32v5.65h-5.32v-5.65Z"/>
    <path class="uuid-8a5a1d7a-4f99-4666-919b-8b966be52ac2" d="m258.14,661.87h5.65v5.65h-5.65v-5.65Z"/>
    <path class="uuid-84ec9981-4e2b-4e58-8424-0230edce64a0" d="m263.79,661.87h5.65v5.65h-5.65v-5.65Z"/>
    <path class="uuid-84ec9981-4e2b-4e58-8424-0230edce64a0" d="m286.07,661.87h5.32v5.65h-5.32v-5.65Z"/>
    <path class="uuid-8a5a1d7a-4f99-4666-919b-8b966be52ac2" d="m291.39,661.87h5.65v5.65h-5.65v-5.65Z"/>
    <path class="uuid-8a5a1d7a-4f99-4666-919b-8b966be52ac2" d="m413.41,661.87h5.65v5.65h-5.65v-5.65Z"/>
    <path class="uuid-84ec9981-4e2b-4e58-8424-0230edce64a0" d="m419.06,661.87h5.32v5.65h-5.32v-5.65Z"/>
    <path class="uuid-84ec9981-4e2b-4e58-8424-0230edce64a0" d="m441,661.87h5.65v5.65h-5.65v-5.65Z"/>
    <path class="uuid-8a5a1d7a-4f99-4666-919b-8b966be52ac2" d="m446.65,661.87h5.65v5.65h-5.65v-5.65Z"/>
    <path class="uuid-84ec9981-4e2b-4e58-8424-0230edce64a0" d="m75.28,667.53h11.3v5.32h-11.3v-5.32Z"/>
    <path class="uuid-8a5a1d7a-4f99-4666-919b-8b966be52ac2" d="m108.52,667.53h5.65v5.32h-5.65v-5.32Z"/>
    <path class="uuid-84ec9981-4e2b-4e58-8424-0230edce64a0" d="m114.18,667.53h5.65v5.32h-5.65v-5.32Z"/>
    <path class="uuid-84ec9981-4e2b-4e58-8424-0230edce64a0" d="m125.15,667.53h5.65v5.32h-5.65v-5.32Z"/>
    <path class="uuid-8a5a1d7a-4f99-4666-919b-8b966be52ac2" d="m130.8,667.53h5.65v5.32h-5.65v-5.32Z"/>
    <path class="uuid-84ec9981-4e2b-4e58-8424-0230edce64a0" d="m158.4,667.53h11.3v5.32h-11.3v-5.32Z"/>
    <path class="uuid-84ec9981-4e2b-4e58-8424-0230edce64a0" d="m230.54,667.53h10.97v5.32h-10.97v-5.32Z"/>
    <path class="uuid-8a5a1d7a-4f99-4666-919b-8b966be52ac2" d="m263.79,667.53h5.65v5.32h-5.65v-5.32Z"/>
    <path class="uuid-84ec9981-4e2b-4e58-8424-0230edce64a0" d="m269.44,667.53h5.32v5.32h-5.32v-5.32Z"/>
    <path class="uuid-84ec9981-4e2b-4e58-8424-0230edce64a0" d="m280.41,667.53h5.65v5.32h-5.65v-5.32Z"/>
    <path class="uuid-8a5a1d7a-4f99-4666-919b-8b966be52ac2" d="m286.07,667.53h5.32v5.32h-5.32v-5.32Z"/>
    <path class="uuid-84ec9981-4e2b-4e58-8424-0230edce64a0" d="m313.66,667.53h10.97v5.32h-10.97v-5.32Z"/>
    <path class="uuid-84ec9981-4e2b-4e58-8424-0230edce64a0" d="m385.81,667.53h10.97v5.32h-10.97v-5.32Z"/>
    <path class="uuid-8a5a1d7a-4f99-4666-919b-8b966be52ac2" d="m419.06,667.53h5.32v5.32h-5.32v-5.32Z"/>
    <path class="uuid-84ec9981-4e2b-4e58-8424-0230edce64a0" d="m424.38,667.53h5.65v5.32h-5.65v-5.32Z"/>
    <path class="uuid-84ec9981-4e2b-4e58-8424-0230edce64a0" d="m435.68,667.53h5.32v5.32h-5.32v-5.32Z"/>
    <path class="uuid-8a5a1d7a-4f99-4666-919b-8b966be52ac2" d="m441,667.53h5.65v5.32h-5.65v-5.32Z"/>
    <path class="uuid-84ec9981-4e2b-4e58-8424-0230edce64a0" d="m468.93,667.53h10.97v5.32h-10.97v-5.32Z"/>
    <path class="uuid-8a5a1d7a-4f99-4666-919b-8b966be52ac2" d="m25.41,672.84v5.65h-5.32v-5.65h5.32Z"/>
    <path class="uuid-84ec9981-4e2b-4e58-8424-0230edce64a0" d="m25.41,672.84h38.9v5.65h5.65v38.9h-5.65v5.32H25.41v-5.32h-5.32v-38.9h5.32v-5.65Zm5.65,11.3h-5.65v27.6h5.65v5.65h27.6v-5.65h5.65v-27.6h-5.65v-5.65h-27.6v5.65Z"/>
    <path class="uuid-8a5a1d7a-4f99-4666-919b-8b966be52ac2" d="m64.31,672.84h5.65v5.65h-5.65v-5.65Z"/>
    <path class="uuid-8a5a1d7a-4f99-4666-919b-8b966be52ac2" d="m69.96,717.4v-38.9h5.32v10.97h5.65v-5.32h5.65v-5.65h5.32v-5.65h11.3v5.65h5.32v10.97h-5.32v5.65h-27.93v5.65h27.93v5.32h5.32v11.3h-5.32v5.32h-11.3v-5.32h-5.32v-5.65h-5.65v-5.65h-5.65v11.3h-5.32Z"/>
    <path class="uuid-8a5a1d7a-4f99-4666-919b-8b966be52ac2" d="m114.18,672.84h5.65v49.87h-5.65v-49.87Z"/>
    <path class="uuid-84ec9981-4e2b-4e58-8424-0230edce64a0" d="m119.83,672.84h5.32v49.87h-5.32v-49.87Z"/>
    <path class="uuid-8a5a1d7a-4f99-4666-919b-8b966be52ac2" d="m125.15,672.84h5.65v49.87h-5.65v-49.87Z"/>
    <path class="uuid-8a5a1d7a-4f99-4666-919b-8b966be52ac2" d="m175.02,678.5v38.9h-5.32v-11.3h-5.65v5.65h-5.65v5.65h-5.32v5.32h-11.3v-5.32h-5.32v-11.3h5.32v-5.32h27.93v-5.65h-27.93v-5.65h-5.32v-10.97h5.32v-5.65h11.3v5.65h5.32v5.65h5.65v5.32h5.65v-10.97h5.32Z"/>
    <path class="uuid-8a5a1d7a-4f99-4666-919b-8b966be52ac2" d="m180.67,672.84v5.65h-5.65v-5.65h5.65Z"/>
    <path class="uuid-84ec9981-4e2b-4e58-8424-0230edce64a0" d="m180.67,672.84h38.9v5.65h5.32v38.9h-5.32v5.32h-38.9v-5.32h-5.65v-38.9h5.65v-5.65Zm5.65,11.3h-5.65v27.6h5.65v5.65h27.59v-5.65h5.65v-27.6h-5.65v-5.65h-27.59v5.65Z"/>
    <path class="uuid-8a5a1d7a-4f99-4666-919b-8b966be52ac2" d="m219.57,672.84h5.32v5.65h-5.32v-5.65Z"/>
    <path class="uuid-8a5a1d7a-4f99-4666-919b-8b966be52ac2" d="m224.89,717.4v-38.9h5.65v10.97h5.65v-5.32h5.32v-5.65h5.65v-5.65h10.97v5.65h5.65v10.97h-5.65v5.65h-27.59v5.65h27.59v5.32h5.65v11.3h-5.65v5.32h-10.97v-5.32h-5.65v-5.65h-5.32v-5.65h-5.65v11.3h-5.65Z"/>
    <path class="uuid-8a5a1d7a-4f99-4666-919b-8b966be52ac2" d="m269.44,672.84h5.32v49.87h-5.32v-49.87Z"/>
    <path class="uuid-84ec9981-4e2b-4e58-8424-0230edce64a0" d="m274.76,672.84h5.65v49.87h-5.65v-49.87Z"/>
    <path class="uuid-8a5a1d7a-4f99-4666-919b-8b966be52ac2" d="m280.41,672.84h5.65v49.87h-5.65v-49.87Z"/>
    <path class="uuid-8a5a1d7a-4f99-4666-919b-8b966be52ac2" d="m330.29,678.5v38.9h-5.65v-11.3h-5.32v5.65h-5.65v5.65h-5.65v5.32h-10.97v-5.32h-5.65v-11.3h5.65v-5.32h27.59v-5.65h-27.59v-5.65h-5.65v-10.97h5.65v-5.65h10.97v5.65h5.65v5.65h5.65v5.32h5.32v-10.97h5.65Z"/>
    <path class="uuid-8a5a1d7a-4f99-4666-919b-8b966be52ac2" d="m335.94,672.84v5.65h-5.65v-5.65h5.65Z"/>
    <path class="uuid-84ec9981-4e2b-4e58-8424-0230edce64a0" d="m335.94,672.84h38.57v5.65h5.65v38.9h-5.65v5.32h-38.57v-5.32h-5.65v-38.9h5.65v-5.65Zm5.32,11.3h-5.32v27.6h5.32v5.65h27.93v-5.65h5.32v-27.6h-5.32v-5.65h-27.93v5.65Z"/>
    <path class="uuid-8a5a1d7a-4f99-4666-919b-8b966be52ac2" d="m374.51,672.84h5.65v5.65h-5.65v-5.65Z"/>
    <path class="uuid-8a5a1d7a-4f99-4666-919b-8b966be52ac2" d="m380.16,717.4v-38.9h5.65v10.97h5.32v-5.32h5.65v-5.65h5.65v-5.65h10.97v5.65h5.65v10.97h-5.65v5.65h-27.6v5.65h27.6v5.32h5.65v11.3h-5.65v5.32h-10.97v-5.32h-5.65v-5.65h-5.65v-5.65h-5.32v11.3h-5.65Z"/>
    <path class="uuid-8a5a1d7a-4f99-4666-919b-8b966be52ac2" d="m424.38,672.84h5.65v49.87h-5.65v-49.87Z"/>
    <path class="uuid-84ec9981-4e2b-4e58-8424-0230edce64a0" d="m430.03,672.84h5.65v49.87h-5.65v-49.87Z"/>
    <path class="uuid-8a5a1d7a-4f99-4666-919b-8b966be52ac2" d="m435.68,672.84h5.32v49.87h-5.32v-49.87Z"/>
    <path class="uuid-8a5a1d7a-4f99-4666-919b-8b966be52ac2" d="m485.55,678.5v38.9h-5.65v-11.3h-5.65v5.65h-5.32v5.65h-5.65v5.32h-10.97v-5.32h-5.65v-11.3h5.65v-5.32h27.6v-5.65h-27.6v-5.65h-5.65v-10.97h5.65v-5.65h10.97v5.65h5.65v5.65h5.32v5.32h5.65v-10.97h5.65Z"/>
    <path class="uuid-8a5a1d7a-4f99-4666-919b-8b966be52ac2" d="m490.87,672.84v5.65h-5.32v-5.65h5.32Z"/>
    <path class="uuid-84ec9981-4e2b-4e58-8424-0230edce64a0" d="m490.87,672.84h38.9v5.65h5.65v38.9h-5.65v5.32h-38.9v-5.32h-5.32v-38.9h5.32v-5.65Zm5.65,11.3h-5.65v27.6h5.65v5.65h27.6v-5.65h5.65v-27.6h-5.65v-5.65h-27.6v5.65Z"/>
    <path class="uuid-8a5a1d7a-4f99-4666-919b-8b966be52ac2" d="m529.77,672.84h5.65v5.65h-5.65v-5.65Z"/>
    <path class="uuid-8a5a1d7a-4f99-4666-919b-8b966be52ac2" d="m14.43,678.5h5.65v38.9h-5.65v-38.9Z"/>
    <path class="uuid-8a5a1d7a-4f99-4666-919b-8b966be52ac2" d="m58.65,684.15h-10.97v5.32h5.65v5.65h5.32v-10.97h5.65v27.6h-5.65v-10.97h-5.32v5.32h-5.65v5.65h10.97v5.65h-27.6v-5.65h10.97v-5.65h-5.32v-5.32h-5.65v10.97h-5.65v-27.6h5.65v10.97h5.65v-5.65h5.32v-5.32h-10.97v-5.65h27.6v5.65Z"/>
    <path class="uuid-8a5a1d7a-4f99-4666-919b-8b966be52ac2" d="m213.92,684.15h-10.97v5.32h5.32v5.65h5.65v-10.97h5.65v27.6h-5.65v-10.97h-5.65v5.32h-5.32v5.65h10.97v5.65h-27.59v-5.65h10.97v-5.65h-5.65v-5.32h-5.32v10.97h-5.65v-27.6h5.65v10.97h5.32v-5.65h5.65v-5.32h-10.97v-5.65h27.59v5.65Z"/>
    <path class="uuid-8a5a1d7a-4f99-4666-919b-8b966be52ac2" d="m369.19,684.15h-11.3v5.32h5.65v5.65h5.65v-10.97h5.32v27.6h-5.32v-10.97h-5.65v5.32h-5.65v5.65h11.3v5.65h-27.93v-5.65h11.3v-5.65h-5.65v-5.32h-5.65v10.97h-5.32v-27.6h5.32v10.97h5.65v-5.65h5.65v-5.32h-11.3v-5.65h27.93v5.65Z"/>
    <path class="uuid-8a5a1d7a-4f99-4666-919b-8b966be52ac2" d="m524.12,684.15h-10.97v5.32h5.65v5.65h5.32v-10.97h5.65v27.6h-5.65v-10.97h-5.32v5.32h-5.65v5.65h10.97v5.65h-27.6v-5.65h10.97v-5.65h-5.32v-5.32h-5.65v10.97h-5.65v-27.6h5.65v10.97h5.65v-5.65h5.32v-5.32h-10.97v-5.65h27.6v5.65Z"/>
    <path class="uuid-8a5a1d7a-4f99-4666-919b-8b966be52ac2" d="m535.42,678.5h5.32v38.9h-5.32v-38.9Z"/>
    <path class="uuid-8a5a1d7a-4f99-4666-919b-8b966be52ac2" d="m20.09,717.4h5.32v5.32h-5.32v-5.32Z"/>
    <path class="uuid-8a5a1d7a-4f99-4666-919b-8b966be52ac2" d="m69.96,717.4v5.32h-5.65v-5.32h5.65Z"/>
    <path class="uuid-8a5a1d7a-4f99-4666-919b-8b966be52ac2" d="m175.02,717.4h5.65v5.32h-5.65v-5.32Z"/>
    <path class="uuid-8a5a1d7a-4f99-4666-919b-8b966be52ac2" d="m224.89,717.4v5.32h-5.32v-5.32h5.32Z"/>
    <path class="uuid-8a5a1d7a-4f99-4666-919b-8b966be52ac2" d="m330.29,717.4h5.65v5.32h-5.65v-5.32Z"/>
    <path class="uuid-8a5a1d7a-4f99-4666-919b-8b966be52ac2" d="m380.16,717.4v5.32h-5.65v-5.32h5.65Z"/>
    <path class="uuid-8a5a1d7a-4f99-4666-919b-8b966be52ac2" d="m485.55,717.4h5.32v5.32h-5.32v-5.32Z"/>
    <path class="uuid-8a5a1d7a-4f99-4666-919b-8b966be52ac2" d="m535.42,717.4v5.32h-5.65v-5.32h5.65Z"/>
    <path class="uuid-8a5a1d7a-4f99-4666-919b-8b966be52ac2" d="m25.41,722.72h38.9v5.65h-10.97v5.65h5.32v5.32h5.65v5.65h5.65v10.97h-5.65v5.65h-10.97v-5.65h-5.65v-27.59h-5.65v27.59h-5.32v5.65h-11.3v-5.65h-5.32v-10.97h5.32v-5.65h5.65v-5.32h5.65v-5.65h-11.3v-5.65Z"/>
    <path class="uuid-84ec9981-4e2b-4e58-8424-0230edce64a0" d="m86.58,728.37h-11.3v-5.65h11.3v5.65Z"/>
    <path class="uuid-8a5a1d7a-4f99-4666-919b-8b966be52ac2" d="m114.18,722.72v5.65h-5.65v-5.65h5.65Z"/>
    <path class="uuid-84ec9981-4e2b-4e58-8424-0230edce64a0" d="m114.18,722.72h5.65v5.65h-5.65v-5.65Z"/>
    <path class="uuid-84ec9981-4e2b-4e58-8424-0230edce64a0" d="m125.15,722.72h5.65v5.65h-5.65v-5.65Z"/>
    <path class="uuid-8a5a1d7a-4f99-4666-919b-8b966be52ac2" d="m130.8,722.72h5.65v5.65h-5.65v-5.65Z"/>
    <path class="uuid-84ec9981-4e2b-4e58-8424-0230edce64a0" d="m169.7,728.37h-11.3v-5.65h11.3v5.65Z"/>
    <path class="uuid-8a5a1d7a-4f99-4666-919b-8b966be52ac2" d="m180.67,722.72h38.9v5.65h-11.3v5.65h5.65v5.32h5.65v5.65h5.32v10.97h-5.32v5.65h-11.3v-5.65h-5.32v-27.59h-5.65v27.59h-5.65v5.65h-10.97v-5.65h-5.65v-10.97h5.65v-5.65h5.65v-5.32h5.32v-5.65h-10.97v-5.65Z"/>
    <path class="uuid-84ec9981-4e2b-4e58-8424-0230edce64a0" d="m241.52,728.37h-10.97v-5.65h10.97v5.65Z"/>
    <path class="uuid-8a5a1d7a-4f99-4666-919b-8b966be52ac2" d="m269.44,722.72v5.65h-5.65v-5.65h5.65Z"/>
    <path class="uuid-84ec9981-4e2b-4e58-8424-0230edce64a0" d="m269.44,722.72h5.32v5.65h-5.32v-5.65Z"/>
    <path class="uuid-84ec9981-4e2b-4e58-8424-0230edce64a0" d="m280.41,722.72h5.65v5.65h-5.65v-5.65Z"/>
    <path class="uuid-8a5a1d7a-4f99-4666-919b-8b966be52ac2" d="m286.07,722.72h5.32v5.65h-5.32v-5.65Z"/>
    <path class="uuid-84ec9981-4e2b-4e58-8424-0230edce64a0" d="m324.63,728.37h-10.97v-5.65h10.97v5.65Z"/>
    <path class="uuid-8a5a1d7a-4f99-4666-919b-8b966be52ac2" d="m335.94,722.72h38.57v5.65h-10.97v5.65h5.65v5.32h5.32v5.65h5.65v10.97h-5.65v5.65h-10.97v-5.65h-5.65v-27.59h-5.32v27.59h-5.65v5.65h-10.97v-5.65h-5.65v-10.97h5.65v-5.65h5.32v-5.32h5.65v-5.65h-10.97v-5.65Z"/>
    <path class="uuid-84ec9981-4e2b-4e58-8424-0230edce64a0" d="m396.78,728.37h-10.97v-5.65h10.97v5.65Z"/>
    <path class="uuid-8a5a1d7a-4f99-4666-919b-8b966be52ac2" d="m424.38,722.72v5.65h-5.32v-5.65h5.32Z"/>
    <path class="uuid-84ec9981-4e2b-4e58-8424-0230edce64a0" d="m424.38,722.72h5.65v5.65h-5.65v-5.65Z"/>
    <path class="uuid-84ec9981-4e2b-4e58-8424-0230edce64a0" d="m435.68,722.72h5.32v5.65h-5.32v-5.65Z"/>
    <path class="uuid-8a5a1d7a-4f99-4666-919b-8b966be52ac2" d="m441,722.72h5.65v5.65h-5.65v-5.65Z"/>
    <path class="uuid-84ec9981-4e2b-4e58-8424-0230edce64a0" d="m479.9,728.37h-10.97v-5.65h10.97v5.65Z"/>
    <path class="uuid-8a5a1d7a-4f99-4666-919b-8b966be52ac2" d="m490.87,722.72h38.9v5.65h-10.97v5.65h5.32v5.32h5.65v5.65h5.65v10.97h-5.65v5.65h-10.97v-5.65h-5.65v-27.59h-5.65v27.59h-5.32v5.65h-11.3v-5.65h-5.32v-10.97h5.32v-5.65h5.65v-5.32h5.65v-5.65h-11.3v-5.65Z"/>
    <path class="uuid-84ec9981-4e2b-4e58-8424-0230edce64a0" d="m14.43,728.37h5.65v10.97h-5.65v-10.97Z"/>
    <path class="uuid-84ec9981-4e2b-4e58-8424-0230edce64a0" d="m75.28,728.37v10.97h-5.32v-10.97h5.32Z"/>
    <path class="uuid-8a5a1d7a-4f99-4666-919b-8b966be52ac2" d="m75.28,728.37h11.3v10.97h-11.3v-10.97Z"/>
    <path class="uuid-84ec9981-4e2b-4e58-8424-0230edce64a0" d="m86.58,728.37h5.32v10.97h-5.32v-10.97Z"/>
    <path class="uuid-8a5a1d7a-4f99-4666-919b-8b966be52ac2" d="m108.52,728.37v5.65h-5.32v-5.65h5.32Z"/>
    <path class="uuid-84ec9981-4e2b-4e58-8424-0230edce64a0" d="m108.52,728.37h5.65v5.65h-5.65v-5.65Z"/>
    <path class="uuid-8a5a1d7a-4f99-4666-919b-8b966be52ac2" d="m119.83,728.37h5.32v5.65h5.65v5.32h5.65v5.65h5.32v5.65h5.65v5.32h5.65v5.65h-22.28v-5.65h-5.65v-5.32h-5.32v5.32h-5.65v5.65h-22.28v-5.65h5.65v-5.32h5.65v-5.65h5.32v-5.65h5.65v-5.32h5.65v-5.65Z"/>
    <path class="uuid-84ec9981-4e2b-4e58-8424-0230edce64a0" d="m130.8,728.37h5.65v5.65h-5.65v-5.65Z"/>
    <path class="uuid-8a5a1d7a-4f99-4666-919b-8b966be52ac2" d="m136.45,728.37h5.32v5.65h-5.32v-5.65Z"/>
    <path class="uuid-84ec9981-4e2b-4e58-8424-0230edce64a0" d="m158.4,728.37v10.97h-5.32v-10.97h5.32Z"/>
    <path class="uuid-8a5a1d7a-4f99-4666-919b-8b966be52ac2" d="m158.4,728.37h11.3v10.97h-11.3v-10.97Z"/>
    <path class="uuid-84ec9981-4e2b-4e58-8424-0230edce64a0" d="m169.7,728.37h5.32v10.97h-5.32v-10.97Z"/>
    <path class="uuid-84ec9981-4e2b-4e58-8424-0230edce64a0" d="m230.54,728.37v10.97h-5.65v-10.97h5.65Z"/>
    <path class="uuid-8a5a1d7a-4f99-4666-919b-8b966be52ac2" d="m230.54,728.37h10.97v10.97h-10.97v-10.97Z"/>
    <path class="uuid-84ec9981-4e2b-4e58-8424-0230edce64a0" d="m241.52,728.37h5.65v10.97h-5.65v-10.97Z"/>
    <path class="uuid-8a5a1d7a-4f99-4666-919b-8b966be52ac2" d="m263.79,728.37v5.65h-5.65v-5.65h5.65Z"/>
    <path class="uuid-84ec9981-4e2b-4e58-8424-0230edce64a0" d="m263.79,728.37h5.65v5.65h-5.65v-5.65Z"/>
    <path class="uuid-8a5a1d7a-4f99-4666-919b-8b966be52ac2" d="m274.76,728.37h5.65v5.65h5.65v5.32h5.32v5.65h5.65v5.65h5.65v5.32h5.32v5.65h-21.94v-5.65h-5.65v-5.32h-5.65v5.32h-5.32v5.65h-22.28v-5.65h5.65v-5.32h5.32v-5.65h5.65v-5.65h5.65v-5.32h5.32v-5.65Z"/>
    <path class="uuid-84ec9981-4e2b-4e58-8424-0230edce64a0" d="m286.07,728.37h5.32v5.65h-5.32v-5.65Z"/>
    <path class="uuid-8a5a1d7a-4f99-4666-919b-8b966be52ac2" d="m291.39,728.37h5.65v5.65h-5.65v-5.65Z"/>
    <path class="uuid-84ec9981-4e2b-4e58-8424-0230edce64a0" d="m313.66,728.37v10.97h-5.65v-10.97h5.65Z"/>
    <path class="uuid-8a5a1d7a-4f99-4666-919b-8b966be52ac2" d="m313.66,728.37h10.97v10.97h-10.97v-10.97Z"/>
    <path class="uuid-84ec9981-4e2b-4e58-8424-0230edce64a0" d="m324.63,728.37h5.65v10.97h-5.65v-10.97Z"/>
    <path class="uuid-84ec9981-4e2b-4e58-8424-0230edce64a0" d="m385.81,728.37v10.97h-5.65v-10.97h5.65Z"/>
    <path class="uuid-8a5a1d7a-4f99-4666-919b-8b966be52ac2" d="m385.81,728.37h10.97v10.97h-10.97v-10.97Z"/>
    <path class="uuid-84ec9981-4e2b-4e58-8424-0230edce64a0" d="m396.78,728.37h5.65v10.97h-5.65v-10.97Z"/>
    <path class="uuid-8a5a1d7a-4f99-4666-919b-8b966be52ac2" d="m419.06,728.37v5.65h-5.65v-5.65h5.65Z"/>
    <path class="uuid-84ec9981-4e2b-4e58-8424-0230edce64a0" d="m419.06,728.37h5.32v5.65h-5.32v-5.65Z"/>
    <path class="uuid-8a5a1d7a-4f99-4666-919b-8b966be52ac2" d="m430.03,728.37h5.65v5.65h5.32v5.32h5.65v5.65h5.65v5.65h5.32v5.32h5.65v5.65h-22.28v-5.65h-5.32v-5.32h-5.65v5.32h-5.65v5.65h-21.94v-5.65h5.32v-5.32h5.65v-5.65h5.65v-5.65h5.32v-5.32h5.65v-5.65Z"/>
    <path class="uuid-84ec9981-4e2b-4e58-8424-0230edce64a0" d="m441,728.37h5.65v5.65h-5.65v-5.65Z"/>
    <path class="uuid-8a5a1d7a-4f99-4666-919b-8b966be52ac2" d="m446.65,728.37h5.65v5.65h-5.65v-5.65Z"/>
    <path class="uuid-84ec9981-4e2b-4e58-8424-0230edce64a0" d="m468.93,728.37v10.97h-5.65v-10.97h5.65Z"/>
    <path class="uuid-8a5a1d7a-4f99-4666-919b-8b966be52ac2" d="m468.93,728.37h10.97v10.97h-10.97v-10.97Z"/>
    <path class="uuid-84ec9981-4e2b-4e58-8424-0230edce64a0" d="m479.9,728.37h5.65v10.97h-5.65v-10.97Z"/>
    <path class="uuid-84ec9981-4e2b-4e58-8424-0230edce64a0" d="m535.42,728.37h5.32v10.97h-5.32v-10.97Z"/>
    <path class="uuid-8a5a1d7a-4f99-4666-919b-8b966be52ac2" d="m103.2,734.02v5.32h-5.65v-5.32h5.65Z"/>
    <path class="uuid-84ec9981-4e2b-4e58-8424-0230edce64a0" d="m103.2,734.02h5.32v5.32h-5.32v-5.32Z"/>
    <path class="uuid-84ec9981-4e2b-4e58-8424-0230edce64a0" d="m136.45,734.02h5.32v5.32h-5.32v-5.32Z"/>
    <path class="uuid-8a5a1d7a-4f99-4666-919b-8b966be52ac2" d="m141.77,734.02h5.65v5.32h-5.65v-5.32Z"/>
    <path class="uuid-8a5a1d7a-4f99-4666-919b-8b966be52ac2" d="m258.14,734.02v5.32h-5.32v-5.32h5.32Z"/>
    <path class="uuid-84ec9981-4e2b-4e58-8424-0230edce64a0" d="m258.14,734.02h5.65v5.32h-5.65v-5.32Z"/>
    <path class="uuid-84ec9981-4e2b-4e58-8424-0230edce64a0" d="m291.39,734.02h5.65v5.32h-5.65v-5.32Z"/>
    <path class="uuid-8a5a1d7a-4f99-4666-919b-8b966be52ac2" d="m297.04,734.02h5.65v5.32h-5.65v-5.32Z"/>
    <path class="uuid-8a5a1d7a-4f99-4666-919b-8b966be52ac2" d="m413.41,734.02v5.32h-5.65v-5.32h5.65Z"/>
    <path class="uuid-84ec9981-4e2b-4e58-8424-0230edce64a0" d="m413.41,734.02h5.65v5.32h-5.65v-5.32Z"/>
    <path class="uuid-84ec9981-4e2b-4e58-8424-0230edce64a0" d="m446.65,734.02h5.65v5.32h-5.65v-5.32Z"/>
    <path class="uuid-8a5a1d7a-4f99-4666-919b-8b966be52ac2" d="m452.31,734.02h5.32v5.32h-5.32v-5.32Z"/>
    <path class="uuid-84ec9981-4e2b-4e58-8424-0230edce64a0" d="m75.28,739.34h11.3v5.65h-11.3v-5.65Z"/>
    <path class="uuid-8a5a1d7a-4f99-4666-919b-8b966be52ac2" d="m91.9,739.34h5.65v5.65h-5.65v-5.65Z"/>
    <path class="uuid-84ec9981-4e2b-4e58-8424-0230edce64a0" d="m97.55,739.34h5.65v5.65h-5.65v-5.65Z"/>
    <path class="uuid-84ec9981-4e2b-4e58-8424-0230edce64a0" d="m141.77,739.34h5.65v5.65h-5.65v-5.65Z"/>
    <path class="uuid-8a5a1d7a-4f99-4666-919b-8b966be52ac2" d="m147.42,739.34h5.65v5.65h-5.65v-5.65Z"/>
    <path class="uuid-84ec9981-4e2b-4e58-8424-0230edce64a0" d="m158.4,739.34h11.3v5.65h-11.3v-5.65Z"/>
    <path class="uuid-84ec9981-4e2b-4e58-8424-0230edce64a0" d="m230.54,739.34h10.97v5.65h-10.97v-5.65Z"/>
    <path class="uuid-8a5a1d7a-4f99-4666-919b-8b966be52ac2" d="m247.17,739.34h5.65v5.65h-5.65v-5.65Z"/>
    <path class="uuid-84ec9981-4e2b-4e58-8424-0230edce64a0" d="m252.82,739.34h5.32v5.65h-5.32v-5.65Z"/>
    <path class="uuid-84ec9981-4e2b-4e58-8424-0230edce64a0" d="m297.04,739.34h5.65v5.65h-5.65v-5.65Z"/>
    <path class="uuid-8a5a1d7a-4f99-4666-919b-8b966be52ac2" d="m302.69,739.34h5.32v5.65h-5.32v-5.65Z"/>
    <path class="uuid-84ec9981-4e2b-4e58-8424-0230edce64a0" d="m313.66,739.34h10.97v5.65h-10.97v-5.65Z"/>
    <path class="uuid-84ec9981-4e2b-4e58-8424-0230edce64a0" d="m385.81,739.34h10.97v5.65h-10.97v-5.65Z"/>
    <path class="uuid-8a5a1d7a-4f99-4666-919b-8b966be52ac2" d="m402.43,739.34h5.32v5.65h-5.32v-5.65Z"/>
    <path class="uuid-84ec9981-4e2b-4e58-8424-0230edce64a0" d="m407.75,739.34h5.65v5.65h-5.65v-5.65Z"/>
    <path class="uuid-84ec9981-4e2b-4e58-8424-0230edce64a0" d="m452.31,739.34h5.32v5.65h-5.32v-5.65Z"/>
    <path class="uuid-8a5a1d7a-4f99-4666-919b-8b966be52ac2" d="m457.62,739.34h5.65v5.65h-5.65v-5.65Z"/>
    <path class="uuid-84ec9981-4e2b-4e58-8424-0230edce64a0" d="m468.93,739.34h10.97v5.65h-10.97v-5.65Z"/>
    <path class="uuid-8a5a1d7a-4f99-4666-919b-8b966be52ac2" d="m86.58,744.99h5.32v5.65h-5.32v-5.65Z"/>
    <path class="uuid-84ec9981-4e2b-4e58-8424-0230edce64a0" d="m91.9,744.99h5.65v5.65h-5.65v-5.65Z"/>
    <path class="uuid-84ec9981-4e2b-4e58-8424-0230edce64a0" d="m147.42,744.99h5.65v5.65h-5.65v-5.65Z"/>
    <path class="uuid-8a5a1d7a-4f99-4666-919b-8b966be52ac2" d="m153.08,744.99h5.32v5.65h-5.32v-5.65Z"/>
    <path class="uuid-8a5a1d7a-4f99-4666-919b-8b966be52ac2" d="m241.52,744.99h5.65v5.65h-5.65v-5.65Z"/>
    <path class="uuid-84ec9981-4e2b-4e58-8424-0230edce64a0" d="m247.17,744.99h5.65v5.65h-5.65v-5.65Z"/>
    <path class="uuid-84ec9981-4e2b-4e58-8424-0230edce64a0" d="m302.69,744.99h5.32v5.65h-5.32v-5.65Z"/>
    <path class="uuid-8a5a1d7a-4f99-4666-919b-8b966be52ac2" d="m308.01,744.99h5.65v5.65h-5.65v-5.65Z"/>
    <path class="uuid-8a5a1d7a-4f99-4666-919b-8b966be52ac2" d="m396.78,744.99h5.65v5.65h-5.65v-5.65Z"/>
    <path class="uuid-84ec9981-4e2b-4e58-8424-0230edce64a0" d="m402.43,744.99h5.32v5.65h-5.32v-5.65Z"/>
    <path class="uuid-84ec9981-4e2b-4e58-8424-0230edce64a0" d="m457.62,744.99h5.65v5.65h-5.65v-5.65Z"/>
    <path class="uuid-8a5a1d7a-4f99-4666-919b-8b966be52ac2" d="m463.28,744.99h5.65v5.65h-5.65v-5.65Z"/>
    <path class="uuid-8a5a1d7a-4f99-4666-919b-8b966be52ac2" d="m86.58,750.64v5.32h-5.65v-5.32h5.65Z"/>
    <path class="uuid-84ec9981-4e2b-4e58-8424-0230edce64a0" d="m86.58,750.64h5.32v5.32h-5.32v-5.32Z"/>
    <path class="uuid-84ec9981-4e2b-4e58-8424-0230edce64a0" d="m153.08,750.64h5.32v5.32h-5.32v-5.32Z"/>
    <path class="uuid-8a5a1d7a-4f99-4666-919b-8b966be52ac2" d="m158.4,750.64h5.65v5.32h-5.65v-5.32Z"/>
    <path class="uuid-8a5a1d7a-4f99-4666-919b-8b966be52ac2" d="m241.52,750.64v5.32h-5.32v-5.32h5.32Z"/>
    <path class="uuid-84ec9981-4e2b-4e58-8424-0230edce64a0" d="m241.52,750.64h5.65v5.32h-5.65v-5.32Z"/>
    <path class="uuid-84ec9981-4e2b-4e58-8424-0230edce64a0" d="m308.01,750.64h5.65v5.32h-5.65v-5.32Z"/>
    <path class="uuid-8a5a1d7a-4f99-4666-919b-8b966be52ac2" d="m313.66,750.64h5.65v5.32h-5.65v-5.32Z"/>
    <path class="uuid-8a5a1d7a-4f99-4666-919b-8b966be52ac2" d="m396.78,750.64v5.32h-5.65v-5.32h5.65Z"/>
    <path class="uuid-84ec9981-4e2b-4e58-8424-0230edce64a0" d="m396.78,750.64h5.65v5.32h-5.65v-5.32Z"/>
    <path class="uuid-84ec9981-4e2b-4e58-8424-0230edce64a0" d="m463.28,750.64h5.65v5.32h-5.65v-5.32Z"/>
    <path class="uuid-8a5a1d7a-4f99-4666-919b-8b966be52ac2" d="m468.93,750.64h5.32v5.32h-5.32v-5.32Z"/>
    <path class="uuid-8a5a1d7a-4f99-4666-919b-8b966be52ac2" d="m80.93,755.96v5.65h-5.65v-5.65h5.65Z"/>
    <path class="uuid-84ec9981-4e2b-4e58-8424-0230edce64a0" d="m80.93,755.96h5.65v5.65h71.82v-5.65h5.65v5.65h72.15v-5.65h5.32v5.65h72.15v-5.65h5.65v5.65h71.81v-5.65h5.65v5.65h72.15v-5.65h5.32v5.65h66.5v5.65h-27.6v5.32h-5.65v-5.32h-83.12v5.32h-5.32v-5.32h-83.12v5.32h-5.65v-5.32h-83.12v5.32h-5.65v-5.32h-83.12v5.32h-5.32v-5.32h-83.12v5.32h-5.65v-5.32H14.43v-5.65h66.5v-5.65Z"/>
    <path class="uuid-8a5a1d7a-4f99-4666-919b-8b966be52ac2" d="m164.05,755.96h5.65v5.65h-5.65v-5.65Z"/>
    <path class="uuid-8a5a1d7a-4f99-4666-919b-8b966be52ac2" d="m236.19,755.96v5.65h-5.65v-5.65h5.65Z"/>
    <path class="uuid-8a5a1d7a-4f99-4666-919b-8b966be52ac2" d="m319.31,755.96h5.32v5.65h-5.32v-5.65Z"/>
    <path class="uuid-8a5a1d7a-4f99-4666-919b-8b966be52ac2" d="m391.13,755.96v5.65h-5.32v-5.65h5.32Z"/>
    <path class="uuid-8a5a1d7a-4f99-4666-919b-8b966be52ac2" d="m474.25,755.96h5.65v5.65h-5.65v-5.65Z"/>
    <path class="uuid-8a5a1d7a-4f99-4666-919b-8b966be52ac2" d="m20.09,767.27h5.32v5.32h-5.32v-5.32Z"/>
    <path class="uuid-8a5a1d7a-4f99-4666-919b-8b966be52ac2" d="m108.52,767.27h5.65v5.32h-5.65v-5.32Z"/>
    <path class="uuid-8a5a1d7a-4f99-4666-919b-8b966be52ac2" d="m197.3,767.27h5.65v5.32h-5.65v-5.32Z"/>
    <path class="uuid-8a5a1d7a-4f99-4666-919b-8b966be52ac2" d="m286.07,767.27h5.32v5.32h-5.32v-5.32Z"/>
    <path class="uuid-8a5a1d7a-4f99-4666-919b-8b966be52ac2" d="m374.51,767.27h5.65v5.32h-5.65v-5.32Z"/>
    <path class="uuid-8a5a1d7a-4f99-4666-919b-8b966be52ac2" d="m463.28,767.27h5.65v5.32h-5.65v-5.32Z"/>
    <path class="uuid-8a5a1d7a-4f99-4666-919b-8b966be52ac2" d="m14.43,772.59h5.65v5.65h-5.65v-5.65Z"/>
    <path class="uuid-8a5a1d7a-4f99-4666-919b-8b966be52ac2" d="m25.41,772.59h16.62v16.62h-5.32v-5.32h-5.65v-5.65h-5.65v-5.65Z"/>
    <path class="uuid-84ec9981-4e2b-4e58-8424-0230edce64a0" d="m64.31,772.59v5.65h-16.62v-5.65h16.62Z"/>
    <path class="uuid-84ec9981-4e2b-4e58-8424-0230edce64a0" d="m69.96,772.59h16.62v16.62h-5.65v-5.32h-5.65v-5.65h-5.32v-5.65Z"/>
    <path class="uuid-8a5a1d7a-4f99-4666-919b-8b966be52ac2" d="m108.52,772.59v5.65h-16.62v-5.65h16.62Z"/>
    <path class="uuid-8a5a1d7a-4f99-4666-919b-8b966be52ac2" d="m114.18,772.59h16.62v16.62h-5.65v-5.32h-5.32v-5.65h-5.65v-5.65Z"/>
    <path class="uuid-84ec9981-4e2b-4e58-8424-0230edce64a0" d="m153.08,772.59v5.65h-16.62v-5.65h16.62Z"/>
    <path class="uuid-84ec9981-4e2b-4e58-8424-0230edce64a0" d="m158.4,772.59h16.62v16.62h-5.32v-5.32h-5.65v-5.65h-5.65v-5.65Z"/>
    <path class="uuid-8a5a1d7a-4f99-4666-919b-8b966be52ac2" d="m197.3,772.59v5.65h-16.62v-5.65h16.62Z"/>
    <path class="uuid-8a5a1d7a-4f99-4666-919b-8b966be52ac2" d="m202.95,772.59h16.62v16.62h-5.65v-5.32h-5.65v-5.65h-5.32v-5.65Z"/>
    <path class="uuid-84ec9981-4e2b-4e58-8424-0230edce64a0" d="m241.52,772.59v5.65h-16.62v-5.65h16.62Z"/>
    <path class="uuid-84ec9981-4e2b-4e58-8424-0230edce64a0" d="m247.17,772.59h16.62v16.62h-5.65v-5.32h-5.32v-5.65h-5.65v-5.65Z"/>
    <path class="uuid-8a5a1d7a-4f99-4666-919b-8b966be52ac2" d="m286.07,772.59v5.65h-16.62v-5.65h16.62Z"/>
    <path class="uuid-8a5a1d7a-4f99-4666-919b-8b966be52ac2" d="m291.39,772.59h16.62v16.62h-5.32v-5.32h-5.65v-5.65h-5.65v-5.65Z"/>
    <path class="uuid-84ec9981-4e2b-4e58-8424-0230edce64a0" d="m330.29,772.59v5.65h-16.62v-5.65h16.62Z"/>
    <path class="uuid-84ec9981-4e2b-4e58-8424-0230edce64a0" d="m335.94,772.59h16.62v16.62h-5.65v-5.32h-5.65v-5.65h-5.32v-5.65Z"/>
    <path class="uuid-8a5a1d7a-4f99-4666-919b-8b966be52ac2" d="m374.51,772.59v5.65h-16.62v-5.65h16.62Z"/>
    <path class="uuid-8a5a1d7a-4f99-4666-919b-8b966be52ac2" d="m380.16,772.59h16.62v16.62h-5.65v-5.32h-5.32v-5.65h-5.65v-5.65Z"/>
    <path class="uuid-84ec9981-4e2b-4e58-8424-0230edce64a0" d="m419.06,772.59v5.65h-16.62v-5.65h16.62Z"/>
    <path class="uuid-84ec9981-4e2b-4e58-8424-0230edce64a0" d="m424.38,772.59h16.62v16.62h-5.32v-5.32h-5.65v-5.65h-5.65v-5.65Z"/>
    <path class="uuid-8a5a1d7a-4f99-4666-919b-8b966be52ac2" d="m463.28,772.59v5.65h-16.62v-5.65h16.62Z"/>
    <path class="uuid-8a5a1d7a-4f99-4666-919b-8b966be52ac2" d="m468.93,772.59h16.62v16.62h-5.65v-5.32h-5.65v-5.65h-5.32v-5.65Z"/>
    <path class="uuid-84ec9981-4e2b-4e58-8424-0230edce64a0" d="m507.5,772.59v5.65h-16.62v-5.65h16.62Z"/>
    <path class="uuid-84ec9981-4e2b-4e58-8424-0230edce64a0" d="m513.15,772.59h16.62v16.62h-5.65v-5.32h-5.32v-5.65h-5.65v-5.65Z"/>
    <path class="uuid-8a5a1d7a-4f99-4666-919b-8b966be52ac2" d="m540.74,778.24h-5.32v-5.65h5.32v5.65Z"/>
    <path class="uuid-8a5a1d7a-4f99-4666-919b-8b966be52ac2" d="m47.68,778.24h10.97v5.65h-5.32v5.32h-5.65v-10.97Z"/>
    <path class="uuid-84ec9981-4e2b-4e58-8424-0230edce64a0" d="m91.9,778.24h11.3v5.65h-5.65v5.32h-5.65v-10.97Z"/>
    <path class="uuid-8a5a1d7a-4f99-4666-919b-8b966be52ac2" d="m136.45,778.24h10.97v5.65h-5.65v5.32h-5.32v-10.97Z"/>
    <path class="uuid-84ec9981-4e2b-4e58-8424-0230edce64a0" d="m180.67,778.24h10.97v5.65h-5.32v5.32h-5.65v-10.97Z"/>
    <path class="uuid-8a5a1d7a-4f99-4666-919b-8b966be52ac2" d="m224.89,778.24h11.3v5.65h-5.65v5.32h-5.65v-10.97Z"/>
    <path class="uuid-84ec9981-4e2b-4e58-8424-0230edce64a0" d="m269.44,778.24h10.97v5.65h-5.65v5.32h-5.32v-10.97Z"/>
    <path class="uuid-8a5a1d7a-4f99-4666-919b-8b966be52ac2" d="m313.66,778.24h10.97v5.65h-5.32v5.32h-5.65v-10.97Z"/>
    <path class="uuid-84ec9981-4e2b-4e58-8424-0230edce64a0" d="m357.88,778.24h11.3v5.65h-5.65v5.32h-5.65v-10.97Z"/>
    <path class="uuid-8a5a1d7a-4f99-4666-919b-8b966be52ac2" d="m402.43,778.24h10.97v5.65h-5.65v5.32h-5.32v-10.97Z"/>
    <path class="uuid-84ec9981-4e2b-4e58-8424-0230edce64a0" d="m446.65,778.24h10.97v5.65h-5.32v5.32h-5.65v-10.97Z"/>
    <path class="uuid-8a5a1d7a-4f99-4666-919b-8b966be52ac2" d="m490.87,778.24h11.3v5.65h-5.65v5.32h-5.65v-10.97Z"/>
    <path class="uuid-84ec9981-4e2b-4e58-8424-0230edce64a0" d="m535.42,778.24h5.32v10.97h-5.32v-10.97Z"/>
    <path class="uuid-84ec9981-4e2b-4e58-8424-0230edce64a0" d="m14.43,783.89h5.65v5.32h-5.65v-5.32Z"/>
    <path class="uuid-8a5a1d7a-4f99-4666-919b-8b966be52ac2" d="m31.06,783.89v5.32h-5.65v-5.32h5.65Z"/>
    <path class="uuid-8a5a1d7a-4f99-4666-919b-8b966be52ac2" d="m58.65,783.89h5.65v5.32h-5.65v-5.32Z"/>
    <path class="uuid-84ec9981-4e2b-4e58-8424-0230edce64a0" d="m75.28,783.89v5.32h-5.32v-5.32h5.32Z"/>
    <path class="uuid-84ec9981-4e2b-4e58-8424-0230edce64a0" d="m103.2,783.89h5.32v5.32h-5.32v-5.32Z"/>
    <path class="uuid-8a5a1d7a-4f99-4666-919b-8b966be52ac2" d="m119.83,783.89v5.32h-5.65v-5.32h5.65Z"/>
    <path class="uuid-8a5a1d7a-4f99-4666-919b-8b966be52ac2" d="m147.42,783.89h5.65v5.32h-5.65v-5.32Z"/>
    <path class="uuid-84ec9981-4e2b-4e58-8424-0230edce64a0" d="m164.05,783.89v5.32h-5.65v-5.32h5.65Z"/>
    <path class="uuid-84ec9981-4e2b-4e58-8424-0230edce64a0" d="m191.64,783.89h5.65v5.32h-5.65v-5.32Z"/>
    <path class="uuid-8a5a1d7a-4f99-4666-919b-8b966be52ac2" d="m208.27,783.89v5.32h-5.32v-5.32h5.32Z"/>
    <path class="uuid-8a5a1d7a-4f99-4666-919b-8b966be52ac2" d="m236.19,783.89h5.32v5.32h-5.32v-5.32Z"/>
    <path class="uuid-84ec9981-4e2b-4e58-8424-0230edce64a0" d="m252.82,783.89v5.32h-5.65v-5.32h5.65Z"/>
    <path class="uuid-84ec9981-4e2b-4e58-8424-0230edce64a0" d="m280.41,783.89h5.65v5.32h-5.65v-5.32Z"/>
    <path class="uuid-8a5a1d7a-4f99-4666-919b-8b966be52ac2" d="m297.04,783.89v5.32h-5.65v-5.32h5.65Z"/>
    <path class="uuid-8a5a1d7a-4f99-4666-919b-8b966be52ac2" d="m324.63,783.89h5.65v5.32h-5.65v-5.32Z"/>
    <path class="uuid-84ec9981-4e2b-4e58-8424-0230edce64a0" d="m341.26,783.89v5.32h-5.32v-5.32h5.32Z"/>
    <path class="uuid-84ec9981-4e2b-4e58-8424-0230edce64a0" d="m369.19,783.89h5.32v5.32h-5.32v-5.32Z"/>
    <path class="uuid-8a5a1d7a-4f99-4666-919b-8b966be52ac2" d="m385.81,783.89v5.32h-5.65v-5.32h5.65Z"/>
    <path class="uuid-8a5a1d7a-4f99-4666-919b-8b966be52ac2" d="m413.41,783.89h5.65v5.32h-5.65v-5.32Z"/>
    <path class="uuid-84ec9981-4e2b-4e58-8424-0230edce64a0" d="m430.03,783.89v5.32h-5.65v-5.32h5.65Z"/>
    <path class="uuid-84ec9981-4e2b-4e58-8424-0230edce64a0" d="m457.62,783.89h5.65v5.32h-5.65v-5.32Z"/>
    <path class="uuid-8a5a1d7a-4f99-4666-919b-8b966be52ac2" d="m474.25,783.89v5.32h-5.32v-5.32h5.32Z"/>
    <path class="uuid-8a5a1d7a-4f99-4666-919b-8b966be52ac2" d="m502.18,783.89h5.32v5.32h-5.32v-5.32Z"/>
    <path class="uuid-84ec9981-4e2b-4e58-8424-0230edce64a0" d="m518.8,783.89v5.32h-5.65v-5.32h5.65Z"/>
  </g>
</svg>
